<ttFont>
<head>
    <!-- Most of this table will be recalculated by the compiler -->
    <tableVersion value="1.0"/>
    <fontRevision value="2.304"/>
    <checkSumAdjustment value="0xadee1709"/>
    <magicNumber value="0x5f0f3cf5"/>
    <flags value="00000000 00001111"/>
    <unitsPerEm value="1000"/>
    <created value="Sat Jan 14 14:02:33 2023"/>
    <modified value="Sat Jan 14 14:11:15 2023"/>
    <xMin value="-1728"/>
    <yMin value="-400"/>
    <xMax value="765"/>
    <yMax value="1120"/>
    <macStyle value="00000000 00000001"/>
    <lowestRecPPEM value="6"/>
    <fontDirectionHint value="2"/>
    <indexToLocFormat value="1"/>
    <glyphDataFormat value="0"/>
  </head>
    <TTGlyph name=".notdef" xMin="90" yMin="0" xMax="510" yMax="730">
      <contour>
        <pt x="90" y="0" on="1"/>
        <pt x="90" y="730" on="1"/>
        <pt x="510" y="730" on="1"/>
        <pt x="510" y="0" on="1"/>
      </contour>
      <contour>
        <pt x="140" y="109" on="1"/>
        <pt x="440" y="680" on="1"/>
        <pt x="140" y="680" on="1"/>
      </contour>
      <contour>
        <pt x="160" y="50" on="1"/>
        <pt x="460" y="50" on="1"/>
        <pt x="460" y="621" on="1"/>
      </contour>
    </TTGlyph>
    <TTGlyph name="A" xMin="35" yMin="0" xMax="565" yMax="730">
      <contour>
        <pt x="35" y="0" on="1"/>
        <pt x="219" y="730" on="1"/>
        <pt x="380" y="730" on="1"/>
        <pt x="565" y="0" on="1"/>
        <pt x="437" y="0" on="1"/>
        <pt x="397" y="177" on="1"/>
        <pt x="203" y="177" on="1"/>
        <pt x="163" y="0" on="1"/>
      </contour>
      <contour>
        <pt x="226" y="279" on="1"/>
        <pt x="374" y="279" on="1"/>
        <pt x="330" y="475" on="1"/>
        <pt x="319" y="524" on="0"/>
        <pt x="303" y="603" on="0"/>
        <pt x="300" y="621" on="1"/>
        <pt x="297" y="603" on="0"/>
        <pt x="281" y="524" on="0"/>
        <pt x="270" y="476" on="1"/>
      </contour>
    </TTGlyph>
    <TTGlyph name="AE" xMin="12" yMin="0" xMax="576" yMax="730">
      <contour>
        <pt x="12" y="0" on="1"/>
        <pt x="153" y="730" on="1"/>
        <pt x="576" y="730" on="1"/>
        <pt x="576" y="623" on="1"/>
        <pt x="404" y="623" on="1"/>
        <pt x="404" y="429" on="1"/>
        <pt x="551" y="429" on="1"/>
        <pt x="551" y="319" on="1"/>
        <pt x="404" y="319" on="1"/>
        <pt x="404" y="108" on="1"/>
        <pt x="576" y="108" on="1"/>
        <pt x="576" y="0" on="1"/>
        <pt x="296" y="0" on="1"/>
        <pt x="296" y="181" on="1"/>
        <pt x="166" y="181" on="1"/>
        <pt x="134" y="0" on="1"/>
      </contour>
      <contour>
        <pt x="181" y="273" on="1"/>
        <pt x="296" y="273" on="1"/>
        <pt x="296" y="623" on="1"/>
        <pt x="244" y="623" on="1"/>
      </contour>
    </TTGlyph>
    <TTGlyph name="AEacute" xMin="12" yMin="0" xMax="576" yMax="950">
      <component glyphName="AE" x="0" y="0" flags="0x204"/>
      <component glyphName="acutecomb.case" x="610" y="0" flags="0x4"/>
    </TTGlyph>
    <TTGlyph name="Aacute" xMin="35" yMin="0" xMax="565" yMax="950">
      <component glyphName="A" x="0" y="0" flags="0x204"/>
      <component glyphName="acutecomb.case" x="610" y="0" flags="0x4"/>
    </TTGlyph>
    <TTGlyph name="Abreve" xMin="35" yMin="0" xMax="565" yMax="950">
      <component glyphName="A" x="0" y="0" flags="0x204"/>
      <component glyphName="uni0306.case" x="600" y="0" flags="0x4"/>
    </TTGlyph>
    <TTGlyph name="Acircumflex" xMin="35" yMin="0" xMax="565" yMax="950">
      <component glyphName="A" x="0" y="0" flags="0x204"/>
      <component glyphName="uni0302.case" x="600" y="0" flags="0x4"/>
    </TTGlyph>
    <TTGlyph name="Adieresis" xMin="35" yMin="0" xMax="565" yMax="953">
      <component glyphName="A" x="0" y="0" flags="0x204"/>
      <component glyphName="uni0308.case" x="600" y="0" flags="0x4"/>
    </TTGlyph>
    <TTGlyph name="Agrave" xMin="35" yMin="0" xMax="565" yMax="950">
      <component glyphName="A" x="0" y="0" flags="0x204"/>
      <component glyphName="gravecomb.case" x="590" y="0" flags="0x4"/>
    </TTGlyph>
    <TTGlyph name="Alpha" xMin="35" yMin="0" xMax="565" yMax="730">
      <component glyphName="A" x="0" y="0" flags="0x204"/>
    </TTGlyph>
    <TTGlyph name="Alphatonos" xMin="-17" yMin="0" xMax="565" yMax="730">
      <component glyphName="A" x="0" y="0" flags="0x204"/>
      <component glyphName="tonos.case" x="-230" y="0" flags="0x4"/>
    </TTGlyph>
    <TTGlyph name="Amacron" xMin="35" yMin="0" xMax="565" yMax="924">
      <component glyphName="A" x="0" y="0" flags="0x204"/>
      <component glyphName="uni0304.case" x="600" y="0" flags="0x4"/>
    </TTGlyph>
    <TTGlyph name="Aogonek" xMin="35" yMin="-216" xMax="577" yMax="730">
      <contour>
        <pt x="35" y="0" on="1"/>
        <pt x="219" y="730" on="1"/>
        <pt x="380" y="730" on="1"/>
        <pt x="565" y="0" on="1"/>
        <pt x="524" y="0" on="1"/>
        <pt x="513" y="-10" on="1"/>
        <pt x="462" y="-54" on="0"/>
        <pt x="462" y="-87" on="1"/>
        <pt x="462" y="-105" on="0"/>
        <pt x="489" y="-130" on="0"/>
        <pt x="512" y="-130" on="1"/>
        <pt x="577" y="-130" on="1"/>
        <pt x="577" y="-216" on="1"/>
        <pt x="482" y="-216" on="1"/>
        <pt x="423" y="-216" on="0"/>
        <pt x="355" y="-158" on="0"/>
        <pt x="355" y="-113" on="1"/>
        <pt x="355" y="-51" on="0"/>
        <pt x="437" y="0" on="1"/>
        <pt x="397" y="177" on="1"/>
        <pt x="203" y="177" on="1"/>
        <pt x="163" y="0" on="1"/>
      </contour>
      <contour>
        <pt x="226" y="279" on="1"/>
        <pt x="374" y="279" on="1"/>
        <pt x="330" y="475" on="1"/>
        <pt x="319" y="524" on="0"/>
        <pt x="303" y="603" on="0"/>
        <pt x="300" y="621" on="1"/>
        <pt x="297" y="603" on="0"/>
        <pt x="281" y="524" on="0"/>
        <pt x="270" y="476" on="1"/>
      </contour>
    </TTGlyph>
    <TTGlyph name="Aring" xMin="35" yMin="0" xMax="565" yMax="1002">
      <component glyphName="A" x="0" y="0" flags="0x204"/>
      <component glyphName="uni030A.case" x="600" y="0" flags="0x4"/>
    </TTGlyph>
    <TTGlyph name="Atilde" xMin="35" yMin="0" xMax="565" yMax="954">
      <component glyphName="A" x="0" y="0" flags="0x204"/>
      <component glyphName="tildecomb.case" x="600" y="0" flags="0x4"/>
    </TTGlyph>
    <TTGlyph name="B" xMin="77" yMin="0" xMax="548" yMax="730">
      <contour>
        <pt x="77" y="0" on="1"/>
        <pt x="77" y="730" on="1"/>
        <pt x="301" y="730" on="1"/>
        <pt x="406" y="730" on="0"/>
        <pt x="531" y="628" on="0"/>
        <pt x="531" y="542" on="1"/>
        <pt x="531" y="482" on="0"/>
        <pt x="462" y="396" on="0"/>
        <pt x="407" y="387" on="1"/>
        <pt x="407" y="385" on="1"/>
        <pt x="448" y="380" on="0"/>
        <pt x="512" y="331" on="0"/>
        <pt x="548" y="254" on="0"/>
        <pt x="548" y="208" on="1"/>
        <pt x="548" y="145" on="0"/>
        <pt x="490" y="51" on="0"/>
        <pt x="384" y="0" on="0"/>
        <pt x="312" y="0" on="1"/>
      </contour>
      <contour>
        <pt x="199" y="429" on="1"/>
        <pt x="299" y="429" on="1"/>
        <pt x="348" y="429" on="0"/>
        <pt x="406" y="482" on="0"/>
        <pt x="406" y="528" on="1"/>
        <pt x="406" y="573" on="0"/>
        <pt x="349" y="626" on="0"/>
        <pt x="299" y="626" on="1"/>
        <pt x="199" y="626" on="1"/>
      </contour>
      <contour>
        <pt x="199" y="104" on="1"/>
        <pt x="305" y="104" on="1"/>
        <pt x="360" y="104" on="0"/>
        <pt x="423" y="163" on="0"/>
        <pt x="423" y="214" on="1"/>
        <pt x="423" y="265" on="0"/>
        <pt x="360" y="328" on="0"/>
        <pt x="305" y="328" on="1"/>
        <pt x="199" y="328" on="1"/>
      </contour>
    </TTGlyph>
    <TTGlyph name="Beta" xMin="77" yMin="0" xMax="548" yMax="730">
      <component glyphName="B" x="0" y="0" flags="0x204"/>
    </TTGlyph>
    <TTGlyph name="C" xMin="76" yMin="-10" xMax="540" yMax="740">
      <contour>
        <pt x="308" y="-10" on="1"/>
        <pt x="237" y="-10" on="0"/>
        <pt x="133" y="43" on="0"/>
        <pt x="76" y="140" on="0"/>
        <pt x="76" y="206" on="1"/>
        <pt x="76" y="524" on="1"/>
        <pt x="76" y="590" on="0"/>
        <pt x="133" y="687" on="0"/>
        <pt x="237" y="740" on="0"/>
        <pt x="308" y="740" on="1"/>
        <pt x="378" y="740" on="0"/>
        <pt x="482" y="687" on="0"/>
        <pt x="540" y="590" on="0"/>
        <pt x="540" y="524" on="1"/>
        <pt x="414" y="524" on="1"/>
        <pt x="414" y="575" on="0"/>
        <pt x="359" y="630" on="0"/>
        <pt x="308" y="630" on="1"/>
        <pt x="257" y="630" on="0"/>
        <pt x="201" y="575" on="0"/>
        <pt x="201" y="524" on="1"/>
        <pt x="201" y="206" on="1"/>
        <pt x="201" y="155" on="0"/>
        <pt x="257" y="100" on="0"/>
        <pt x="308" y="100" on="1"/>
        <pt x="359" y="100" on="0"/>
        <pt x="414" y="155" on="0"/>
        <pt x="414" y="206" on="1"/>
        <pt x="540" y="206" on="1"/>
        <pt x="540" y="140" on="0"/>
        <pt x="482" y="43" on="0"/>
        <pt x="378" y="-10" on="0"/>
      </contour>
    </TTGlyph>
    <TTGlyph name="Cacute" xMin="76" yMin="-10" xMax="540" yMax="950">
      <component glyphName="C" x="0" y="0" flags="0x204"/>
      <component glyphName="acutecomb.case" x="615" y="0" flags="0x4"/>
    </TTGlyph>
    <TTGlyph name="Ccaron" xMin="76" yMin="-10" xMax="540" yMax="950">
      <component glyphName="C" x="0" y="0" flags="0x204"/>
      <component glyphName="uni030C.case" x="605" y="0" flags="0x4"/>
    </TTGlyph>
    <TTGlyph name="Ccedilla" xMin="76" yMin="-216" xMax="540" yMax="740">
      <contour>
        <pt x="204" y="-216" on="1"/>
        <pt x="204" y="-152" on="1"/>
        <pt x="280" y="-152" on="1"/>
        <pt x="304" y="-152" on="0"/>
        <pt x="333" y="-129" on="0"/>
        <pt x="333" y="-116" on="1"/>
        <pt x="333" y="-95" on="0"/>
        <pt x="274" y="-69" on="0"/>
        <pt x="221" y="-69" on="1"/>
        <pt x="247" y="-4" on="1"/>
        <pt x="167" y="12" on="0"/>
        <pt x="76" y="122" on="0"/>
        <pt x="76" y="206" on="1"/>
        <pt x="76" y="524" on="1"/>
        <pt x="76" y="590" on="0"/>
        <pt x="133" y="687" on="0"/>
        <pt x="237" y="740" on="0"/>
        <pt x="308" y="740" on="1"/>
        <pt x="378" y="740" on="0"/>
        <pt x="482" y="687" on="0"/>
        <pt x="540" y="590" on="0"/>
        <pt x="540" y="524" on="1"/>
        <pt x="414" y="524" on="1"/>
        <pt x="414" y="575" on="0"/>
        <pt x="359" y="630" on="0"/>
        <pt x="308" y="630" on="1"/>
        <pt x="257" y="630" on="0"/>
        <pt x="201" y="575" on="0"/>
        <pt x="201" y="524" on="1"/>
        <pt x="201" y="206" on="1"/>
        <pt x="201" y="155" on="0"/>
        <pt x="257" y="100" on="0"/>
        <pt x="308" y="100" on="1"/>
        <pt x="359" y="100" on="0"/>
        <pt x="414" y="155" on="0"/>
        <pt x="414" y="206" on="1"/>
        <pt x="540" y="206" on="1"/>
        <pt x="540" y="140" on="0"/>
        <pt x="483" y="43" on="0"/>
        <pt x="380" y="-10" on="0"/>
        <pt x="312" y="-10" on="1"/>
        <pt x="303" y="-37" on="1"/>
        <pt x="331" y="-40" on="0"/>
        <pt x="393" y="-61" on="0"/>
        <pt x="435" y="-99" on="0"/>
        <pt x="435" y="-128" on="1"/>
        <pt x="435" y="-163" on="0"/>
        <pt x="363" y="-216" on="0"/>
        <pt x="304" y="-216" on="1"/>
      </contour>
    </TTGlyph>
    <TTGlyph name="Ccircumflex" xMin="76" yMin="-10" xMax="540" yMax="950">
      <component glyphName="C" x="0" y="0" flags="0x204"/>
      <component glyphName="uni0302.case" x="605" y="0" flags="0x4"/>
    </TTGlyph>
    <TTGlyph name="Cdotaccent" xMin="76" yMin="-10" xMax="540" yMax="952">
      <component glyphName="C" x="0" y="0" flags="0x204"/>
      <component glyphName="uni0307.case" x="605" y="0" flags="0x4"/>
    </TTGlyph>
    <TTGlyph name="Chi" xMin="28" yMin="0" xMax="572" yMax="730">
      <component glyphName="X" x="0" y="0" flags="0x204"/>
    </TTGlyph>
    <TTGlyph name="D" xMin="75" yMin="0" xMax="535" yMax="730">
      <contour>
        <pt x="75" y="0" on="1"/>
        <pt x="75" y="730" on="1"/>
        <pt x="292" y="730" on="1"/>
        <pt x="366" y="730" on="0"/>
        <pt x="475" y="673" on="0"/>
        <pt x="535" y="571" on="0"/>
        <pt x="535" y="502" on="1"/>
        <pt x="535" y="229" on="1"/>
        <pt x="535" y="160" on="0"/>
        <pt x="475" y="57" on="0"/>
        <pt x="366" y="0" on="0"/>
        <pt x="292" y="0" on="1"/>
      </contour>
      <contour>
        <pt x="200" y="112" on="1"/>
        <pt x="292" y="112" on="1"/>
        <pt x="346" y="112" on="0"/>
        <pt x="410" y="175" on="0"/>
        <pt x="410" y="229" on="1"/>
        <pt x="410" y="502" on="1"/>
        <pt x="410" y="555" on="0"/>
        <pt x="346" y="618" on="0"/>
        <pt x="292" y="618" on="1"/>
        <pt x="200" y="618" on="1"/>
      </contour>
    </TTGlyph>
    <TTGlyph name="Dcaron" xMin="75" yMin="0" xMax="535" yMax="950">
      <component glyphName="D" x="0" y="0" flags="0x204"/>
      <component glyphName="uni030C.case" x="600" y="0" flags="0x4"/>
    </TTGlyph>
    <TTGlyph name="Dcroat" xMin="10" yMin="0" xMax="535" yMax="730">
      <contour>
        <pt x="75" y="0" on="1"/>
        <pt x="75" y="329" on="1"/>
        <pt x="10" y="329" on="1"/>
        <pt x="10" y="416" on="1"/>
        <pt x="75" y="416" on="1"/>
        <pt x="75" y="730" on="1"/>
        <pt x="292" y="730" on="1"/>
        <pt x="366" y="730" on="0"/>
        <pt x="475" y="673" on="0"/>
        <pt x="535" y="571" on="0"/>
        <pt x="535" y="502" on="1"/>
        <pt x="535" y="229" on="1"/>
        <pt x="535" y="160" on="0"/>
        <pt x="475" y="57" on="0"/>
        <pt x="366" y="0" on="0"/>
        <pt x="292" y="0" on="1"/>
      </contour>
      <contour>
        <pt x="200" y="112" on="1"/>
        <pt x="292" y="112" on="1"/>
        <pt x="346" y="112" on="0"/>
        <pt x="410" y="175" on="0"/>
        <pt x="410" y="229" on="1"/>
        <pt x="410" y="502" on="1"/>
        <pt x="410" y="555" on="0"/>
        <pt x="346" y="618" on="0"/>
        <pt x="292" y="618" on="1"/>
        <pt x="200" y="618" on="1"/>
        <pt x="200" y="416" on="1"/>
        <pt x="290" y="416" on="1"/>
        <pt x="290" y="329" on="1"/>
        <pt x="200" y="329" on="1"/>
      </contour>
    </TTGlyph>
    <TTGlyph name="E" xMin="88" yMin="0" xMax="526" yMax="730">
      <contour>
        <pt x="88" y="0" on="1"/>
        <pt x="88" y="730" on="1"/>
        <pt x="526" y="730" on="1"/>
        <pt x="526" y="620" on="1"/>
        <pt x="211" y="620" on="1"/>
        <pt x="211" y="430" on="1"/>
        <pt x="491" y="430" on="1"/>
        <pt x="491" y="324" on="1"/>
        <pt x="211" y="324" on="1"/>
        <pt x="211" y="110" on="1"/>
        <pt x="526" y="110" on="1"/>
        <pt x="526" y="0" on="1"/>
      </contour>
    </TTGlyph>
    <TTGlyph name="Eacute" xMin="88" yMin="0" xMax="526" yMax="950">
      <component glyphName="E" x="0" y="0" flags="0x204"/>
      <component glyphName="acutecomb.case" x="617" y="0" flags="0x4"/>
    </TTGlyph>
    <TTGlyph name="Ebreve" xMin="88" yMin="0" xMax="526" yMax="950">
      <component glyphName="E" x="0" y="0" flags="0x204"/>
      <component glyphName="uni0306.case" x="607" y="0" flags="0x4"/>
    </TTGlyph>
    <TTGlyph name="Ecaron" xMin="88" yMin="0" xMax="526" yMax="950">
      <component glyphName="E" x="0" y="0" flags="0x204"/>
      <component glyphName="uni030C.case" x="607" y="0" flags="0x4"/>
    </TTGlyph>
    <TTGlyph name="Ecircumflex" xMin="88" yMin="0" xMax="526" yMax="950">
      <component glyphName="E" x="0" y="0" flags="0x204"/>
      <component glyphName="uni0302.case" x="607" y="0" flags="0x4"/>
    </TTGlyph>
    <TTGlyph name="Edieresis" xMin="88" yMin="0" xMax="526" yMax="953">
      <component glyphName="E" x="0" y="0" flags="0x204"/>
      <component glyphName="uni0308.case" x="607" y="0" flags="0x4"/>
    </TTGlyph>
    <TTGlyph name="Edotaccent" xMin="88" yMin="0" xMax="526" yMax="952">
      <component glyphName="E" x="0" y="0" flags="0x204"/>
      <component glyphName="uni0307.case" x="607" y="0" flags="0x4"/>
    </TTGlyph>
    <TTGlyph name="Egrave" xMin="88" yMin="0" xMax="526" yMax="950">
      <component glyphName="E" x="0" y="0" flags="0x204"/>
      <component glyphName="gravecomb.case" x="597" y="0" flags="0x4"/>
    </TTGlyph>
    <TTGlyph name="Emacron" xMin="88" yMin="0" xMax="526" yMax="924">
      <component glyphName="E" x="0" y="0" flags="0x204"/>
      <component glyphName="uni0304.case" x="607" y="0" flags="0x4"/>
    </TTGlyph>
    <TTGlyph name="Eng" xMin="72" yMin="-180" xMax="528" yMax="730">
      <contour>
        <pt x="246" y="-180" on="1"/>
        <pt x="246" y="-61" on="1"/>
        <pt x="308" y="-61" on="1"/>
        <pt x="352" y="-61" on="0"/>
        <pt x="402" y="-13" on="0"/>
        <pt x="402" y="30" on="1"/>
        <pt x="174" y="590" on="1"/>
        <pt x="176" y="561" on="0"/>
        <pt x="182" y="479" on="0"/>
        <pt x="186" y="393" on="0"/>
        <pt x="186" y="357" on="1"/>
        <pt x="186" y="0" on="1"/>
        <pt x="72" y="0" on="1"/>
        <pt x="72" y="730" on="1"/>
        <pt x="225" y="730" on="1"/>
        <pt x="428" y="228" on="1"/>
        <pt x="425" y="260" on="0"/>
        <pt x="419" y="347" on="0"/>
        <pt x="414" y="437" on="0"/>
        <pt x="414" y="472" on="1"/>
        <pt x="414" y="730" on="1"/>
        <pt x="528" y="730" on="1"/>
        <pt x="528" y="21" on="1"/>
        <pt x="528" y="-39" on="0"/>
        <pt x="471" y="-129" on="0"/>
        <pt x="369" y="-180" on="0"/>
        <pt x="302" y="-180" on="1"/>
      </contour>
    </TTGlyph>
    <TTGlyph name="Eogonek" xMin="88" yMin="-216" xMax="530" yMax="730">
      <contour>
        <pt x="88" y="0" on="1"/>
        <pt x="88" y="730" on="1"/>
        <pt x="526" y="730" on="1"/>
        <pt x="526" y="620" on="1"/>
        <pt x="211" y="620" on="1"/>
        <pt x="211" y="430" on="1"/>
        <pt x="491" y="430" on="1"/>
        <pt x="491" y="324" on="1"/>
        <pt x="211" y="324" on="1"/>
        <pt x="211" y="110" on="1"/>
        <pt x="526" y="110" on="1"/>
        <pt x="526" y="0" on="1"/>
        <pt x="477" y="0" on="1"/>
        <pt x="466" y="-10" on="1"/>
        <pt x="415" y="-54" on="0"/>
        <pt x="415" y="-87" on="1"/>
        <pt x="415" y="-105" on="0"/>
        <pt x="442" y="-130" on="0"/>
        <pt x="465" y="-130" on="1"/>
        <pt x="530" y="-130" on="1"/>
        <pt x="530" y="-216" on="1"/>
        <pt x="435" y="-216" on="1"/>
        <pt x="376" y="-216" on="0"/>
        <pt x="307" y="-158" on="0"/>
        <pt x="307" y="-113" on="1"/>
        <pt x="307" y="-51" on="0"/>
        <pt x="389" y="0" on="1"/>
      </contour>
    </TTGlyph>
    <TTGlyph name="Epsilon" xMin="88" yMin="0" xMax="526" yMax="730">
      <component glyphName="E" x="0" y="0" flags="0x204"/>
    </TTGlyph>
    <TTGlyph name="Epsilontonos" xMin="-133" yMin="0" xMax="526" yMax="730">
      <component glyphName="E" x="0" y="0" flags="0x204"/>
      <component glyphName="tonos.case" x="-346" y="0" flags="0x4"/>
    </TTGlyph>
    <TTGlyph name="Eta" xMin="77" yMin="0" xMax="523" yMax="730">
      <component glyphName="H" x="0" y="0" flags="0x204"/>
    </TTGlyph>
    <TTGlyph name="Etatonos" xMin="-133" yMin="0" xMax="523" yMax="730">
      <component glyphName="tonos.case" x="-346" y="0" flags="0x4"/>
      <component glyphName="H" x="0" y="0" flags="0x204"/>
    </TTGlyph>
    <TTGlyph name="Eth" xMin="10" yMin="0" xMax="535" yMax="730">
      <contour>
        <pt x="75" y="0" on="1"/>
        <pt x="75" y="329" on="1"/>
        <pt x="10" y="329" on="1"/>
        <pt x="10" y="416" on="1"/>
        <pt x="75" y="416" on="1"/>
        <pt x="75" y="730" on="1"/>
        <pt x="292" y="730" on="1"/>
        <pt x="366" y="730" on="0"/>
        <pt x="475" y="673" on="0"/>
        <pt x="535" y="571" on="0"/>
        <pt x="535" y="502" on="1"/>
        <pt x="535" y="229" on="1"/>
        <pt x="535" y="160" on="0"/>
        <pt x="475" y="57" on="0"/>
        <pt x="366" y="0" on="0"/>
        <pt x="292" y="0" on="1"/>
      </contour>
      <contour>
        <pt x="200" y="112" on="1"/>
        <pt x="292" y="112" on="1"/>
        <pt x="346" y="112" on="0"/>
        <pt x="410" y="175" on="0"/>
        <pt x="410" y="229" on="1"/>
        <pt x="410" y="502" on="1"/>
        <pt x="410" y="555" on="0"/>
        <pt x="346" y="618" on="0"/>
        <pt x="292" y="618" on="1"/>
        <pt x="200" y="618" on="1"/>
        <pt x="200" y="416" on="1"/>
        <pt x="290" y="416" on="1"/>
        <pt x="290" y="329" on="1"/>
        <pt x="200" y="329" on="1"/>
      </contour>
    </TTGlyph>
    <TTGlyph name="Euro" xMin="14" yMin="-10" xMax="540" yMax="740">
      <contour>
        <pt x="308" y="-10" on="1"/>
        <pt x="237" y="-10" on="0"/>
        <pt x="133" y="43" on="0"/>
        <pt x="76" y="140" on="0"/>
        <pt x="76" y="206" on="1"/>
        <pt x="76" y="233" on="1"/>
        <pt x="14" y="233" on="1"/>
        <pt x="14" y="316" on="1"/>
        <pt x="76" y="316" on="1"/>
        <pt x="76" y="404" on="1"/>
        <pt x="14" y="404" on="1"/>
        <pt x="14" y="487" on="1"/>
        <pt x="76" y="487" on="1"/>
        <pt x="76" y="524" on="1"/>
        <pt x="76" y="590" on="0"/>
        <pt x="133" y="687" on="0"/>
        <pt x="237" y="740" on="0"/>
        <pt x="308" y="740" on="1"/>
        <pt x="378" y="740" on="0"/>
        <pt x="482" y="687" on="0"/>
        <pt x="540" y="590" on="0"/>
        <pt x="540" y="524" on="1"/>
        <pt x="414" y="524" on="1"/>
        <pt x="414" y="575" on="0"/>
        <pt x="359" y="630" on="0"/>
        <pt x="308" y="630" on="1"/>
        <pt x="257" y="630" on="0"/>
        <pt x="201" y="575" on="0"/>
        <pt x="201" y="524" on="1"/>
        <pt x="201" y="487" on="1"/>
        <pt x="361" y="487" on="1"/>
        <pt x="361" y="404" on="1"/>
        <pt x="201" y="404" on="1"/>
        <pt x="201" y="316" on="1"/>
        <pt x="361" y="316" on="1"/>
        <pt x="361" y="233" on="1"/>
        <pt x="201" y="233" on="1"/>
        <pt x="201" y="206" on="1"/>
        <pt x="201" y="155" on="0"/>
        <pt x="257" y="100" on="0"/>
        <pt x="308" y="100" on="1"/>
        <pt x="359" y="100" on="0"/>
        <pt x="414" y="155" on="0"/>
        <pt x="414" y="206" on="1"/>
        <pt x="540" y="206" on="1"/>
        <pt x="540" y="140" on="0"/>
        <pt x="482" y="43" on="0"/>
        <pt x="378" y="-10" on="0"/>
      </contour>
    </TTGlyph>
    <TTGlyph name="F" xMin="80" yMin="0" xMax="534" yMax="730">
      <contour>
        <pt x="80" y="0" on="1"/>
        <pt x="80" y="730" on="1"/>
        <pt x="534" y="730" on="1"/>
        <pt x="534" y="614" on="1"/>
        <pt x="203" y="614" on="1"/>
        <pt x="203" y="419" on="1"/>
        <pt x="508" y="419" on="1"/>
        <pt x="508" y="303" on="1"/>
        <pt x="205" y="303" on="1"/>
        <pt x="205" y="0" on="1"/>
      </contour>
    </TTGlyph>
    <TTGlyph name="G" xMin="72" yMin="-10" xMax="536" yMax="740">
      <contour>
        <pt x="304" y="-10" on="1"/>
        <pt x="233" y="-10" on="0"/>
        <pt x="129" y="43" on="0"/>
        <pt x="72" y="140" on="0"/>
        <pt x="72" y="206" on="1"/>
        <pt x="72" y="524" on="1"/>
        <pt x="72" y="590" on="0"/>
        <pt x="129" y="687" on="0"/>
        <pt x="233" y="740" on="0"/>
        <pt x="304" y="740" on="1"/>
        <pt x="374" y="740" on="0"/>
        <pt x="478" y="687" on="0"/>
        <pt x="536" y="590" on="0"/>
        <pt x="536" y="524" on="1"/>
        <pt x="410" y="524" on="1"/>
        <pt x="410" y="575" on="0"/>
        <pt x="355" y="630" on="0"/>
        <pt x="304" y="630" on="1"/>
        <pt x="253" y="630" on="0"/>
        <pt x="197" y="576" on="0"/>
        <pt x="197" y="525" on="1"/>
        <pt x="197" y="206" on="1"/>
        <pt x="197" y="155" on="0"/>
        <pt x="253" y="99" on="0"/>
        <pt x="304" y="99" on="1"/>
        <pt x="355" y="99" on="0"/>
        <pt x="410" y="155" on="0"/>
        <pt x="410" y="206" on="1"/>
        <pt x="410" y="287" on="1"/>
        <pt x="286" y="287" on="1"/>
        <pt x="286" y="395" on="1"/>
        <pt x="536" y="395" on="1"/>
        <pt x="536" y="206" on="1"/>
        <pt x="536" y="140" on="0"/>
        <pt x="478" y="43" on="0"/>
        <pt x="374" y="-10" on="0"/>
      </contour>
    </TTGlyph>
    <TTGlyph name="Gamma" xMin="121" yMin="0" xMax="558" yMax="730">
      <component glyphName="uni0413" x="0" y="0" flags="0x204"/>
    </TTGlyph>
    <TTGlyph name="Gbreve" xMin="72" yMin="-10" xMax="536" yMax="950">
      <component glyphName="G" x="0" y="0" flags="0x204"/>
      <component glyphName="uni0306.case" x="600" y="0" flags="0x4"/>
    </TTGlyph>
    <TTGlyph name="Gcaron" xMin="72" yMin="-10" xMax="536" yMax="950">
      <component glyphName="G" x="0" y="0" flags="0x204"/>
      <component glyphName="uni030C.case" x="600" y="0" flags="0x4"/>
    </TTGlyph>
    <TTGlyph name="Gcircumflex" xMin="72" yMin="-10" xMax="536" yMax="950">
      <component glyphName="G" x="0" y="0" flags="0x204"/>
      <component glyphName="uni0302.case" x="600" y="0" flags="0x4"/>
    </TTGlyph>
    <TTGlyph name="Gdotaccent" xMin="72" yMin="-10" xMax="536" yMax="952">
      <component glyphName="G" x="0" y="0" flags="0x204"/>
      <component glyphName="uni0307.case" x="600" y="0" flags="0x4"/>
    </TTGlyph>
    <TTGlyph name="H" xMin="77" yMin="0" xMax="523" yMax="730">
      <contour>
        <pt x="77" y="0" on="1"/>
        <pt x="77" y="730" on="1"/>
        <pt x="202" y="730" on="1"/>
        <pt x="202" y="434" on="1"/>
        <pt x="398" y="434" on="1"/>
        <pt x="398" y="730" on="1"/>
        <pt x="523" y="730" on="1"/>
        <pt x="523" y="0" on="1"/>
        <pt x="398" y="0" on="1"/>
        <pt x="398" y="321" on="1"/>
        <pt x="202" y="321" on="1"/>
        <pt x="202" y="0" on="1"/>
      </contour>
    </TTGlyph>
    <TTGlyph name="Hbar" xMin="10" yMin="0" xMax="590" yMax="730">
      <contour>
        <pt x="77" y="0" on="1"/>
        <pt x="77" y="525" on="1"/>
        <pt x="10" y="525" on="1"/>
        <pt x="10" y="612" on="1"/>
        <pt x="77" y="612" on="1"/>
        <pt x="77" y="730" on="1"/>
        <pt x="202" y="730" on="1"/>
        <pt x="202" y="612" on="1"/>
        <pt x="398" y="612" on="1"/>
        <pt x="398" y="730" on="1"/>
        <pt x="523" y="730" on="1"/>
        <pt x="523" y="612" on="1"/>
        <pt x="590" y="612" on="1"/>
        <pt x="590" y="525" on="1"/>
        <pt x="523" y="525" on="1"/>
        <pt x="523" y="0" on="1"/>
        <pt x="398" y="0" on="1"/>
        <pt x="398" y="321" on="1"/>
        <pt x="202" y="321" on="1"/>
        <pt x="202" y="0" on="1"/>
      </contour>
      <contour>
        <pt x="202" y="434" on="1"/>
        <pt x="398" y="434" on="1"/>
        <pt x="398" y="525" on="1"/>
        <pt x="202" y="525" on="1"/>
      </contour>
    </TTGlyph>
    <TTGlyph name="Hcircumflex" xMin="77" yMin="0" xMax="523" yMax="950">
      <component glyphName="H" x="0" y="0" flags="0x204"/>
      <component glyphName="uni0302.case" x="600" y="0" flags="0x4"/>
    </TTGlyph>
    <TTGlyph name="I" xMin="90" yMin="0" xMax="510" yMax="730">
      <contour>
        <pt x="90" y="0" on="1"/>
        <pt x="90" y="113" on="1"/>
        <pt x="237" y="113" on="1"/>
        <pt x="237" y="617" on="1"/>
        <pt x="90" y="617" on="1"/>
        <pt x="90" y="730" on="1"/>
        <pt x="510" y="730" on="1"/>
        <pt x="510" y="617" on="1"/>
        <pt x="363" y="617" on="1"/>
        <pt x="363" y="113" on="1"/>
        <pt x="510" y="113" on="1"/>
        <pt x="510" y="0" on="1"/>
      </contour>
    </TTGlyph>
    <TTGlyph name="Iacute" xMin="90" yMin="0" xMax="510" yMax="950">
      <component glyphName="I" x="0" y="0" flags="0x204"/>
      <component glyphName="acutecomb.case" x="610" y="0" flags="0x4"/>
    </TTGlyph>
    <TTGlyph name="Ibreve" xMin="90" yMin="0" xMax="510" yMax="950">
      <component glyphName="I" x="0" y="0" flags="0x204"/>
      <component glyphName="uni0306.case" x="600" y="0" flags="0x4"/>
    </TTGlyph>
    <TTGlyph name="Icircumflex" xMin="90" yMin="0" xMax="510" yMax="950">
      <component glyphName="I" x="0" y="0" flags="0x204"/>
      <component glyphName="uni0302.case" x="600" y="0" flags="0x4"/>
    </TTGlyph>
    <TTGlyph name="Idieresis" xMin="90" yMin="0" xMax="510" yMax="953">
      <component glyphName="I" x="0" y="0" flags="0x204"/>
      <component glyphName="uni0308.case" x="600" y="0" flags="0x4"/>
    </TTGlyph>
    <TTGlyph name="Idotaccent" xMin="90" yMin="0" xMax="510" yMax="952">
      <component glyphName="I" x="0" y="0" flags="0x204"/>
      <component glyphName="uni0307.case" x="600" y="0" flags="0x4"/>
    </TTGlyph>
    <TTGlyph name="Igrave" xMin="90" yMin="0" xMax="510" yMax="950">
      <component glyphName="I" x="0" y="0" flags="0x204"/>
      <component glyphName="gravecomb.case" x="590" y="0" flags="0x4"/>
    </TTGlyph>
    <TTGlyph name="Imacron" xMin="90" yMin="0" xMax="510" yMax="924">
      <component glyphName="I" x="0" y="0" flags="0x204"/>
      <component glyphName="uni0304.case" x="600" y="0" flags="0x4"/>
    </TTGlyph>
    <TTGlyph name="Iogonek" xMin="90" yMin="-216" xMax="510" yMax="730">
      <contour>
        <pt x="90" y="0" on="1"/>
        <pt x="90" y="113" on="1"/>
        <pt x="237" y="113" on="1"/>
        <pt x="237" y="617" on="1"/>
        <pt x="90" y="617" on="1"/>
        <pt x="90" y="730" on="1"/>
        <pt x="510" y="730" on="1"/>
        <pt x="510" y="617" on="1"/>
        <pt x="363" y="617" on="1"/>
        <pt x="363" y="113" on="1"/>
        <pt x="510" y="113" on="1"/>
        <pt x="510" y="0" on="1"/>
        <pt x="343" y="0" on="1"/>
        <pt x="332" y="-10" on="1"/>
        <pt x="281" y="-54" on="0"/>
        <pt x="281" y="-87" on="1"/>
        <pt x="281" y="-105" on="0"/>
        <pt x="308" y="-130" on="0"/>
        <pt x="331" y="-130" on="1"/>
        <pt x="396" y="-130" on="1"/>
        <pt x="396" y="-216" on="1"/>
        <pt x="301" y="-216" on="1"/>
        <pt x="242" y="-216" on="0"/>
        <pt x="173" y="-158" on="0"/>
        <pt x="173" y="-113" on="1"/>
        <pt x="173" y="-51" on="0"/>
        <pt x="255" y="0" on="1"/>
      </contour>
    </TTGlyph>
    <TTGlyph name="Iota" xMin="90" yMin="0" xMax="510" yMax="730">
      <component glyphName="I" x="0" y="0" flags="0x204"/>
    </TTGlyph>
    <TTGlyph name="Iotadieresis" xMin="90" yMin="0" xMax="510" yMax="953">
      <component glyphName="uni0308.case" x="600" y="0" flags="0x4"/>
      <component glyphName="I" x="0" y="0" flags="0x204"/>
    </TTGlyph>
    <TTGlyph name="Iotatonos" xMin="-133" yMin="0" xMax="510" yMax="730">
      <component glyphName="tonos.case" x="-346" y="0" flags="0x4"/>
      <component glyphName="I" x="0" y="0" flags="0x204"/>
    </TTGlyph>
    <TTGlyph name="Itilde" xMin="90" yMin="0" xMax="510" yMax="954">
      <component glyphName="I" x="0" y="0" flags="0x204"/>
      <component glyphName="tildecomb.case" x="600" y="0" flags="0x4"/>
    </TTGlyph>
    <TTGlyph name="J" xMin="30" yMin="-10" xMax="510" yMax="730">
      <contour>
        <pt x="270" y="-10" on="1"/>
        <pt x="159" y="-10" on="0"/>
        <pt x="30" y="112" on="0"/>
        <pt x="30" y="216" on="1"/>
        <pt x="155" y="216" on="1"/>
        <pt x="155" y="162" on="0"/>
        <pt x="216" y="99" on="0"/>
        <pt x="270" y="99" on="1"/>
        <pt x="323" y="99" on="0"/>
        <pt x="385" y="161" on="0"/>
        <pt x="385" y="215" on="1"/>
        <pt x="385" y="730" on="1"/>
        <pt x="510" y="730" on="1"/>
        <pt x="510" y="215" on="1"/>
        <pt x="510" y="111" on="0"/>
        <pt x="381" y="-10" on="0"/>
      </contour>
    </TTGlyph>
    <TTGlyph name="Jcircumflex" xMin="30" yMin="-10" xMax="645" yMax="950">
      <component glyphName="J" x="0" y="0" flags="0x204"/>
      <component glyphName="uni0302.case" x="750" y="0" flags="0x4"/>
    </TTGlyph>
    <TTGlyph name="K" xMin="76" yMin="0" xMax="569" yMax="730">
      <contour>
        <pt x="76" y="0" on="1"/>
        <pt x="76" y="730" on="1"/>
        <pt x="201" y="730" on="1"/>
        <pt x="201" y="432" on="1"/>
        <pt x="287" y="432" on="1"/>
        <pt x="426" y="730" on="1"/>
        <pt x="561" y="730" on="1"/>
        <pt x="397" y="382" on="1"/>
        <pt x="569" y="0" on="1"/>
        <pt x="430" y="0" on="1"/>
        <pt x="286" y="323" on="1"/>
        <pt x="201" y="323" on="1"/>
        <pt x="201" y="0" on="1"/>
      </contour>
    </TTGlyph>
    <TTGlyph name="K.cv08" xMin="77" yMin="0" xMax="569" yMax="730">
      <contour>
        <pt x="424" y="0" on="1"/>
        <pt x="214" y="380" on="1"/>
        <pt x="421" y="730" on="1"/>
        <pt x="559" y="730" on="1"/>
        <pt x="354" y="382" on="1"/>
        <pt x="569" y="0" on="1"/>
      </contour>
      <contour>
        <pt x="77" y="0" on="1"/>
        <pt x="77" y="730" on="1"/>
        <pt x="202" y="730" on="1"/>
        <pt x="202" y="0" on="1"/>
      </contour>
    </TTGlyph>
    <TTGlyph name="Kappa" xMin="76" yMin="0" xMax="569" yMax="730">
      <component glyphName="K" x="0" y="0" flags="0x204"/>
    </TTGlyph>
    <TTGlyph name="Kappa.cv08" xMin="77" yMin="0" xMax="569" yMax="730">
      <component glyphName="K.cv08" x="0" y="0" flags="0x204"/>
    </TTGlyph>
    <TTGlyph name="L" xMin="121" yMin="0" xMax="556" yMax="730">
      <contour>
        <pt x="121" y="0" on="1"/>
        <pt x="121" y="730" on="1"/>
        <pt x="246" y="730" on="1"/>
        <pt x="246" y="113" on="1"/>
        <pt x="556" y="113" on="1"/>
        <pt x="556" y="0" on="1"/>
      </contour>
    </TTGlyph>
    <TTGlyph name="Lacute" xMin="108" yMin="0" xMax="556" yMax="950">
      <component glyphName="L" x="0" y="0" flags="0x204"/>
      <component glyphName="acutecomb.case" x="494" y="0" flags="0x4"/>
    </TTGlyph>
    <TTGlyph name="Lambda" xMin="35" yMin="0" xMax="565" yMax="730">
      <contour>
        <pt x="35" y="0" on="1"/>
        <pt x="219" y="730" on="1"/>
        <pt x="380" y="730" on="1"/>
        <pt x="565" y="0" on="1"/>
        <pt x="437" y="0" on="1"/>
        <pt x="328" y="475" on="1"/>
        <pt x="320" y="511" on="0"/>
        <pt x="307" y="577" on="0"/>
        <pt x="299" y="619" on="0"/>
        <pt x="299" y="619" on="1"/>
        <pt x="299" y="619" on="0"/>
        <pt x="291" y="577" on="0"/>
        <pt x="278" y="511" on="0"/>
        <pt x="270" y="476" on="1"/>
        <pt x="162" y="0" on="1"/>
      </contour>
    </TTGlyph>
    <TTGlyph name="Lcaron" xMin="121" yMin="0" xMax="556" yMax="730">
      <component glyphName="L" x="0" y="0" flags="0x204"/>
      <component glyphName="uni030C.alt" x="514" y="0" flags="0x4"/>
    </TTGlyph>
    <TTGlyph name="Ldot" xMin="121" yMin="0" xMax="573" yMax="730">
      <component glyphName="L" x="0" y="0" flags="0x204"/>
      <component glyphName="period" x="180" y="275" flags="0x4"/>
    </TTGlyph>
    <TTGlyph name="Lslash" xMin="20" yMin="0" xMax="562" yMax="730">
      <contour>
        <pt x="127" y="0" on="1"/>
        <pt x="127" y="291" on="1"/>
        <pt x="20" y="230" on="1"/>
        <pt x="20" y="345" on="1"/>
        <pt x="127" y="406" on="1"/>
        <pt x="127" y="730" on="1"/>
        <pt x="252" y="730" on="1"/>
        <pt x="252" y="478" on="1"/>
        <pt x="396" y="560" on="1"/>
        <pt x="396" y="445" on="1"/>
        <pt x="252" y="363" on="1"/>
        <pt x="252" y="113" on="1"/>
        <pt x="562" y="113" on="1"/>
        <pt x="562" y="0" on="1"/>
      </contour>
    </TTGlyph>
    <TTGlyph name="M" xMin="54" yMin="0" xMax="546" yMax="730">
      <contour>
        <pt x="54" y="0" on="1"/>
        <pt x="54" y="730" on="1"/>
        <pt x="217" y="730" on="1"/>
        <pt x="299" y="416" on="1"/>
        <pt x="382" y="730" on="1"/>
        <pt x="546" y="730" on="1"/>
        <pt x="546" y="0" on="1"/>
        <pt x="429" y="0" on="1"/>
        <pt x="429" y="307" on="1"/>
        <pt x="429" y="370" on="0"/>
        <pt x="436" y="505" on="0"/>
        <pt x="446" y="632" on="0"/>
        <pt x="452" y="684" on="1"/>
        <pt x="349" y="317" on="1"/>
        <pt x="246" y="317" on="1"/>
        <pt x="147" y="675" on="1"/>
        <pt x="156" y="606" on="0"/>
        <pt x="171" y="415" on="0"/>
        <pt x="171" y="307" on="1"/>
        <pt x="171" y="0" on="1"/>
      </contour>
    </TTGlyph>
    <TTGlyph name="Mu" xMin="54" yMin="0" xMax="546" yMax="730">
      <component glyphName="M" x="0" y="0" flags="0x204"/>
    </TTGlyph>
    <TTGlyph name="N" xMin="72" yMin="0" xMax="528" yMax="730">
      <contour>
        <pt x="72" y="0" on="1"/>
        <pt x="72" y="730" on="1"/>
        <pt x="225" y="730" on="1"/>
        <pt x="428" y="140" on="1"/>
        <pt x="425" y="172" on="0"/>
        <pt x="419" y="259" on="0"/>
        <pt x="414" y="349" on="0"/>
        <pt x="414" y="384" on="1"/>
        <pt x="414" y="730" on="1"/>
        <pt x="528" y="730" on="1"/>
        <pt x="528" y="0" on="1"/>
        <pt x="375" y="0" on="1"/>
        <pt x="174" y="590" on="1"/>
        <pt x="176" y="561" on="0"/>
        <pt x="182" y="479" on="0"/>
        <pt x="186" y="393" on="0"/>
        <pt x="186" y="357" on="1"/>
        <pt x="186" y="0" on="1"/>
      </contour>
    </TTGlyph>
    <TTGlyph name="Nacute" xMin="72" yMin="0" xMax="528" yMax="950">
      <component glyphName="N" x="0" y="0" flags="0x204"/>
      <component glyphName="acutecomb.case" x="610" y="0" flags="0x4"/>
    </TTGlyph>
    <TTGlyph name="Ncaron" xMin="72" yMin="0" xMax="528" yMax="950">
      <component glyphName="N" x="0" y="0" flags="0x204"/>
      <component glyphName="uni030C.case" x="600" y="0" flags="0x4"/>
    </TTGlyph>
    <TTGlyph name="Ntilde" xMin="72" yMin="0" xMax="528" yMax="954">
      <component glyphName="N" x="0" y="0" flags="0x204"/>
      <component glyphName="tildecomb.case" x="600" y="0" flags="0x4"/>
    </TTGlyph>
    <TTGlyph name="Nu" xMin="72" yMin="0" xMax="528" yMax="730">
      <component glyphName="N" x="0" y="0" flags="0x204"/>
    </TTGlyph>
    <TTGlyph name="O" xMin="72" yMin="-10" xMax="528" yMax="740">
      <contour>
        <pt x="300" y="-10" on="1"/>
        <pt x="195" y="-10" on="0"/>
        <pt x="72" y="110" on="0"/>
        <pt x="72" y="216" on="1"/>
        <pt x="72" y="514" on="1"/>
        <pt x="72" y="620" on="0"/>
        <pt x="195" y="740" on="0"/>
        <pt x="300" y="740" on="1"/>
        <pt x="405" y="740" on="0"/>
        <pt x="528" y="620" on="0"/>
        <pt x="528" y="515" on="1"/>
        <pt x="528" y="216" on="1"/>
        <pt x="528" y="110" on="0"/>
        <pt x="405" y="-10" on="0"/>
      </contour>
      <contour>
        <pt x="300" y="100" on="1"/>
        <pt x="351" y="100" on="0"/>
        <pt x="403" y="155" on="0"/>
        <pt x="403" y="206" on="1"/>
        <pt x="403" y="524" on="1"/>
        <pt x="403" y="575" on="0"/>
        <pt x="351" y="630" on="0"/>
        <pt x="300" y="630" on="1"/>
        <pt x="249" y="630" on="0"/>
        <pt x="197" y="575" on="0"/>
        <pt x="197" y="524" on="1"/>
        <pt x="197" y="206" on="1"/>
        <pt x="197" y="155" on="0"/>
        <pt x="249" y="100" on="0"/>
      </contour>
    </TTGlyph>
    <TTGlyph name="OE" xMin="34" yMin="-6" xMax="578" yMax="740">
      <contour>
        <pt x="183" y="-6" on="1"/>
        <pt x="113" y="-6" on="0"/>
        <pt x="34" y="98" on="0"/>
        <pt x="34" y="189" on="1"/>
        <pt x="34" y="545" on="1"/>
        <pt x="34" y="636" on="0"/>
        <pt x="113" y="740" on="0"/>
        <pt x="183" y="740" on="1"/>
        <pt x="219" y="740" on="0"/>
        <pt x="266" y="711" on="0"/>
        <pt x="291" y="670" on="0"/>
        <pt x="293" y="650" on="1"/>
        <pt x="298" y="650" on="1"/>
        <pt x="298" y="730" on="1"/>
        <pt x="578" y="730" on="1"/>
        <pt x="578" y="623" on="1"/>
        <pt x="410" y="623" on="1"/>
        <pt x="410" y="429" on="1"/>
        <pt x="553" y="429" on="1"/>
        <pt x="553" y="321" on="1"/>
        <pt x="410" y="321" on="1"/>
        <pt x="410" y="108" on="1"/>
        <pt x="578" y="108" on="1"/>
        <pt x="578" y="0" on="1"/>
        <pt x="298" y="0" on="1"/>
        <pt x="298" y="84" on="1"/>
        <pt x="293" y="84" on="1"/>
        <pt x="291" y="64" on="0"/>
        <pt x="266" y="22" on="0"/>
        <pt x="219" y="-6" on="0"/>
      </contour>
      <contour>
        <pt x="224" y="100" on="1"/>
        <pt x="257" y="100" on="0"/>
        <pt x="295" y="147" on="0"/>
        <pt x="295" y="189" on="1"/>
        <pt x="295" y="545" on="1"/>
        <pt x="295" y="587" on="0"/>
        <pt x="257" y="634" on="0"/>
        <pt x="224" y="634" on="1"/>
        <pt x="191" y="634" on="0"/>
        <pt x="153" y="586" on="0"/>
        <pt x="153" y="545" on="1"/>
        <pt x="153" y="189" on="1"/>
        <pt x="153" y="147" on="0"/>
        <pt x="191" y="100" on="0"/>
      </contour>
    </TTGlyph>
    <TTGlyph name="Oacute" xMin="72" yMin="-10" xMax="528" yMax="950">
      <component glyphName="O" x="0" y="0" flags="0x204"/>
      <component glyphName="acutecomb.case" x="610" y="0" flags="0x4"/>
    </TTGlyph>
    <TTGlyph name="Obreve" xMin="72" yMin="-10" xMax="528" yMax="950">
      <component glyphName="O" x="0" y="0" flags="0x204"/>
      <component glyphName="uni0306.case" x="600" y="0" flags="0x4"/>
    </TTGlyph>
    <TTGlyph name="Ocircumflex" xMin="72" yMin="-10" xMax="528" yMax="950">
      <component glyphName="O" x="0" y="0" flags="0x204"/>
      <component glyphName="uni0302.case" x="600" y="0" flags="0x4"/>
    </TTGlyph>
    <TTGlyph name="Odieresis" xMin="72" yMin="-10" xMax="528" yMax="953">
      <component glyphName="O" x="0" y="0" flags="0x204"/>
      <component glyphName="uni0308.case" x="600" y="0" flags="0x4"/>
    </TTGlyph>
    <TTGlyph name="Ograve" xMin="72" yMin="-10" xMax="528" yMax="950">
      <component glyphName="O" x="0" y="0" flags="0x204"/>
      <component glyphName="gravecomb.case" x="590" y="0" flags="0x4"/>
    </TTGlyph>
    <TTGlyph name="Ohorn" xMin="72" yMin="-10" xMax="563" yMax="810">
      <contour>
        <pt x="300" y="-10" on="1"/>
        <pt x="195" y="-10" on="0"/>
        <pt x="72" y="110" on="0"/>
        <pt x="72" y="216" on="1"/>
        <pt x="72" y="514" on="1"/>
        <pt x="72" y="620" on="0"/>
        <pt x="195" y="740" on="0"/>
        <pt x="300" y="740" on="1"/>
        <pt x="383" y="740" on="0"/>
        <pt x="440" y="702" on="1"/>
        <pt x="461" y="709" on="0"/>
        <pt x="461" y="735" on="1"/>
        <pt x="461" y="810" on="1"/>
        <pt x="563" y="810" on="1"/>
        <pt x="563" y="733" on="1"/>
        <pt x="563" y="698" on="0"/>
        <pt x="531" y="645" on="0"/>
        <pt x="503" y="630" on="1"/>
        <pt x="528" y="581" on="0"/>
        <pt x="528" y="515" on="1"/>
        <pt x="528" y="216" on="1"/>
        <pt x="528" y="110" on="0"/>
        <pt x="405" y="-10" on="0"/>
      </contour>
      <contour>
        <pt x="300" y="100" on="1"/>
        <pt x="351" y="100" on="0"/>
        <pt x="403" y="155" on="0"/>
        <pt x="403" y="206" on="1"/>
        <pt x="403" y="524" on="1"/>
        <pt x="403" y="575" on="0"/>
        <pt x="351" y="630" on="0"/>
        <pt x="300" y="630" on="1"/>
        <pt x="249" y="630" on="0"/>
        <pt x="197" y="575" on="0"/>
        <pt x="197" y="524" on="1"/>
        <pt x="197" y="206" on="1"/>
        <pt x="197" y="155" on="0"/>
        <pt x="249" y="100" on="0"/>
      </contour>
    </TTGlyph>
    <TTGlyph name="Ohungarumlaut" xMin="72" yMin="-10" xMax="553" yMax="950">
      <component glyphName="O" x="0" y="0" flags="0x204"/>
      <component glyphName="uni030B.case" x="600" y="0" flags="0x4"/>
    </TTGlyph>
    <TTGlyph name="Omacron" xMin="72" yMin="-10" xMax="528" yMax="924">
      <component glyphName="O" x="0" y="0" flags="0x204"/>
      <component glyphName="uni0304.case" x="600" y="0" flags="0x4"/>
    </TTGlyph>
    <TTGlyph name="Omegatonos" xMin="-101" yMin="0" xMax="551" yMax="740">
      <component glyphName="uni03A9" x="0" y="0" flags="0x204"/>
      <component glyphName="tonos.case" x="-314" y="0" flags="0x4"/>
    </TTGlyph>
    <TTGlyph name="Omicron" xMin="72" yMin="-10" xMax="528" yMax="740">
      <component glyphName="O" x="0" y="0" flags="0x204"/>
    </TTGlyph>
    <TTGlyph name="Omicrontonos" xMin="-101" yMin="-10" xMax="528" yMax="740">
      <component glyphName="tonos.case" x="-314" y="0" flags="0x4"/>
      <component glyphName="O" x="0" y="0" flags="0x204"/>
    </TTGlyph>
    <TTGlyph name="Oslash" xMin="23" yMin="-40" xMax="577" yMax="750">
      <contour>
        <pt x="23" y="-40" on="1"/>
        <pt x="99" y="93" on="1"/>
        <pt x="72" y="141" on="0"/>
        <pt x="72" y="206" on="1"/>
        <pt x="72" y="524" on="1"/>
        <pt x="72" y="623" on="0"/>
        <pt x="195" y="740" on="0"/>
        <pt x="300" y="740" on="1"/>
        <pt x="386" y="740" on="0"/>
        <pt x="444" y="700" on="1"/>
        <pt x="473" y="750" on="1"/>
        <pt x="577" y="750" on="1"/>
        <pt x="507" y="627" on="1"/>
        <pt x="528" y="582" on="0"/>
        <pt x="528" y="525" on="1"/>
        <pt x="528" y="206" on="1"/>
        <pt x="528" y="107" on="0"/>
        <pt x="405" y="-10" on="0"/>
        <pt x="300" y="-10" on="1"/>
        <pt x="220" y="-10" on="0"/>
        <pt x="164" y="25" on="1"/>
        <pt x="127" y="-40" on="1"/>
      </contour>
      <contour>
        <pt x="194" y="524" on="1"/>
        <pt x="194" y="260" on="1"/>
        <pt x="385" y="596" on="1"/>
        <pt x="358" y="630" on="0"/>
        <pt x="300" y="630" on="1"/>
        <pt x="249" y="630" on="0"/>
        <pt x="194" y="575" on="0"/>
      </contour>
      <contour>
        <pt x="300" y="100" on="1"/>
        <pt x="351" y="100" on="0"/>
        <pt x="406" y="155" on="0"/>
        <pt x="406" y="206" on="1"/>
        <pt x="406" y="450" on="1"/>
        <pt x="222" y="127" on="1"/>
        <pt x="249" y="100" on="0"/>
      </contour>
    </TTGlyph>
    <TTGlyph name="Oslashacute" xMin="23" yMin="-40" xMax="577" yMax="950">
      <component glyphName="Oslash" x="0" y="0" flags="0x204"/>
      <component glyphName="acutecomb.case" x="610" y="0" flags="0x4"/>
    </TTGlyph>
    <TTGlyph name="Otilde" xMin="72" yMin="-10" xMax="528" yMax="954">
      <component glyphName="O" x="0" y="0" flags="0x204"/>
      <component glyphName="tildecomb.case" x="600" y="0" flags="0x4"/>
    </TTGlyph>
    <TTGlyph name="P" xMin="77" yMin="0" xMax="562" yMax="730">
      <contour>
        <pt x="77" y="0" on="1"/>
        <pt x="77" y="730" on="1"/>
        <pt x="320" y="730" on="1"/>
        <pt x="393" y="730" on="0"/>
        <pt x="502" y="674" on="0"/>
        <pt x="562" y="573" on="0"/>
        <pt x="562" y="505" on="1"/>
        <pt x="562" y="437" on="0"/>
        <pt x="502" y="336" on="0"/>
        <pt x="393" y="280" on="0"/>
        <pt x="320" y="280" on="1"/>
        <pt x="202" y="280" on="1"/>
        <pt x="202" y="0" on="1"/>
      </contour>
      <contour>
        <pt x="202" y="390" on="1"/>
        <pt x="320" y="390" on="1"/>
        <pt x="373" y="390" on="0"/>
        <pt x="435" y="454" on="0"/>
        <pt x="435" y="505" on="1"/>
        <pt x="435" y="556" on="0"/>
        <pt x="373" y="620" on="0"/>
        <pt x="320" y="620" on="1"/>
        <pt x="202" y="620" on="1"/>
      </contour>
    </TTGlyph>
    <TTGlyph name="Phi" xMin="34" yMin="-25" xMax="566" yMax="770">
      <component glyphName="uni0424" x="0" y="0" flags="0x204"/>
    </TTGlyph>
    <TTGlyph name="Pi" xMin="78" yMin="0" xMax="522" yMax="730">
      <component glyphName="uni041F" x="0" y="0" flags="0x204"/>
    </TTGlyph>
    <TTGlyph name="Psi" xMin="40" yMin="0" xMax="560" yMax="730">
      <contour>
        <pt x="237" y="0" on="1"/>
        <pt x="237" y="170" on="1"/>
        <pt x="179" y="172" on="0"/>
        <pt x="90" y="227" on="0"/>
        <pt x="40" y="322" on="0"/>
        <pt x="40" y="384" on="1"/>
        <pt x="40" y="730" on="1"/>
        <pt x="150" y="730" on="1"/>
        <pt x="150" y="384" on="1"/>
        <pt x="150" y="332" on="0"/>
        <pt x="202" y="271" on="0"/>
        <pt x="249" y="271" on="1"/>
        <pt x="249" y="730" on="1"/>
        <pt x="351" y="730" on="1"/>
        <pt x="351" y="271" on="1"/>
        <pt x="398" y="271" on="0"/>
        <pt x="450" y="332" on="0"/>
        <pt x="450" y="384" on="1"/>
        <pt x="450" y="730" on="1"/>
        <pt x="560" y="730" on="1"/>
        <pt x="560" y="384" on="1"/>
        <pt x="560" y="323" on="0"/>
        <pt x="510" y="229" on="0"/>
        <pt x="421" y="173" on="0"/>
        <pt x="363" y="170" on="1"/>
        <pt x="363" y="0" on="1"/>
      </contour>
    </TTGlyph>
    <TTGlyph name="Q" xMin="68" yMin="-180" xMax="544" yMax="740">
      <contour>
        <pt x="409" y="-180" on="1"/>
        <pt x="306" y="-10" on="1"/>
        <pt x="303" y="-10" on="0"/>
        <pt x="300" y="-10" on="1"/>
        <pt x="230" y="-10" on="0"/>
        <pt x="126" y="44" on="0"/>
        <pt x="68" y="142" on="0"/>
        <pt x="68" y="208" on="1"/>
        <pt x="68" y="522" on="1"/>
        <pt x="68" y="588" on="0"/>
        <pt x="125" y="686" on="0"/>
        <pt x="230" y="740" on="0"/>
        <pt x="300" y="740" on="1"/>
        <pt x="370" y="740" on="0"/>
        <pt x="474" y="686" on="0"/>
        <pt x="532" y="588" on="0"/>
        <pt x="532" y="522" on="1"/>
        <pt x="532" y="208" on="1"/>
        <pt x="532" y="142" on="0"/>
        <pt x="475" y="43" on="0"/>
        <pt x="423" y="17" on="1"/>
        <pt x="544" y="-180" on="1"/>
      </contour>
      <contour>
        <pt x="300" y="100" on="1"/>
        <pt x="352" y="100" on="0"/>
        <pt x="407" y="157" on="0"/>
        <pt x="407" y="208" on="1"/>
        <pt x="407" y="522" on="1"/>
        <pt x="407" y="573" on="0"/>
        <pt x="350" y="631" on="0"/>
        <pt x="300" y="631" on="1"/>
        <pt x="250" y="631" on="0"/>
        <pt x="193" y="573" on="0"/>
        <pt x="193" y="522" on="1"/>
        <pt x="193" y="208" on="1"/>
        <pt x="193" y="157" on="0"/>
        <pt x="248" y="100" on="0"/>
      </contour>
    </TTGlyph>
    <TTGlyph name="Q.cv16" xMin="72" yMin="-180" xMax="528" yMax="740">
      <contour>
        <pt x="389" y="-180" on="1"/>
        <pt x="316" y="-180" on="0"/>
        <pt x="233" y="-103" on="0"/>
        <pt x="233" y="-34" on="1"/>
        <pt x="233" y="-3" on="1"/>
        <pt x="158" y="14" on="0"/>
        <pt x="72" y="128" on="0"/>
        <pt x="72" y="216" on="1"/>
        <pt x="72" y="514" on="1"/>
        <pt x="72" y="620" on="0"/>
        <pt x="195" y="740" on="0"/>
        <pt x="300" y="740" on="1"/>
        <pt x="405" y="740" on="0"/>
        <pt x="528" y="620" on="0"/>
        <pt x="528" y="515" on="1"/>
        <pt x="528" y="216" on="1"/>
        <pt x="528" y="122" on="0"/>
        <pt x="431" y="6" on="0"/>
        <pt x="347" y="-7" on="1"/>
        <pt x="347" y="-27" on="1"/>
        <pt x="347" y="-52" on="0"/>
        <pt x="374" y="-79" on="0"/>
        <pt x="398" y="-79" on="1"/>
        <pt x="520" y="-79" on="1"/>
        <pt x="520" y="-180" on="1"/>
      </contour>
      <contour>
        <pt x="300" y="100" on="1"/>
        <pt x="351" y="100" on="0"/>
        <pt x="403" y="155" on="0"/>
        <pt x="403" y="206" on="1"/>
        <pt x="403" y="524" on="1"/>
        <pt x="403" y="575" on="0"/>
        <pt x="351" y="630" on="0"/>
        <pt x="300" y="630" on="1"/>
        <pt x="249" y="630" on="0"/>
        <pt x="197" y="575" on="0"/>
        <pt x="197" y="524" on="1"/>
        <pt x="197" y="206" on="1"/>
        <pt x="197" y="155" on="0"/>
        <pt x="249" y="100" on="0"/>
      </contour>
    </TTGlyph>
    <TTGlyph name="R" xMin="77" yMin="0" xMax="557" yMax="730">
      <contour>
        <pt x="77" y="0" on="1"/>
        <pt x="77" y="730" on="1"/>
        <pt x="307" y="730" on="1"/>
        <pt x="380" y="730" on="0"/>
        <pt x="487" y="676" on="0"/>
        <pt x="547" y="579" on="0"/>
        <pt x="547" y="513" on="1"/>
        <pt x="547" y="440" on="0"/>
        <pt x="475" y="331" on="0"/>
        <pt x="414" y="308" on="1"/>
        <pt x="557" y="0" on="1"/>
        <pt x="420" y="0" on="1"/>
        <pt x="292" y="290" on="1"/>
        <pt x="201" y="290" on="1"/>
        <pt x="201" y="0" on="1"/>
      </contour>
      <contour>
        <pt x="201" y="400" on="1"/>
        <pt x="307" y="400" on="1"/>
        <pt x="360" y="400" on="0"/>
        <pt x="420" y="458" on="0"/>
        <pt x="420" y="509" on="1"/>
        <pt x="420" y="560" on="0"/>
        <pt x="359" y="620" on="0"/>
        <pt x="307" y="620" on="1"/>
        <pt x="201" y="620" on="1"/>
      </contour>
    </TTGlyph>
    <TTGlyph name="Racute" xMin="77" yMin="0" xMax="557" yMax="950">
      <component glyphName="R" x="0" y="0" flags="0x204"/>
      <component glyphName="acutecomb.case" x="610" y="0" flags="0x4"/>
    </TTGlyph>
    <TTGlyph name="Rcaron" xMin="77" yMin="0" xMax="557" yMax="950">
      <component glyphName="R" x="0" y="0" flags="0x204"/>
      <component glyphName="uni030C.case" x="600" y="0" flags="0x4"/>
    </TTGlyph>
    <TTGlyph name="Rho" xMin="77" yMin="0" xMax="562" yMax="730">
      <component glyphName="P" x="0" y="0" flags="0x204"/>
    </TTGlyph>
    <TTGlyph name="S" xMin="57" yMin="-10" xMax="543" yMax="740">
      <contour>
        <pt x="303" y="-10" on="1"/>
        <pt x="229" y="-10" on="0"/>
        <pt x="118" y="42" on="0"/>
        <pt x="57" y="139" on="0"/>
        <pt x="57" y="206" on="1"/>
        <pt x="180" y="206" on="1"/>
        <pt x="180" y="157" on="0"/>
        <pt x="247" y="99" on="0"/>
        <pt x="303" y="99" on="1"/>
        <pt x="357" y="99" on="0"/>
        <pt x="420" y="156" on="0"/>
        <pt x="420" y="204" on="1"/>
        <pt x="420" y="240" on="0"/>
        <pt x="379" y="295" on="0"/>
        <pt x="341" y="305" on="1"/>
        <pt x="243" y="330" on="1"/>
        <pt x="164" y="350" on="0"/>
        <pt x="72" y="460" on="0"/>
        <pt x="72" y="536" on="1"/>
        <pt x="72" y="629" on="0"/>
        <pt x="194" y="740" on="0"/>
        <pt x="296" y="740" on="1"/>
        <pt x="365" y="740" on="0"/>
        <pt x="468" y="690" on="0"/>
        <pt x="524" y="599" on="0"/>
        <pt x="524" y="538" on="1"/>
        <pt x="402" y="538" on="1"/>
        <pt x="402" y="580" on="0"/>
        <pt x="344" y="632" on="0"/>
        <pt x="296" y="632" on="1"/>
        <pt x="249" y="632" on="0"/>
        <pt x="194" y="581" on="0"/>
        <pt x="194" y="540" on="1"/>
        <pt x="194" y="506" on="0"/>
        <pt x="233" y="462" on="0"/>
        <pt x="268" y="452" on="1"/>
        <pt x="369" y="427" on="1"/>
        <pt x="450" y="407" on="0"/>
        <pt x="543" y="287" on="0"/>
        <pt x="543" y="204" on="1"/>
        <pt x="543" y="139" on="0"/>
        <pt x="484" y="43" on="0"/>
        <pt x="376" y="-10" on="0"/>
      </contour>
    </TTGlyph>
    <TTGlyph name="Sacute" xMin="57" yMin="-10" xMax="543" yMax="950">
      <component glyphName="S" x="0" y="0" flags="0x204"/>
      <component glyphName="acutecomb.case" x="610" y="0" flags="0x4"/>
    </TTGlyph>
    <TTGlyph name="Scaron" xMin="57" yMin="-10" xMax="543" yMax="950">
      <component glyphName="S" x="0" y="0" flags="0x204"/>
      <component glyphName="uni030C.case" x="600" y="0" flags="0x4"/>
    </TTGlyph>
    <TTGlyph name="Scedilla" xMin="57" yMin="-216" xMax="543" yMax="740">
      <contour>
        <pt x="199" y="-216" on="1"/>
        <pt x="199" y="-152" on="1"/>
        <pt x="275" y="-152" on="1"/>
        <pt x="299" y="-152" on="0"/>
        <pt x="328" y="-129" on="0"/>
        <pt x="328" y="-116" on="1"/>
        <pt x="328" y="-95" on="0"/>
        <pt x="269" y="-69" on="0"/>
        <pt x="216" y="-69" on="1"/>
        <pt x="241" y="-5" on="1"/>
        <pt x="156" y="10" on="0"/>
        <pt x="57" y="120" on="0"/>
        <pt x="57" y="206" on="1"/>
        <pt x="180" y="206" on="1"/>
        <pt x="180" y="157" on="0"/>
        <pt x="247" y="99" on="0"/>
        <pt x="303" y="99" on="1"/>
        <pt x="357" y="99" on="0"/>
        <pt x="420" y="156" on="0"/>
        <pt x="420" y="204" on="1"/>
        <pt x="420" y="240" on="0"/>
        <pt x="379" y="295" on="0"/>
        <pt x="341" y="305" on="1"/>
        <pt x="243" y="330" on="1"/>
        <pt x="164" y="350" on="0"/>
        <pt x="72" y="460" on="0"/>
        <pt x="72" y="536" on="1"/>
        <pt x="72" y="629" on="0"/>
        <pt x="194" y="740" on="0"/>
        <pt x="296" y="740" on="1"/>
        <pt x="365" y="740" on="0"/>
        <pt x="468" y="690" on="0"/>
        <pt x="524" y="599" on="0"/>
        <pt x="524" y="538" on="1"/>
        <pt x="402" y="538" on="1"/>
        <pt x="402" y="580" on="0"/>
        <pt x="344" y="632" on="0"/>
        <pt x="296" y="632" on="1"/>
        <pt x="249" y="632" on="0"/>
        <pt x="194" y="581" on="0"/>
        <pt x="194" y="540" on="1"/>
        <pt x="194" y="506" on="0"/>
        <pt x="233" y="462" on="0"/>
        <pt x="268" y="452" on="1"/>
        <pt x="369" y="427" on="1"/>
        <pt x="450" y="407" on="0"/>
        <pt x="543" y="287" on="0"/>
        <pt x="543" y="204" on="1"/>
        <pt x="543" y="139" on="0"/>
        <pt x="484" y="43" on="0"/>
        <pt x="378" y="-10" on="0"/>
        <pt x="307" y="-10" on="1"/>
        <pt x="298" y="-37" on="1"/>
        <pt x="326" y="-40" on="0"/>
        <pt x="388" y="-61" on="0"/>
        <pt x="430" y="-99" on="0"/>
        <pt x="430" y="-128" on="1"/>
        <pt x="430" y="-163" on="0"/>
        <pt x="358" y="-216" on="0"/>
        <pt x="299" y="-216" on="1"/>
      </contour>
    </TTGlyph>
    <TTGlyph name="Scircumflex" xMin="57" yMin="-10" xMax="543" yMax="950">
      <component glyphName="S" x="0" y="0" flags="0x204"/>
      <component glyphName="uni0302.case" x="600" y="0" flags="0x4"/>
    </TTGlyph>
    <TTGlyph name="Sigma" xMin="69" yMin="0" xMax="550" yMax="730">
      <contour>
        <pt x="69" y="0" on="1"/>
        <pt x="69" y="109" on="1"/>
        <pt x="274" y="372" on="1"/>
        <pt x="69" y="621" on="1"/>
        <pt x="69" y="730" on="1"/>
        <pt x="550" y="730" on="1"/>
        <pt x="550" y="618" on="1"/>
        <pt x="220" y="618" on="1"/>
        <pt x="424" y="375" on="1"/>
        <pt x="220" y="112" on="1"/>
        <pt x="550" y="112" on="1"/>
        <pt x="550" y="0" on="1"/>
      </contour>
    </TTGlyph>
    <TTGlyph name="T" xMin="46" yMin="0" xMax="554" yMax="730">
      <contour>
        <pt x="237" y="0" on="1"/>
        <pt x="237" y="617" on="1"/>
        <pt x="46" y="617" on="1"/>
        <pt x="46" y="730" on="1"/>
        <pt x="554" y="730" on="1"/>
        <pt x="554" y="617" on="1"/>
        <pt x="363" y="617" on="1"/>
        <pt x="363" y="0" on="1"/>
      </contour>
    </TTGlyph>
    <TTGlyph name="Tau" xMin="46" yMin="0" xMax="554" yMax="730">
      <component glyphName="T" x="0" y="0" flags="0x204"/>
    </TTGlyph>
    <TTGlyph name="Tbar" xMin="46" yMin="0" xMax="554" yMax="730">
      <contour>
        <pt x="237" y="0" on="1"/>
        <pt x="237" y="277" on="1"/>
        <pt x="104" y="277" on="1"/>
        <pt x="104" y="382" on="1"/>
        <pt x="237" y="382" on="1"/>
        <pt x="237" y="617" on="1"/>
        <pt x="46" y="617" on="1"/>
        <pt x="46" y="730" on="1"/>
        <pt x="554" y="730" on="1"/>
        <pt x="554" y="617" on="1"/>
        <pt x="363" y="617" on="1"/>
        <pt x="363" y="382" on="1"/>
        <pt x="496" y="382" on="1"/>
        <pt x="496" y="277" on="1"/>
        <pt x="363" y="277" on="1"/>
        <pt x="363" y="0" on="1"/>
      </contour>
    </TTGlyph>
    <TTGlyph name="Tcaron" xMin="46" yMin="0" xMax="554" yMax="950">
      <component glyphName="T" x="0" y="0" flags="0x204"/>
      <component glyphName="uni030C.case" x="600" y="0" flags="0x4"/>
    </TTGlyph>
    <TTGlyph name="Theta" xMin="72" yMin="-10" xMax="528" yMax="740">
      <contour>
        <pt x="300" y="-10" on="1"/>
        <pt x="195" y="-10" on="0"/>
        <pt x="72" y="107" on="0"/>
        <pt x="72" y="206" on="1"/>
        <pt x="72" y="524" on="1"/>
        <pt x="72" y="623" on="0"/>
        <pt x="195" y="740" on="0"/>
        <pt x="300" y="740" on="1"/>
        <pt x="405" y="740" on="0"/>
        <pt x="528" y="623" on="0"/>
        <pt x="528" y="525" on="1"/>
        <pt x="528" y="206" on="1"/>
        <pt x="528" y="107" on="0"/>
        <pt x="405" y="-10" on="0"/>
      </contour>
      <contour>
        <pt x="300" y="100" on="1"/>
        <pt x="351" y="100" on="0"/>
        <pt x="403" y="155" on="0"/>
        <pt x="403" y="206" on="1"/>
        <pt x="403" y="524" on="1"/>
        <pt x="403" y="575" on="0"/>
        <pt x="351" y="630" on="0"/>
        <pt x="300" y="630" on="1"/>
        <pt x="249" y="630" on="0"/>
        <pt x="197" y="575" on="0"/>
        <pt x="197" y="524" on="1"/>
        <pt x="197" y="206" on="1"/>
        <pt x="197" y="155" on="0"/>
        <pt x="249" y="100" on="0"/>
      </contour>
      <contour>
        <pt x="227" y="313" on="1"/>
        <pt x="227" y="429" on="1"/>
        <pt x="372" y="429" on="1"/>
        <pt x="372" y="313" on="1"/>
      </contour>
    </TTGlyph>
    <TTGlyph name="Thorn" xMin="78" yMin="0" xMax="562" yMax="730">
      <contour>
        <pt x="78" y="0" on="1"/>
        <pt x="78" y="730" on="1"/>
        <pt x="203" y="730" on="1"/>
        <pt x="203" y="589" on="1"/>
        <pt x="337" y="589" on="1"/>
        <pt x="441" y="589" on="0"/>
        <pt x="562" y="477" on="0"/>
        <pt x="562" y="380" on="1"/>
        <pt x="562" y="283" on="0"/>
        <pt x="441" y="171" on="0"/>
        <pt x="337" y="171" on="1"/>
        <pt x="203" y="171" on="1"/>
        <pt x="203" y="0" on="1"/>
      </contour>
      <contour>
        <pt x="203" y="278" on="1"/>
        <pt x="322" y="278" on="1"/>
        <pt x="376" y="278" on="0"/>
        <pt x="435" y="332" on="0"/>
        <pt x="435" y="380" on="1"/>
        <pt x="435" y="428" on="0"/>
        <pt x="376" y="482" on="0"/>
        <pt x="322" y="482" on="1"/>
        <pt x="203" y="482" on="1"/>
      </contour>
    </TTGlyph>
    <TTGlyph name="U" xMin="72" yMin="-10" xMax="528" yMax="730">
      <contour>
        <pt x="300" y="-10" on="1"/>
        <pt x="193" y="-10" on="0"/>
        <pt x="72" y="107" on="0"/>
        <pt x="72" y="208" on="1"/>
        <pt x="72" y="730" on="1"/>
        <pt x="198" y="730" on="1"/>
        <pt x="198" y="209" on="1"/>
        <pt x="198" y="157" on="0"/>
        <pt x="250" y="99" on="0"/>
        <pt x="300" y="99" on="1"/>
        <pt x="349" y="99" on="0"/>
        <pt x="402" y="157" on="0"/>
        <pt x="402" y="209" on="1"/>
        <pt x="402" y="730" on="1"/>
        <pt x="528" y="730" on="1"/>
        <pt x="528" y="208" on="1"/>
        <pt x="528" y="107" on="0"/>
        <pt x="408" y="-10" on="0"/>
      </contour>
    </TTGlyph>
    <TTGlyph name="Uacute" xMin="72" yMin="-10" xMax="528" yMax="950">
      <component glyphName="U" x="0" y="0" flags="0x204"/>
      <component glyphName="acutecomb.case" x="610" y="0" flags="0x4"/>
    </TTGlyph>
    <TTGlyph name="Ubreve" xMin="72" yMin="-10" xMax="528" yMax="950">
      <component glyphName="U" x="0" y="0" flags="0x204"/>
      <component glyphName="uni0306.case" x="600" y="0" flags="0x4"/>
    </TTGlyph>
    <TTGlyph name="Ucircumflex" xMin="72" yMin="-10" xMax="528" yMax="950">
      <component glyphName="U" x="0" y="0" flags="0x204"/>
      <component glyphName="uni0302.case" x="600" y="0" flags="0x4"/>
    </TTGlyph>
    <TTGlyph name="Udieresis" xMin="72" yMin="-10" xMax="528" yMax="953">
      <component glyphName="U" x="0" y="0" flags="0x204"/>
      <component glyphName="uni0308.case" x="600" y="0" flags="0x4"/>
    </TTGlyph>
    <TTGlyph name="Ugrave" xMin="72" yMin="-10" xMax="528" yMax="950">
      <component glyphName="U" x="0" y="0" flags="0x204"/>
      <component glyphName="gravecomb.case" x="590" y="0" flags="0x4"/>
    </TTGlyph>
    <TTGlyph name="Uhorn" xMin="72" yMin="-10" xMax="628" yMax="840">
      <contour>
        <pt x="300" y="-10" on="1"/>
        <pt x="193" y="-10" on="0"/>
        <pt x="72" y="107" on="0"/>
        <pt x="72" y="208" on="1"/>
        <pt x="72" y="730" on="1"/>
        <pt x="198" y="730" on="1"/>
        <pt x="198" y="209" on="1"/>
        <pt x="198" y="157" on="0"/>
        <pt x="250" y="99" on="0"/>
        <pt x="300" y="99" on="1"/>
        <pt x="349" y="99" on="0"/>
        <pt x="402" y="157" on="0"/>
        <pt x="402" y="209" on="1"/>
        <pt x="402" y="730" on="1"/>
        <pt x="491" y="730" on="1"/>
        <pt x="526" y="730" on="0"/>
        <pt x="526" y="765" on="1"/>
        <pt x="526" y="840" on="1"/>
        <pt x="628" y="840" on="1"/>
        <pt x="628" y="763" on="1"/>
        <pt x="628" y="716" on="0"/>
        <pt x="574" y="654" on="0"/>
        <pt x="528" y="647" on="1"/>
        <pt x="528" y="208" on="1"/>
        <pt x="528" y="107" on="0"/>
        <pt x="408" y="-10" on="0"/>
      </contour>
    </TTGlyph>
    <TTGlyph name="Uhungarumlaut" xMin="72" yMin="-10" xMax="553" yMax="950">
      <component glyphName="U" x="0" y="0" flags="0x204"/>
      <component glyphName="uni030B.case" x="600" y="0" flags="0x4"/>
    </TTGlyph>
    <TTGlyph name="Umacron" xMin="72" yMin="-10" xMax="528" yMax="924">
      <component glyphName="U" x="0" y="0" flags="0x204"/>
      <component glyphName="uni0304.case" x="600" y="0" flags="0x4"/>
    </TTGlyph>
    <TTGlyph name="Uogonek" xMin="72" yMin="-216" xMax="528" yMax="730">
      <contour>
        <pt x="364" y="-216" on="1"/>
        <pt x="306" y="-216" on="0"/>
        <pt x="237" y="-158" on="0"/>
        <pt x="237" y="-113" on="1"/>
        <pt x="237" y="-89" on="0"/>
        <pt x="276" y="-33" on="0"/>
        <pt x="307" y="-9" on="1"/>
        <pt x="300" y="-10" on="1"/>
        <pt x="195" y="-10" on="0"/>
        <pt x="72" y="107" on="0"/>
        <pt x="72" y="206" on="1"/>
        <pt x="72" y="730" on="1"/>
        <pt x="198" y="730" on="1"/>
        <pt x="198" y="206" on="1"/>
        <pt x="198" y="155" on="0"/>
        <pt x="249" y="100" on="0"/>
        <pt x="300" y="100" on="1"/>
        <pt x="351" y="100" on="0"/>
        <pt x="402" y="155" on="0"/>
        <pt x="402" y="206" on="1"/>
        <pt x="402" y="730" on="1"/>
        <pt x="528" y="730" on="1"/>
        <pt x="528" y="206" on="1"/>
        <pt x="528" y="145" on="0"/>
        <pt x="477" y="50" on="0"/>
        <pt x="432" y="23" on="1"/>
        <pt x="392" y="-10" on="1"/>
        <pt x="367" y="-30" on="0"/>
        <pt x="345" y="-70" on="0"/>
        <pt x="345" y="-87" on="1"/>
        <pt x="345" y="-105" on="0"/>
        <pt x="371" y="-130" on="0"/>
        <pt x="395" y="-130" on="1"/>
        <pt x="460" y="-130" on="1"/>
        <pt x="460" y="-216" on="1"/>
      </contour>
    </TTGlyph>
    <TTGlyph name="Upsilon" xMin="23" yMin="0" xMax="577" yMax="730">
      <component glyphName="Y" x="0" y="0" flags="0x204"/>
    </TTGlyph>
    <TTGlyph name="Upsilondieresis" xMin="23" yMin="0" xMax="577" yMax="953">
      <component glyphName="uni0308.case" x="600" y="0" flags="0x4"/>
      <component glyphName="Y" x="0" y="0" flags="0x204"/>
    </TTGlyph>
    <TTGlyph name="Upsilontonos" xMin="-160" yMin="0" xMax="577" yMax="730">
      <component glyphName="tonos.case" x="-373" y="0" flags="0x4"/>
      <component glyphName="Y" x="0" y="0" flags="0x204"/>
    </TTGlyph>
    <TTGlyph name="Uring" xMin="72" yMin="-10" xMax="528" yMax="1002">
      <component glyphName="U" x="0" y="0" flags="0x204"/>
      <component glyphName="uni030A.case" x="600" y="0" flags="0x4"/>
    </TTGlyph>
    <TTGlyph name="Utilde" xMin="72" yMin="-10" xMax="528" yMax="954">
      <component glyphName="U" x="0" y="0" flags="0x204"/>
      <component glyphName="tildecomb.case" x="600" y="0" flags="0x4"/>
    </TTGlyph>
    <TTGlyph name="V" xMin="35" yMin="0" xMax="565" yMax="730">
      <contour>
        <pt x="219" y="0" on="1"/>
        <pt x="35" y="730" on="1"/>
        <pt x="164" y="730" on="1"/>
        <pt x="275" y="254" on="1"/>
        <pt x="284" y="219" on="0"/>
        <pt x="299" y="138" on="0"/>
        <pt x="303" y="114" on="1"/>
        <pt x="307" y="138" on="0"/>
        <pt x="322" y="219" on="0"/>
        <pt x="331" y="255" on="1"/>
        <pt x="438" y="730" on="1"/>
        <pt x="565" y="730" on="1"/>
        <pt x="381" y="0" on="1"/>
      </contour>
    </TTGlyph>
    <TTGlyph name="W" xMin="14" yMin="0" xMax="586" yMax="730">
      <contour>
        <pt x="90" y="0" on="1"/>
        <pt x="14" y="730" on="1"/>
        <pt x="118" y="730" on="1"/>
        <pt x="164" y="220" on="1"/>
        <pt x="166" y="194" on="0"/>
        <pt x="171" y="113" on="0"/>
        <pt x="171" y="85" on="1"/>
        <pt x="174" y="113" on="0"/>
        <pt x="181" y="194" on="0"/>
        <pt x="184" y="220" on="1"/>
        <pt x="248" y="730" on="1"/>
        <pt x="355" y="730" on="1"/>
        <pt x="415" y="220" on="1"/>
        <pt x="418" y="194" on="0"/>
        <pt x="427" y="113" on="0"/>
        <pt x="430" y="85" on="1"/>
        <pt x="431" y="113" on="0"/>
        <pt x="436" y="194" on="0"/>
        <pt x="438" y="220" on="1"/>
        <pt x="483" y="730" on="1"/>
        <pt x="586" y="730" on="1"/>
        <pt x="506" y="0" on="1"/>
        <pt x="368" y="0" on="1"/>
        <pt x="312" y="512" on="1"/>
        <pt x="309" y="541" on="0"/>
        <pt x="303" y="624" on="0"/>
        <pt x="301" y="651" on="1"/>
        <pt x="299" y="624" on="0"/>
        <pt x="293" y="541" on="0"/>
        <pt x="290" y="512" on="1"/>
        <pt x="229" y="0" on="1"/>
      </contour>
    </TTGlyph>
    <TTGlyph name="W.cv07" xMin="16" yMin="0" xMax="584" yMax="730">
      <contour>
        <pt x="80" y="0" on="1"/>
        <pt x="16" y="730" on="1"/>
        <pt x="120" y="730" on="1"/>
        <pt x="157" y="220" on="1"/>
        <pt x="159" y="195" on="0"/>
        <pt x="163" y="118" on="0"/>
        <pt x="164" y="90" on="1"/>
        <pt x="166" y="118" on="0"/>
        <pt x="172" y="195" on="0"/>
        <pt x="177" y="220" on="1"/>
        <pt x="244" y="599" on="1"/>
        <pt x="359" y="599" on="1"/>
        <pt x="422" y="220" on="1"/>
        <pt x="427" y="193" on="0"/>
        <pt x="435" y="112" on="0"/>
        <pt x="437" y="84" on="1"/>
        <pt x="438" y="102" on="0"/>
        <pt x="441" y="153" on="0"/>
        <pt x="444" y="203" on="0"/>
        <pt x="445" y="220" on="1"/>
        <pt x="481" y="730" on="1"/>
        <pt x="584" y="730" on="1"/>
        <pt x="516" y="0" on="1"/>
        <pt x="374" y="0" on="1"/>
        <pt x="302" y="491" on="1"/>
        <pt x="222" y="0" on="1"/>
      </contour>
    </TTGlyph>
    <TTGlyph name="Wacute" xMin="14" yMin="0" xMax="586" yMax="950">
      <component glyphName="W" x="0" y="0" flags="0x204"/>
      <component glyphName="acutecomb.case" x="610" y="0" flags="0x4"/>
    </TTGlyph>
    <TTGlyph name="Wacute.cv07" xMin="16" yMin="0" xMax="584" yMax="950">
      <component glyphName="W.cv07" x="0" y="0" flags="0x204"/>
      <component glyphName="acutecomb.case" x="610" y="0" flags="0x4"/>
    </TTGlyph>
    <TTGlyph name="Wcircumflex" xMin="14" yMin="0" xMax="586" yMax="950">
      <component glyphName="W" x="0" y="0" flags="0x204"/>
      <component glyphName="uni0302.case" x="600" y="0" flags="0x4"/>
    </TTGlyph>
    <TTGlyph name="Wcircumflex.cv07" xMin="16" yMin="0" xMax="584" yMax="950">
      <component glyphName="W.cv07" x="0" y="0" flags="0x204"/>
      <component glyphName="uni0302.case" x="600" y="0" flags="0x4"/>
    </TTGlyph>
    <TTGlyph name="Wdieresis" xMin="14" yMin="0" xMax="586" yMax="953">
      <component glyphName="W" x="0" y="0" flags="0x204"/>
      <component glyphName="uni0308.case" x="600" y="0" flags="0x4"/>
    </TTGlyph>
    <TTGlyph name="Wdieresis.cv07" xMin="16" yMin="0" xMax="584" yMax="953">
      <component glyphName="W.cv07" x="0" y="0" flags="0x204"/>
      <component glyphName="uni0308.case" x="600" y="0" flags="0x4"/>
    </TTGlyph>
    <TTGlyph name="Wgrave" xMin="14" yMin="0" xMax="586" yMax="950">
      <component glyphName="W" x="0" y="0" flags="0x204"/>
      <component glyphName="gravecomb.case" x="590" y="0" flags="0x4"/>
    </TTGlyph>
    <TTGlyph name="Wgrave.cv07" xMin="16" yMin="0" xMax="584" yMax="950">
      <component glyphName="W.cv07" x="0" y="0" flags="0x204"/>
      <component glyphName="gravecomb.case" x="590" y="0" flags="0x4"/>
    </TTGlyph>
    <TTGlyph name="X" xMin="28" yMin="0" xMax="572" yMax="730">
      <contour>
        <pt x="28" y="0" on="1"/>
        <pt x="230" y="374" on="1"/>
        <pt x="40" y="730" on="1"/>
        <pt x="180" y="730" on="1"/>
        <pt x="272" y="547" on="1"/>
        <pt x="282" y="527" on="0"/>
        <pt x="298" y="490" on="0"/>
        <pt x="302" y="480" on="1"/>
        <pt x="305" y="490" on="0"/>
        <pt x="321" y="527" on="0"/>
        <pt x="331" y="547" on="1"/>
        <pt x="424" y="730" on="1"/>
        <pt x="560" y="730" on="1"/>
        <pt x="370" y="377" on="1"/>
        <pt x="572" y="0" on="1"/>
        <pt x="432" y="0" on="1"/>
        <pt x="329" y="202" on="1"/>
        <pt x="319" y="221" on="0"/>
        <pt x="302" y="260" on="0"/>
        <pt x="298" y="271" on="1"/>
        <pt x="294" y="260" on="0"/>
        <pt x="278" y="222" on="0"/>
        <pt x="268" y="202" on="1"/>
        <pt x="164" y="0" on="1"/>
      </contour>
    </TTGlyph>
    <TTGlyph name="Xi" xMin="71" yMin="0" xMax="529" yMax="730">
      <contour>
        <pt x="71" y="614" on="1"/>
        <pt x="71" y="730" on="1"/>
        <pt x="529" y="730" on="1"/>
        <pt x="529" y="614" on="1"/>
      </contour>
      <contour>
        <pt x="101" y="312" on="1"/>
        <pt x="101" y="428" on="1"/>
        <pt x="499" y="428" on="1"/>
        <pt x="499" y="312" on="1"/>
      </contour>
      <contour>
        <pt x="71" y="0" on="1"/>
        <pt x="71" y="116" on="1"/>
        <pt x="529" y="116" on="1"/>
        <pt x="529" y="0" on="1"/>
      </contour>
    </TTGlyph>
    <TTGlyph name="Y" xMin="23" yMin="0" xMax="577" yMax="730">
      <contour>
        <pt x="237" y="0" on="1"/>
        <pt x="237" y="265" on="1"/>
        <pt x="23" y="730" on="1"/>
        <pt x="155" y="730" on="1"/>
        <pt x="268" y="477" on="1"/>
        <pt x="281" y="447" on="0"/>
        <pt x="299" y="389" on="0"/>
        <pt x="302" y="373" on="1"/>
        <pt x="306" y="389" on="0"/>
        <pt x="323" y="447" on="0"/>
        <pt x="336" y="477" on="1"/>
        <pt x="447" y="730" on="1"/>
        <pt x="577" y="730" on="1"/>
        <pt x="363" y="265" on="1"/>
        <pt x="363" y="0" on="1"/>
      </contour>
    </TTGlyph>
    <TTGlyph name="Yacute" xMin="23" yMin="0" xMax="577" yMax="950">
      <component glyphName="Y" x="0" y="0" flags="0x204"/>
      <component glyphName="acutecomb.case" x="610" y="0" flags="0x4"/>
    </TTGlyph>
    <TTGlyph name="Ycircumflex" xMin="23" yMin="0" xMax="577" yMax="950">
      <component glyphName="Y" x="0" y="0" flags="0x204"/>
      <component glyphName="uni0302.case" x="600" y="0" flags="0x4"/>
    </TTGlyph>
    <TTGlyph name="Ydieresis" xMin="23" yMin="0" xMax="577" yMax="953">
      <component glyphName="Y" x="0" y="0" flags="0x204"/>
      <component glyphName="uni0308.case" x="600" y="0" flags="0x4"/>
    </TTGlyph>
    <TTGlyph name="Ygrave" xMin="23" yMin="0" xMax="577" yMax="950">
      <component glyphName="Y" x="0" y="0" flags="0x204"/>
      <component glyphName="gravecomb.case" x="590" y="0" flags="0x4"/>
    </TTGlyph>
    <TTGlyph name="Z" xMin="79" yMin="0" xMax="521" yMax="730">
      <contour>
        <pt x="79" y="0" on="1"/>
        <pt x="79" y="116" on="1"/>
        <pt x="372" y="617" on="1"/>
        <pt x="86" y="617" on="1"/>
        <pt x="86" y="730" on="1"/>
        <pt x="510" y="730" on="1"/>
        <pt x="510" y="614" on="1"/>
        <pt x="216" y="113" on="1"/>
        <pt x="521" y="113" on="1"/>
        <pt x="521" y="0" on="1"/>
      </contour>
    </TTGlyph>
    <TTGlyph name="Zacute" xMin="79" yMin="0" xMax="521" yMax="950">
      <component glyphName="Z" x="0" y="0" flags="0x204"/>
      <component glyphName="acutecomb.case" x="610" y="0" flags="0x4"/>
    </TTGlyph>
    <TTGlyph name="Zcaron" xMin="79" yMin="0" xMax="521" yMax="950">
      <component glyphName="Z" x="0" y="0" flags="0x204"/>
      <component glyphName="uni030C.case" x="600" y="0" flags="0x4"/>
    </TTGlyph>
    <TTGlyph name="Zdotaccent" xMin="79" yMin="0" xMax="521" yMax="952">
      <component glyphName="Z" x="0" y="0" flags="0x204"/>
      <component glyphName="uni0307.case" x="600" y="0" flags="0x4"/>
    </TTGlyph>
    <TTGlyph name="Zeta" xMin="79" yMin="0" xMax="521" yMax="730">
      <component glyphName="Z" x="0" y="0" flags="0x204"/>
    </TTGlyph>
    <TTGlyph name="a" xMin="58" yMin="-10" xMax="523" yMax="560">
      <contour>
        <pt x="239" y="-10" on="1"/>
        <pt x="155" y="-10" on="0"/>
        <pt x="58" y="85" on="0"/>
        <pt x="58" y="162" on="1"/>
        <pt x="58" y="242" on="0"/>
        <pt x="168" y="337" on="0"/>
        <pt x="264" y="337" on="1"/>
        <pt x="398" y="337" on="1"/>
        <pt x="398" y="376" on="1"/>
        <pt x="398" y="459" on="0"/>
        <pt x="301" y="459" on="1"/>
        <pt x="257" y="459" on="0"/>
        <pt x="205" y="425" on="0"/>
        <pt x="202" y="394" on="1"/>
        <pt x="82" y="394" on="1"/>
        <pt x="86" y="468" on="0"/>
        <pt x="203" y="560" on="0"/>
        <pt x="302" y="560" on="1"/>
        <pt x="407" y="560" on="0"/>
        <pt x="523" y="462" on="0"/>
        <pt x="523" y="373" on="1"/>
        <pt x="523" y="0" on="1"/>
        <pt x="401" y="0" on="1"/>
        <pt x="401" y="103" on="1"/>
        <pt x="394" y="50" on="0"/>
        <pt x="308" y="-10" on="0"/>
      </contour>
      <contour>
        <pt x="279" y="92" on="1"/>
        <pt x="334" y="92" on="0"/>
        <pt x="398" y="146" on="0"/>
        <pt x="398" y="191" on="1"/>
        <pt x="398" y="256" on="1"/>
        <pt x="270" y="256" on="1"/>
        <pt x="229" y="256" on="0"/>
        <pt x="181" y="210" on="0"/>
        <pt x="181" y="174" on="1"/>
        <pt x="181" y="137" on="0"/>
        <pt x="232" y="92" on="0"/>
      </contour>
    </TTGlyph>
    <TTGlyph name="aacute" xMin="58" yMin="-10" xMax="523" yMax="785">
      <component glyphName="a" x="0" y="0" flags="0x204"/>
      <component glyphName="acutecomb" x="615" y="0" flags="0x4"/>
    </TTGlyph>
    <TTGlyph name="abreve" xMin="58" yMin="-10" xMax="523" yMax="785">
      <component glyphName="a" x="0" y="0" flags="0x204"/>
      <component glyphName="uni0306" x="605" y="0" flags="0x4"/>
    </TTGlyph>
    <TTGlyph name="acircumflex" xMin="58" yMin="-10" xMax="523" yMax="785">
      <component glyphName="a" x="0" y="0" flags="0x204"/>
      <component glyphName="uni0302" x="605" y="0" flags="0x4"/>
    </TTGlyph>
    <TTGlyph name="acknowledgecontrol" xMin="9" yMin="0" xMax="576" yMax="730">
      <contour>
        <pt x="310" y="395" on="1"/>
        <pt x="283" y="457" on="1"/>
        <pt x="117" y="457" on="1"/>
        <pt x="91" y="395" on="1"/>
        <pt x="9" y="395" on="1"/>
        <pt x="157" y="730" on="1"/>
        <pt x="243" y="730" on="1"/>
        <pt x="391" y="395" on="1"/>
      </contour>
      <contour>
        <pt x="221" y="601" on="1"/>
        <pt x="204" y="642" on="0"/>
        <pt x="199" y="669" on="1"/>
        <pt x="197" y="656" on="0"/>
        <pt x="184" y="620" on="0"/>
        <pt x="177" y="601" on="1"/>
        <pt x="145" y="525" on="1"/>
        <pt x="254" y="525" on="1"/>
      </contour>
      <contour>
        <pt x="239" y="0" on="1"/>
        <pt x="239" y="335" on="1"/>
        <pt x="317" y="335" on="1"/>
        <pt x="317" y="207" on="1"/>
        <pt x="387" y="207" on="1"/>
        <pt x="480" y="335" on="1"/>
        <pt x="566" y="335" on="1"/>
        <pt x="451" y="175" on="1"/>
        <pt x="576" y="0" on="1"/>
        <pt x="486" y="0" on="1"/>
        <pt x="387" y="137" on="1"/>
        <pt x="317" y="137" on="1"/>
        <pt x="317" y="0" on="1"/>
      </contour>
    </TTGlyph>
    <TTGlyph name="acute" xMin="214" yMin="645" xMax="454" yMax="785">
      <component glyphName="acutecomb" x="600" y="0" flags="0x4"/>
    </TTGlyph>
    <TTGlyph name="acute.case" xMin="214" yMin="810" xMax="454" yMax="950">
      <component glyphName="acutecomb.case" x="600" y="0" flags="0x4"/>
    </TTGlyph>
    <TTGlyph name="acutecomb" xMin="-386" yMin="645" xMax="-146" yMax="785">
      <contour>
        <pt x="-386" y="645" on="1"/>
        <pt x="-280" y="785" on="1"/>
        <pt x="-146" y="785" on="1"/>
        <pt x="-260" y="645" on="1"/>
      </contour>
    </TTGlyph>
    <TTGlyph name="acutecomb.case" xMin="-386" yMin="810" xMax="-146" yMax="950">
      <contour>
        <pt x="-386" y="810" on="1"/>
        <pt x="-280" y="950" on="1"/>
        <pt x="-146" y="950" on="1"/>
        <pt x="-260" y="810" on="1"/>
      </contour>
    </TTGlyph>
    <TTGlyph name="adieresis" xMin="58" yMin="-10" xMax="523" yMax="786">
      <component glyphName="a" x="0" y="0" flags="0x204"/>
      <component glyphName="uni0308" x="605" y="0" flags="0x4"/>
    </TTGlyph>
    <TTGlyph name="ae" xMin="29" yMin="-10" xMax="568" yMax="560">
      <contour>
        <pt x="178" y="-10" on="1"/>
        <pt x="112" y="-10" on="0"/>
        <pt x="29" y="84" on="0"/>
        <pt x="29" y="159" on="1"/>
        <pt x="29" y="234" on="0"/>
        <pt x="119" y="328" on="0"/>
        <pt x="191" y="328" on="1"/>
        <pt x="251" y="328" on="1"/>
        <pt x="251" y="400" on="1"/>
        <pt x="251" y="434" on="0"/>
        <pt x="222" y="472" on="0"/>
        <pt x="197" y="472" on="1"/>
        <pt x="172" y="472" on="0"/>
        <pt x="142" y="436" on="0"/>
        <pt x="142" y="406" on="1"/>
        <pt x="39" y="406" on="1"/>
        <pt x="39" y="475" on="0"/>
        <pt x="118" y="560" on="0"/>
        <pt x="181" y="560" on="1"/>
        <pt x="230" y="560" on="0"/>
        <pt x="297" y="511" on="0"/>
        <pt x="302" y="469" on="1"/>
        <pt x="307" y="511" on="0"/>
        <pt x="374" y="560" on="0"/>
        <pt x="421" y="560" on="1"/>
        <pt x="486" y="560" on="0"/>
        <pt x="568" y="471" on="0"/>
        <pt x="568" y="400" on="1"/>
        <pt x="568" y="252" on="1"/>
        <pt x="354" y="252" on="1"/>
        <pt x="354" y="150" on="1"/>
        <pt x="354" y="116" on="0"/>
        <pt x="383" y="78" on="0"/>
        <pt x="408" y="78" on="1"/>
        <pt x="434" y="78" on="0"/>
        <pt x="463" y="114" on="0"/>
        <pt x="463" y="145" on="1"/>
        <pt x="568" y="145" on="1"/>
        <pt x="568" y="76" on="0"/>
        <pt x="487" y="-10" on="0"/>
        <pt x="422" y="-10" on="1"/>
        <pt x="377" y="-10" on="0"/>
        <pt x="309" y="40" on="0"/>
        <pt x="302" y="81" on="1"/>
        <pt x="296" y="40" on="0"/>
        <pt x="227" y="-10" on="0"/>
      </contour>
      <contour>
        <pt x="354" y="328" on="1"/>
        <pt x="463" y="328" on="1"/>
        <pt x="463" y="400" on="1"/>
        <pt x="463" y="433" on="0"/>
        <pt x="434" y="472" on="0"/>
        <pt x="408" y="472" on="1"/>
        <pt x="384" y="472" on="0"/>
        <pt x="354" y="433" on="0"/>
        <pt x="354" y="400" on="1"/>
      </contour>
      <contour>
        <pt x="195" y="78" on="1"/>
        <pt x="220" y="78" on="0"/>
        <pt x="251" y="117" on="0"/>
        <pt x="251" y="150" on="1"/>
        <pt x="251" y="252" on="1"/>
        <pt x="192" y="252" on="1"/>
        <pt x="165" y="252" on="0"/>
        <pt x="134" y="205" on="0"/>
        <pt x="134" y="165" on="1"/>
        <pt x="134" y="126" on="0"/>
        <pt x="166" y="78" on="0"/>
      </contour>
    </TTGlyph>
    <TTGlyph name="aeacute" xMin="29" yMin="-10" xMax="568" yMax="785">
      <component glyphName="ae" x="0" y="0" flags="0x204"/>
      <component glyphName="acutecomb" x="610" y="0" flags="0x4"/>
    </TTGlyph>
    <TTGlyph name="agrave" xMin="58" yMin="-10" xMax="523" yMax="785">
      <component glyphName="a" x="0" y="0" flags="0x204"/>
      <component glyphName="gravecomb" x="595" y="0" flags="0x4"/>
    </TTGlyph>
    <TTGlyph name="alpha" xMin="70" yMin="-10" xMax="523" yMax="560">
      <contour>
        <pt x="250" y="-10" on="1"/>
        <pt x="170" y="-10" on="0"/>
        <pt x="70" y="104" on="0"/>
        <pt x="70" y="200" on="1"/>
        <pt x="70" y="349" on="1"/>
        <pt x="70" y="446" on="0"/>
        <pt x="169" y="560" on="0"/>
        <pt x="250" y="560" on="1"/>
        <pt x="307" y="560" on="0"/>
        <pt x="385" y="503" on="0"/>
        <pt x="400" y="451" on="1"/>
        <pt x="402" y="451" on="1"/>
        <pt x="398" y="550" on="1"/>
        <pt x="523" y="550" on="1"/>
        <pt x="523" y="0" on="1"/>
        <pt x="401" y="0" on="1"/>
        <pt x="401" y="99" on="1"/>
        <pt x="400" y="99" on="1"/>
        <pt x="385" y="47" on="0"/>
        <pt x="308" y="-10" on="0"/>
      </contour>
      <contour>
        <pt x="297" y="98" on="1"/>
        <pt x="345" y="98" on="0"/>
        <pt x="398" y="156" on="0"/>
        <pt x="398" y="209" on="1"/>
        <pt x="398" y="341" on="1"/>
        <pt x="398" y="394" on="0"/>
        <pt x="345" y="452" on="0"/>
        <pt x="297" y="452" on="1"/>
        <pt x="249" y="452" on="0"/>
        <pt x="195" y="396" on="0"/>
        <pt x="195" y="344" on="1"/>
        <pt x="195" y="206" on="1"/>
        <pt x="195" y="154" on="0"/>
        <pt x="249" y="98" on="0"/>
      </contour>
    </TTGlyph>
    <TTGlyph name="alphatonos" xMin="70" yMin="-10" xMax="523" yMax="785">
      <contour>
        <pt x="215" y="645" on="1"/>
        <pt x="320" y="785" on="1"/>
        <pt x="458" y="785" on="1"/>
        <pt x="344" y="645" on="1"/>
      </contour>
      <contour>
        <pt x="250" y="-10" on="1"/>
        <pt x="170" y="-10" on="0"/>
        <pt x="70" y="104" on="0"/>
        <pt x="70" y="200" on="1"/>
        <pt x="70" y="349" on="1"/>
        <pt x="70" y="446" on="0"/>
        <pt x="169" y="560" on="0"/>
        <pt x="250" y="560" on="1"/>
        <pt x="307" y="560" on="0"/>
        <pt x="385" y="503" on="0"/>
        <pt x="400" y="451" on="1"/>
        <pt x="402" y="451" on="1"/>
        <pt x="398" y="550" on="1"/>
        <pt x="523" y="550" on="1"/>
        <pt x="523" y="0" on="1"/>
        <pt x="401" y="0" on="1"/>
        <pt x="401" y="99" on="1"/>
        <pt x="400" y="99" on="1"/>
        <pt x="385" y="47" on="0"/>
        <pt x="308" y="-10" on="0"/>
      </contour>
      <contour>
        <pt x="297" y="98" on="1"/>
        <pt x="345" y="98" on="0"/>
        <pt x="398" y="156" on="0"/>
        <pt x="398" y="209" on="1"/>
        <pt x="398" y="341" on="1"/>
        <pt x="398" y="394" on="0"/>
        <pt x="345" y="452" on="0"/>
        <pt x="297" y="452" on="1"/>
        <pt x="249" y="452" on="0"/>
        <pt x="195" y="396" on="0"/>
        <pt x="195" y="344" on="1"/>
        <pt x="195" y="206" on="1"/>
        <pt x="195" y="154" on="0"/>
        <pt x="249" y="98" on="0"/>
      </contour>
    </TTGlyph>
    <TTGlyph name="amacron" xMin="58" yMin="-10" xMax="523" yMax="757">
      <component glyphName="a" x="0" y="0" flags="0x204"/>
      <component glyphName="uni0304" x="605" y="0" flags="0x4"/>
    </TTGlyph>
    <TTGlyph name="ampersand" xMin="17" yMin="-10" xMax="624" yMax="740">
      <contour>
        <pt x="223" y="-10" on="1"/>
        <pt x="128" y="-10" on="0"/>
        <pt x="17" y="95" on="0"/>
        <pt x="17" y="183" on="1"/>
        <pt x="17" y="249" on="1"/>
        <pt x="17" y="326" on="0"/>
        <pt x="97" y="422" on="0"/>
        <pt x="165" y="430" on="1"/>
        <pt x="143" y="460" on="1"/>
        <pt x="121" y="490" on="0"/>
        <pt x="98" y="549" on="0"/>
        <pt x="98" y="576" on="1"/>
        <pt x="98" y="624" on="0"/>
        <pt x="145" y="698" on="0"/>
        <pt x="228" y="740" on="0"/>
        <pt x="282" y="740" on="1"/>
        <pt x="340" y="740" on="0"/>
        <pt x="427" y="691" on="0"/>
        <pt x="476" y="602" on="0"/>
        <pt x="476" y="544" on="1"/>
        <pt x="361" y="544" on="1"/>
        <pt x="361" y="587" on="0"/>
        <pt x="317" y="639" on="0"/>
        <pt x="282" y="639" on="1"/>
        <pt x="252" y="639" on="0"/>
        <pt x="214" y="601" on="0"/>
        <pt x="214" y="571" on="1"/>
        <pt x="214" y="557" on="0"/>
        <pt x="226" y="525" on="0"/>
        <pt x="236" y="512" on="1"/>
        <pt x="420" y="269" on="1"/>
        <pt x="496" y="365" on="1"/>
        <pt x="624" y="365" on="1"/>
        <pt x="482" y="185" on="1"/>
        <pt x="621" y="0" on="1"/>
        <pt x="490" y="0" on="1"/>
        <pt x="415" y="100" on="1"/>
        <pt x="396" y="76" on="1"/>
        <pt x="367" y="36" on="0"/>
        <pt x="275" y="-10" on="0"/>
      </contour>
      <contour>
        <pt x="227" y="94" on="1"/>
        <pt x="257" y="94" on="0"/>
        <pt x="304" y="122" on="0"/>
        <pt x="323" y="148" on="1"/>
        <pt x="351" y="183" on="1"/>
        <pt x="234" y="338" on="1"/>
        <pt x="220" y="338" on="1"/>
        <pt x="181" y="338" on="0"/>
        <pt x="136" y="290" on="0"/>
        <pt x="136" y="249" on="1"/>
        <pt x="136" y="183" on="1"/>
        <pt x="136" y="142" on="0"/>
        <pt x="185" y="94" on="0"/>
      </contour>
    </TTGlyph>
    <TTGlyph name="ampersand.cv15" xMin="43" yMin="0" xMax="595" yMax="730">
      <contour>
        <pt x="278" y="0" on="1"/>
        <pt x="208" y="0" on="0"/>
        <pt x="102" y="53" on="0"/>
        <pt x="43" y="149" on="0"/>
        <pt x="43" y="214" on="1"/>
        <pt x="43" y="258" on="0"/>
        <pt x="79" y="332" on="0"/>
        <pt x="143" y="380" on="0"/>
        <pt x="185" y="385" on="1"/>
        <pt x="185" y="387" on="1"/>
        <pt x="130" y="396" on="0"/>
        <pt x="60" y="481" on="0"/>
        <pt x="60" y="541" on="1"/>
        <pt x="60" y="598" on="0"/>
        <pt x="115" y="683" on="0"/>
        <pt x="213" y="730" on="0"/>
        <pt x="279" y="730" on="1"/>
        <pt x="453" y="730" on="1"/>
        <pt x="453" y="623" on="1"/>
        <pt x="279" y="623" on="1"/>
        <pt x="236" y="623" on="0"/>
        <pt x="184" y="573" on="0"/>
        <pt x="184" y="529" on="1"/>
        <pt x="184" y="485" on="0"/>
        <pt x="237" y="434" on="0"/>
        <pt x="280" y="434" on="1"/>
        <pt x="595" y="434" on="1"/>
        <pt x="595" y="329" on="1"/>
        <pt x="491" y="329" on="1"/>
        <pt x="491" y="0" on="1"/>
      </contour>
      <contour>
        <pt x="278" y="108" on="1"/>
        <pt x="369" y="108" on="1"/>
        <pt x="369" y="329" on="1"/>
        <pt x="278" y="329" on="1"/>
        <pt x="229" y="329" on="0"/>
        <pt x="167" y="269" on="0"/>
        <pt x="167" y="218" on="1"/>
        <pt x="167" y="167" on="0"/>
        <pt x="229" y="108" on="0"/>
      </contour>
    </TTGlyph>
    <TTGlyph name="ampersand_ampersand.liga" xMin="-575" yMin="-10" xMax="616" yMax="740">
      <contour>
        <pt x="215" y="-10" on="1"/>
        <pt x="120" y="-10" on="0"/>
        <pt x="9" y="95" on="0"/>
        <pt x="9" y="183" on="1"/>
        <pt x="9" y="249" on="1"/>
        <pt x="9" y="326" on="0"/>
        <pt x="89" y="422" on="0"/>
        <pt x="158" y="430" on="1"/>
        <pt x="135" y="460" on="1"/>
        <pt x="113" y="490" on="0"/>
        <pt x="91" y="549" on="0"/>
        <pt x="91" y="576" on="1"/>
        <pt x="91" y="624" on="0"/>
        <pt x="137" y="698" on="0"/>
        <pt x="220" y="740" on="0"/>
        <pt x="274" y="740" on="1"/>
        <pt x="332" y="740" on="0"/>
        <pt x="419" y="691" on="0"/>
        <pt x="468" y="602" on="0"/>
        <pt x="468" y="544" on="1"/>
        <pt x="353" y="544" on="1"/>
        <pt x="353" y="587" on="0"/>
        <pt x="309" y="639" on="0"/>
        <pt x="274" y="639" on="1"/>
        <pt x="244" y="639" on="0"/>
        <pt x="206" y="601" on="0"/>
        <pt x="206" y="571" on="1"/>
        <pt x="206" y="557" on="0"/>
        <pt x="219" y="525" on="0"/>
        <pt x="228" y="512" on="1"/>
        <pt x="412" y="269" on="1"/>
        <pt x="488" y="365" on="1"/>
        <pt x="616" y="365" on="1"/>
        <pt x="474" y="185" on="1"/>
        <pt x="613" y="0" on="1"/>
        <pt x="482" y="0" on="1"/>
        <pt x="407" y="100" on="1"/>
        <pt x="388" y="76" on="1"/>
        <pt x="359" y="36" on="0"/>
        <pt x="267" y="-10" on="0"/>
      </contour>
      <contour>
        <pt x="-369" y="-10" on="1"/>
        <pt x="-464" y="-10" on="0"/>
        <pt x="-575" y="95" on="0"/>
        <pt x="-575" y="183" on="1"/>
        <pt x="-575" y="249" on="1"/>
        <pt x="-575" y="326" on="0"/>
        <pt x="-495" y="422" on="0"/>
        <pt x="-427" y="430" on="1"/>
        <pt x="-450" y="460" on="1"/>
        <pt x="-471" y="490" on="0"/>
        <pt x="-494" y="549" on="0"/>
        <pt x="-494" y="576" on="1"/>
        <pt x="-494" y="624" on="0"/>
        <pt x="-447" y="698" on="0"/>
        <pt x="-364" y="740" on="0"/>
        <pt x="-310" y="740" on="1"/>
        <pt x="-252" y="740" on="0"/>
        <pt x="-165" y="691" on="0"/>
        <pt x="-116" y="602" on="0"/>
        <pt x="-116" y="544" on="1"/>
        <pt x="-231" y="544" on="1"/>
        <pt x="-231" y="587" on="0"/>
        <pt x="-275" y="639" on="0"/>
        <pt x="-310" y="639" on="1"/>
        <pt x="-341" y="639" on="0"/>
        <pt x="-378" y="601" on="0"/>
        <pt x="-378" y="571" on="1"/>
        <pt x="-378" y="557" on="0"/>
        <pt x="-366" y="525" on="0"/>
        <pt x="-356" y="512" on="1"/>
        <pt x="29" y="0" on="1"/>
        <pt x="-102" y="0" on="1"/>
        <pt x="-177" y="100" on="1"/>
        <pt x="-196" y="76" on="1"/>
        <pt x="-226" y="36" on="0"/>
        <pt x="-317" y="-10" on="0"/>
      </contour>
      <contour>
        <pt x="219" y="94" on="1"/>
        <pt x="249" y="94" on="0"/>
        <pt x="296" y="122" on="0"/>
        <pt x="315" y="148" on="1"/>
        <pt x="343" y="183" on="1"/>
        <pt x="227" y="338" on="1"/>
        <pt x="212" y="338" on="1"/>
        <pt x="173" y="338" on="0"/>
        <pt x="128" y="290" on="0"/>
        <pt x="128" y="249" on="1"/>
        <pt x="128" y="183" on="1"/>
        <pt x="128" y="142" on="0"/>
        <pt x="177" y="94" on="0"/>
      </contour>
      <contour>
        <pt x="-365" y="94" on="1"/>
        <pt x="-335" y="94" on="0"/>
        <pt x="-288" y="122" on="0"/>
        <pt x="-269" y="148" on="1"/>
        <pt x="-241" y="183" on="1"/>
        <pt x="-358" y="338" on="1"/>
        <pt x="-372" y="338" on="1"/>
        <pt x="-411" y="338" on="0"/>
        <pt x="-456" y="290" on="0"/>
        <pt x="-456" y="249" on="1"/>
        <pt x="-456" y="183" on="1"/>
        <pt x="-456" y="142" on="0"/>
        <pt x="-407" y="94" on="0"/>
      </contour>
    </TTGlyph>
    <TTGlyph name="ampersand_ampersand.liga.cv15" xMin="-556" yMin="0" xMax="610" yMax="730">
      <contour>
        <pt x="273" y="0" on="1"/>
        <pt x="203" y="0" on="0"/>
        <pt x="97" y="53" on="0"/>
        <pt x="38" y="148" on="0"/>
        <pt x="38" y="211" on="1"/>
        <pt x="38" y="282" on="0"/>
        <pt x="87" y="329" on="1"/>
        <pt x="-89" y="329" on="1"/>
        <pt x="-89" y="0" on="1"/>
        <pt x="-321" y="0" on="1"/>
        <pt x="-427" y="0" on="0"/>
        <pt x="-556" y="113" on="0"/>
        <pt x="-556" y="214" on="1"/>
        <pt x="-556" y="258" on="0"/>
        <pt x="-520" y="332" on="0"/>
        <pt x="-456" y="380" on="0"/>
        <pt x="-414" y="385" on="1"/>
        <pt x="-414" y="387" on="1"/>
        <pt x="-470" y="396" on="0"/>
        <pt x="-539" y="481" on="0"/>
        <pt x="-539" y="541" on="1"/>
        <pt x="-539" y="630" on="0"/>
        <pt x="-419" y="730" on="0"/>
        <pt x="-320" y="730" on="1"/>
        <pt x="-147" y="730" on="1"/>
        <pt x="-147" y="624" on="1"/>
        <pt x="-320" y="624" on="1"/>
        <pt x="-363" y="624" on="0"/>
        <pt x="-415" y="574" on="0"/>
        <pt x="-415" y="529" on="1"/>
        <pt x="-415" y="484" on="0"/>
        <pt x="-362" y="434" on="0"/>
        <pt x="-320" y="434" on="1"/>
        <pt x="114" y="434" on="1"/>
        <pt x="55" y="474" on="0"/>
        <pt x="55" y="544" on="1"/>
        <pt x="55" y="599" on="0"/>
        <pt x="110" y="683" on="0"/>
        <pt x="208" y="730" on="0"/>
        <pt x="274" y="730" on="1"/>
        <pt x="451" y="730" on="1"/>
        <pt x="451" y="624" on="1"/>
        <pt x="274" y="624" on="1"/>
        <pt x="231" y="624" on="0"/>
        <pt x="179" y="575" on="0"/>
        <pt x="179" y="529" on="1"/>
        <pt x="179" y="484" on="0"/>
        <pt x="232" y="434" on="0"/>
        <pt x="275" y="434" on="1"/>
        <pt x="610" y="434" on="1"/>
        <pt x="610" y="329" on="1"/>
        <pt x="505" y="329" on="1"/>
        <pt x="505" y="0" on="1"/>
      </contour>
      <contour>
        <pt x="-321" y="107" on="1"/>
        <pt x="-211" y="107" on="1"/>
        <pt x="-211" y="329" on="1"/>
        <pt x="-321" y="329" on="1"/>
        <pt x="-371" y="329" on="0"/>
        <pt x="-432" y="270" on="0"/>
        <pt x="-432" y="218" on="1"/>
        <pt x="-432" y="165" on="0"/>
        <pt x="-371" y="107" on="0"/>
      </contour>
      <contour>
        <pt x="273" y="107" on="1"/>
        <pt x="384" y="107" on="1"/>
        <pt x="384" y="329" on="1"/>
        <pt x="273" y="329" on="1"/>
        <pt x="224" y="329" on="0"/>
        <pt x="162" y="270" on="0"/>
        <pt x="162" y="218" on="1"/>
        <pt x="162" y="165" on="0"/>
        <pt x="224" y="107" on="0"/>
      </contour>
    </TTGlyph>
    <TTGlyph name="ampersand_ampersand_ampersand.liga" xMin="-1168" yMin="-10" xMax="607" yMax="740">
      <contour>
        <pt x="206" y="-10" on="1"/>
        <pt x="111" y="-10" on="0"/>
        <pt x="0" y="95" on="0"/>
        <pt x="0" y="183" on="1"/>
        <pt x="0" y="249" on="1"/>
        <pt x="0" y="326" on="0"/>
        <pt x="80" y="422" on="0"/>
        <pt x="148" y="430" on="1"/>
        <pt x="126" y="460" on="1"/>
        <pt x="104" y="490" on="0"/>
        <pt x="81" y="549" on="0"/>
        <pt x="81" y="576" on="1"/>
        <pt x="81" y="624" on="0"/>
        <pt x="128" y="698" on="0"/>
        <pt x="211" y="740" on="0"/>
        <pt x="265" y="740" on="1"/>
        <pt x="323" y="740" on="0"/>
        <pt x="410" y="691" on="0"/>
        <pt x="459" y="602" on="0"/>
        <pt x="459" y="544" on="1"/>
        <pt x="344" y="544" on="1"/>
        <pt x="344" y="587" on="0"/>
        <pt x="300" y="639" on="0"/>
        <pt x="265" y="639" on="1"/>
        <pt x="235" y="639" on="0"/>
        <pt x="197" y="601" on="0"/>
        <pt x="197" y="571" on="1"/>
        <pt x="197" y="557" on="0"/>
        <pt x="209" y="525" on="0"/>
        <pt x="219" y="512" on="1"/>
        <pt x="403" y="269" on="1"/>
        <pt x="479" y="365" on="1"/>
        <pt x="607" y="365" on="1"/>
        <pt x="465" y="185" on="1"/>
        <pt x="604" y="0" on="1"/>
        <pt x="473" y="0" on="1"/>
        <pt x="398" y="100" on="1"/>
        <pt x="379" y="76" on="1"/>
        <pt x="350" y="36" on="0"/>
        <pt x="258" y="-10" on="0"/>
      </contour>
      <contour>
        <pt x="-963" y="-10" on="1"/>
        <pt x="-1057" y="-10" on="0"/>
        <pt x="-1168" y="95" on="0"/>
        <pt x="-1168" y="183" on="1"/>
        <pt x="-1168" y="249" on="1"/>
        <pt x="-1168" y="326" on="0"/>
        <pt x="-1088" y="422" on="0"/>
        <pt x="-1020" y="430" on="1"/>
        <pt x="-1043" y="460" on="1"/>
        <pt x="-1065" y="490" on="0"/>
        <pt x="-1087" y="549" on="0"/>
        <pt x="-1087" y="576" on="1"/>
        <pt x="-1087" y="624" on="0"/>
        <pt x="-1040" y="698" on="0"/>
        <pt x="-958" y="740" on="0"/>
        <pt x="-903" y="740" on="1"/>
        <pt x="-846" y="740" on="0"/>
        <pt x="-758" y="691" on="0"/>
        <pt x="-709" y="602" on="0"/>
        <pt x="-709" y="544" on="1"/>
        <pt x="-824" y="544" on="1"/>
        <pt x="-824" y="587" on="0"/>
        <pt x="-868" y="639" on="0"/>
        <pt x="-903" y="639" on="1"/>
        <pt x="-934" y="639" on="0"/>
        <pt x="-972" y="601" on="0"/>
        <pt x="-972" y="571" on="1"/>
        <pt x="-972" y="557" on="0"/>
        <pt x="-959" y="525" on="0"/>
        <pt x="-949" y="512" on="1"/>
        <pt x="-564" y="0" on="1"/>
        <pt x="-696" y="0" on="1"/>
        <pt x="-770" y="100" on="1"/>
        <pt x="-789" y="76" on="1"/>
        <pt x="-819" y="36" on="0"/>
        <pt x="-910" y="-10" on="0"/>
      </contour>
      <contour>
        <pt x="-379" y="-10" on="1"/>
        <pt x="-473" y="-10" on="0"/>
        <pt x="-584" y="95" on="0"/>
        <pt x="-584" y="183" on="1"/>
        <pt x="-584" y="249" on="1"/>
        <pt x="-584" y="326" on="0"/>
        <pt x="-504" y="422" on="0"/>
        <pt x="-436" y="430" on="1"/>
        <pt x="-459" y="460" on="1"/>
        <pt x="-481" y="490" on="0"/>
        <pt x="-503" y="549" on="0"/>
        <pt x="-503" y="576" on="1"/>
        <pt x="-503" y="624" on="0"/>
        <pt x="-456" y="698" on="0"/>
        <pt x="-374" y="740" on="0"/>
        <pt x="-319" y="740" on="1"/>
        <pt x="-262" y="740" on="0"/>
        <pt x="-174" y="691" on="0"/>
        <pt x="-125" y="602" on="0"/>
        <pt x="-125" y="544" on="1"/>
        <pt x="-240" y="544" on="1"/>
        <pt x="-240" y="587" on="0"/>
        <pt x="-284" y="639" on="0"/>
        <pt x="-319" y="639" on="1"/>
        <pt x="-350" y="639" on="0"/>
        <pt x="-387" y="601" on="0"/>
        <pt x="-387" y="571" on="1"/>
        <pt x="-387" y="557" on="0"/>
        <pt x="-375" y="525" on="0"/>
        <pt x="-365" y="512" on="1"/>
        <pt x="20" y="0" on="1"/>
        <pt x="-111" y="0" on="1"/>
        <pt x="-186" y="100" on="1"/>
        <pt x="-205" y="76" on="1"/>
        <pt x="-235" y="36" on="0"/>
        <pt x="-326" y="-10" on="0"/>
      </contour>
      <contour>
        <pt x="-958" y="94" on="1"/>
        <pt x="-928" y="94" on="0"/>
        <pt x="-882" y="122" on="0"/>
        <pt x="-862" y="148" on="1"/>
        <pt x="-834" y="183" on="1"/>
        <pt x="-951" y="338" on="1"/>
        <pt x="-965" y="338" on="1"/>
        <pt x="-1004" y="338" on="0"/>
        <pt x="-1050" y="290" on="0"/>
        <pt x="-1050" y="249" on="1"/>
        <pt x="-1050" y="183" on="1"/>
        <pt x="-1050" y="142" on="0"/>
        <pt x="-1001" y="94" on="0"/>
      </contour>
      <contour>
        <pt x="-374" y="94" on="1"/>
        <pt x="-344" y="94" on="0"/>
        <pt x="-297" y="122" on="0"/>
        <pt x="-278" y="148" on="1"/>
        <pt x="-250" y="183" on="1"/>
        <pt x="-367" y="338" on="1"/>
        <pt x="-381" y="338" on="1"/>
        <pt x="-420" y="338" on="0"/>
        <pt x="-465" y="290" on="0"/>
        <pt x="-465" y="249" on="1"/>
        <pt x="-465" y="183" on="1"/>
        <pt x="-465" y="142" on="0"/>
        <pt x="-416" y="94" on="0"/>
      </contour>
      <contour>
        <pt x="210" y="94" on="1"/>
        <pt x="240" y="94" on="0"/>
        <pt x="287" y="122" on="0"/>
        <pt x="306" y="148" on="1"/>
        <pt x="334" y="183" on="1"/>
        <pt x="217" y="338" on="1"/>
        <pt x="203" y="338" on="1"/>
        <pt x="164" y="338" on="0"/>
        <pt x="119" y="290" on="0"/>
        <pt x="119" y="249" on="1"/>
        <pt x="119" y="183" on="1"/>
        <pt x="119" y="142" on="0"/>
        <pt x="168" y="94" on="0"/>
      </contour>
    </TTGlyph>
    <TTGlyph name="ampersand_ampersand_ampersand.liga.cv15" xMin="-1156" yMin="0" xMax="610" yMax="730">
      <contour>
        <pt x="273" y="0" on="1"/>
        <pt x="203" y="0" on="0"/>
        <pt x="97" y="53" on="0"/>
        <pt x="38" y="148" on="0"/>
        <pt x="38" y="211" on="1"/>
        <pt x="38" y="282" on="0"/>
        <pt x="87" y="329" on="1"/>
        <pt x="-95" y="329" on="1"/>
        <pt x="-95" y="0" on="1"/>
        <pt x="-327" y="0" on="1"/>
        <pt x="-397" y="0" on="0"/>
        <pt x="-503" y="53" on="0"/>
        <pt x="-562" y="148" on="0"/>
        <pt x="-562" y="211" on="1"/>
        <pt x="-562" y="282" on="0"/>
        <pt x="-513" y="329" on="1"/>
        <pt x="-689" y="329" on="1"/>
        <pt x="-689" y="0" on="1"/>
        <pt x="-921" y="0" on="1"/>
        <pt x="-1027" y="0" on="0"/>
        <pt x="-1156" y="113" on="0"/>
        <pt x="-1156" y="214" on="1"/>
        <pt x="-1156" y="258" on="0"/>
        <pt x="-1120" y="332" on="0"/>
        <pt x="-1056" y="380" on="0"/>
        <pt x="-1014" y="385" on="1"/>
        <pt x="-1014" y="387" on="1"/>
        <pt x="-1070" y="396" on="0"/>
        <pt x="-1139" y="481" on="0"/>
        <pt x="-1139" y="541" on="1"/>
        <pt x="-1139" y="630" on="0"/>
        <pt x="-1019" y="730" on="0"/>
        <pt x="-920" y="730" on="1"/>
        <pt x="-747" y="730" on="1"/>
        <pt x="-747" y="624" on="1"/>
        <pt x="-920" y="624" on="1"/>
        <pt x="-963" y="624" on="0"/>
        <pt x="-1015" y="574" on="0"/>
        <pt x="-1015" y="529" on="1"/>
        <pt x="-1015" y="484" on="0"/>
        <pt x="-962" y="434" on="0"/>
        <pt x="-920" y="434" on="1"/>
        <pt x="-486" y="434" on="1"/>
        <pt x="-545" y="474" on="0"/>
        <pt x="-545" y="544" on="1"/>
        <pt x="-545" y="599" on="0"/>
        <pt x="-490" y="683" on="0"/>
        <pt x="-392" y="730" on="0"/>
        <pt x="-326" y="730" on="1"/>
        <pt x="-149" y="730" on="1"/>
        <pt x="-149" y="624" on="1"/>
        <pt x="-326" y="624" on="1"/>
        <pt x="-369" y="624" on="0"/>
        <pt x="-421" y="575" on="0"/>
        <pt x="-421" y="529" on="1"/>
        <pt x="-421" y="484" on="0"/>
        <pt x="-368" y="434" on="0"/>
        <pt x="-325" y="434" on="1"/>
        <pt x="114" y="434" on="1"/>
        <pt x="55" y="474" on="0"/>
        <pt x="55" y="544" on="1"/>
        <pt x="55" y="599" on="0"/>
        <pt x="110" y="683" on="0"/>
        <pt x="208" y="730" on="0"/>
        <pt x="274" y="730" on="1"/>
        <pt x="451" y="730" on="1"/>
        <pt x="451" y="624" on="1"/>
        <pt x="274" y="624" on="1"/>
        <pt x="231" y="624" on="0"/>
        <pt x="179" y="575" on="0"/>
        <pt x="179" y="529" on="1"/>
        <pt x="179" y="484" on="0"/>
        <pt x="232" y="434" on="0"/>
        <pt x="275" y="434" on="1"/>
        <pt x="610" y="434" on="1"/>
        <pt x="610" y="329" on="1"/>
        <pt x="505" y="329" on="1"/>
        <pt x="505" y="0" on="1"/>
      </contour>
      <contour>
        <pt x="-921" y="107" on="1"/>
        <pt x="-811" y="107" on="1"/>
        <pt x="-811" y="329" on="1"/>
        <pt x="-921" y="329" on="1"/>
        <pt x="-971" y="329" on="0"/>
        <pt x="-1032" y="270" on="0"/>
        <pt x="-1032" y="218" on="1"/>
        <pt x="-1032" y="165" on="0"/>
        <pt x="-971" y="107" on="0"/>
      </contour>
      <contour>
        <pt x="-327" y="107" on="1"/>
        <pt x="-216" y="107" on="1"/>
        <pt x="-216" y="329" on="1"/>
        <pt x="-327" y="329" on="1"/>
        <pt x="-376" y="329" on="0"/>
        <pt x="-438" y="270" on="0"/>
        <pt x="-438" y="218" on="1"/>
        <pt x="-438" y="165" on="0"/>
        <pt x="-376" y="107" on="0"/>
      </contour>
      <contour>
        <pt x="273" y="107" on="1"/>
        <pt x="384" y="107" on="1"/>
        <pt x="384" y="329" on="1"/>
        <pt x="273" y="329" on="1"/>
        <pt x="224" y="329" on="0"/>
        <pt x="162" y="270" on="0"/>
        <pt x="162" y="218" on="1"/>
        <pt x="162" y="165" on="0"/>
        <pt x="224" y="107" on="0"/>
      </contour>
    </TTGlyph>
    <TTGlyph name="ampersand_equal.liga" xMin="-563" yMin="-10" xMax="540" yMax="740">
      <contour>
        <pt x="-357" y="-10" on="1"/>
        <pt x="-452" y="-10" on="0"/>
        <pt x="-563" y="95" on="0"/>
        <pt x="-563" y="183" on="1"/>
        <pt x="-563" y="249" on="1"/>
        <pt x="-563" y="326" on="0"/>
        <pt x="-483" y="422" on="0"/>
        <pt x="-415" y="430" on="1"/>
        <pt x="-437" y="460" on="1"/>
        <pt x="-459" y="490" on="0"/>
        <pt x="-482" y="549" on="0"/>
        <pt x="-482" y="576" on="1"/>
        <pt x="-482" y="624" on="0"/>
        <pt x="-435" y="698" on="0"/>
        <pt x="-352" y="740" on="0"/>
        <pt x="-298" y="740" on="1"/>
        <pt x="-240" y="740" on="0"/>
        <pt x="-153" y="691" on="0"/>
        <pt x="-104" y="602" on="0"/>
        <pt x="-104" y="544" on="1"/>
        <pt x="-219" y="544" on="1"/>
        <pt x="-219" y="587" on="0"/>
        <pt x="-263" y="639" on="0"/>
        <pt x="-298" y="639" on="1"/>
        <pt x="-328" y="639" on="0"/>
        <pt x="-366" y="601" on="0"/>
        <pt x="-366" y="571" on="1"/>
        <pt x="-366" y="557" on="0"/>
        <pt x="-354" y="525" on="0"/>
        <pt x="-344" y="512" on="1"/>
        <pt x="-160" y="269" on="1"/>
        <pt x="31" y="510" on="1"/>
        <pt x="540" y="510" on="1"/>
        <pt x="540" y="395" on="1"/>
        <pt x="68" y="395" on="1"/>
        <pt x="-98" y="185" on="1"/>
        <pt x="41" y="0" on="1"/>
        <pt x="-90" y="0" on="1"/>
        <pt x="-165" y="100" on="1"/>
        <pt x="-184" y="76" on="1"/>
        <pt x="-213" y="36" on="0"/>
        <pt x="-305" y="-10" on="0"/>
      </contour>
      <contour>
        <pt x="-353" y="94" on="1"/>
        <pt x="-323" y="94" on="0"/>
        <pt x="-276" y="122" on="0"/>
        <pt x="-257" y="148" on="1"/>
        <pt x="-229" y="183" on="1"/>
        <pt x="-346" y="338" on="1"/>
        <pt x="-360" y="338" on="1"/>
        <pt x="-399" y="338" on="0"/>
        <pt x="-444" y="290" on="0"/>
        <pt x="-444" y="249" on="1"/>
        <pt x="-444" y="183" on="1"/>
        <pt x="-444" y="142" on="0"/>
        <pt x="-395" y="94" on="0"/>
      </contour>
      <contour>
        <pt x="65" y="150" on="1"/>
        <pt x="65" y="265" on="1"/>
        <pt x="540" y="265" on="1"/>
        <pt x="540" y="150" on="1"/>
      </contour>
    </TTGlyph>
    <TTGlyph name="ampersand_equal.liga.cv15" xMin="-557" yMin="0" xMax="520" yMax="730">
      <contour>
        <pt x="-322" y="0" on="1"/>
        <pt x="-392" y="0" on="0"/>
        <pt x="-498" y="53" on="0"/>
        <pt x="-557" y="149" on="0"/>
        <pt x="-557" y="214" on="1"/>
        <pt x="-557" y="258" on="0"/>
        <pt x="-521" y="332" on="0"/>
        <pt x="-457" y="380" on="0"/>
        <pt x="-415" y="385" on="1"/>
        <pt x="-415" y="387" on="1"/>
        <pt x="-470" y="396" on="0"/>
        <pt x="-540" y="481" on="0"/>
        <pt x="-540" y="541" on="1"/>
        <pt x="-540" y="598" on="0"/>
        <pt x="-485" y="683" on="0"/>
        <pt x="-387" y="730" on="0"/>
        <pt x="-321" y="730" on="1"/>
        <pt x="-147" y="730" on="1"/>
        <pt x="-147" y="623" on="1"/>
        <pt x="-321" y="623" on="1"/>
        <pt x="-364" y="623" on="0"/>
        <pt x="-416" y="573" on="0"/>
        <pt x="-416" y="529" on="1"/>
        <pt x="-416" y="485" on="0"/>
        <pt x="-363" y="434" on="0"/>
        <pt x="-320" y="434" on="1"/>
        <pt x="520" y="434" on="1"/>
        <pt x="520" y="329" on="1"/>
        <pt x="-109" y="329" on="1"/>
        <pt x="-109" y="0" on="1"/>
      </contour>
      <contour>
        <pt x="-322" y="108" on="1"/>
        <pt x="-231" y="108" on="1"/>
        <pt x="-231" y="329" on="1"/>
        <pt x="-322" y="329" on="1"/>
        <pt x="-371" y="329" on="0"/>
        <pt x="-433" y="269" on="0"/>
        <pt x="-433" y="218" on="1"/>
        <pt x="-433" y="167" on="0"/>
        <pt x="-371" y="108" on="0"/>
      </contour>
      <contour>
        <pt x="45" y="88" on="1"/>
        <pt x="45" y="198" on="1"/>
        <pt x="520" y="198" on="1"/>
        <pt x="520" y="88" on="1"/>
      </contour>
    </TTGlyph>
    <TTGlyph name="anoteleia" xMin="207" yMin="265" xMax="393" yMax="450">
      <component glyphName="period" x="0" y="275" flags="0x204"/>
    </TTGlyph>
    <TTGlyph name="aogonek" xMin="58" yMin="-216" xMax="578" yMax="560">
      <contour>
        <pt x="239" y="-10" on="1"/>
        <pt x="155" y="-10" on="0"/>
        <pt x="58" y="85" on="0"/>
        <pt x="58" y="162" on="1"/>
        <pt x="58" y="242" on="0"/>
        <pt x="168" y="337" on="0"/>
        <pt x="264" y="337" on="1"/>
        <pt x="398" y="337" on="1"/>
        <pt x="398" y="376" on="1"/>
        <pt x="398" y="459" on="0"/>
        <pt x="301" y="459" on="1"/>
        <pt x="257" y="459" on="0"/>
        <pt x="205" y="425" on="0"/>
        <pt x="202" y="394" on="1"/>
        <pt x="82" y="394" on="1"/>
        <pt x="86" y="468" on="0"/>
        <pt x="203" y="560" on="0"/>
        <pt x="302" y="560" on="1"/>
        <pt x="407" y="560" on="0"/>
        <pt x="523" y="462" on="0"/>
        <pt x="523" y="373" on="1"/>
        <pt x="523" y="0" on="1"/>
        <pt x="525" y="0" on="1"/>
        <pt x="491" y="-30" on="0"/>
        <pt x="463" y="-71" on="0"/>
        <pt x="463" y="-87" on="1"/>
        <pt x="463" y="-105" on="0"/>
        <pt x="489" y="-130" on="0"/>
        <pt x="513" y="-130" on="1"/>
        <pt x="578" y="-130" on="1"/>
        <pt x="578" y="-216" on="1"/>
        <pt x="482" y="-216" on="1"/>
        <pt x="424" y="-216" on="0"/>
        <pt x="355" y="-158" on="0"/>
        <pt x="355" y="-113" on="1"/>
        <pt x="355" y="-51" on="0"/>
        <pt x="437" y="0" on="1"/>
        <pt x="401" y="0" on="1"/>
        <pt x="401" y="103" on="1"/>
        <pt x="394" y="50" on="0"/>
        <pt x="308" y="-10" on="0"/>
      </contour>
      <contour>
        <pt x="279" y="92" on="1"/>
        <pt x="334" y="92" on="0"/>
        <pt x="398" y="146" on="0"/>
        <pt x="398" y="191" on="1"/>
        <pt x="398" y="256" on="1"/>
        <pt x="270" y="256" on="1"/>
        <pt x="229" y="256" on="0"/>
        <pt x="181" y="210" on="0"/>
        <pt x="181" y="174" on="1"/>
        <pt x="181" y="137" on="0"/>
        <pt x="232" y="92" on="0"/>
      </contour>
    </TTGlyph>
    <TTGlyph name="approxequal" xMin="52" yMin="84" xMax="548" yMax="576">
      <component glyphName="asciitilde" x="0" y="106" flags="0x204"/>
      <component glyphName="asciitilde" x="0" y="-151" flags="0x4"/>
    </TTGlyph>
    <TTGlyph name="aring" xMin="58" yMin="-10" xMax="523" yMax="846">
      <component glyphName="a" x="0" y="0" flags="0x204"/>
      <component glyphName="uni030A" x="605" y="0" flags="0x4"/>
    </TTGlyph>
    <TTGlyph name="arrowboth" xMin="-92" yMin="41" xMax="692" yMax="619">
      <contour>
        <pt x="66" y="275" on="1"/>
        <pt x="92" y="268" on="0"/>
        <pt x="117" y="236" on="1"/>
        <pt x="267" y="41" on="1"/>
        <pt x="131" y="41" on="1"/>
        <pt x="-92" y="331" on="1"/>
        <pt x="131" y="619" on="1"/>
        <pt x="268" y="619" on="1"/>
        <pt x="117" y="421" on="1"/>
        <pt x="107" y="408" on="0"/>
        <pt x="80" y="388" on="0"/>
        <pt x="69" y="385" on="1"/>
        <pt x="531" y="385" on="1"/>
        <pt x="520" y="388" on="0"/>
        <pt x="494" y="408" on="0"/>
        <pt x="484" y="421" on="1"/>
        <pt x="332" y="619" on="1"/>
        <pt x="469" y="619" on="1"/>
        <pt x="692" y="331" on="1"/>
        <pt x="469" y="41" on="1"/>
        <pt x="333" y="41" on="1"/>
        <pt x="484" y="236" on="1"/>
        <pt x="508" y="268" on="0"/>
        <pt x="535" y="275" on="1"/>
      </contour>
    </TTGlyph>
    <TTGlyph name="arrowdblboth" xMin="-80" yMin="35" xMax="680" yMax="625">
      <contour>
        <pt x="151" y="35" on="1"/>
        <pt x="-80" y="330" on="1"/>
        <pt x="152" y="625" on="1"/>
        <pt x="257" y="625" on="1"/>
        <pt x="151" y="490" on="1"/>
        <pt x="449" y="490" on="1"/>
        <pt x="343" y="625" on="1"/>
        <pt x="448" y="625" on="1"/>
        <pt x="680" y="330" on="1"/>
        <pt x="449" y="35" on="1"/>
        <pt x="343" y="35" on="1"/>
        <pt x="449" y="170" on="1"/>
        <pt x="151" y="170" on="1"/>
        <pt x="257" y="35" on="1"/>
      </contour>
      <contour>
        <pt x="88" y="250" on="1"/>
        <pt x="512" y="250" on="1"/>
        <pt x="575" y="330" on="1"/>
        <pt x="512" y="410" on="1"/>
        <pt x="88" y="410" on="1"/>
        <pt x="25" y="330" on="1"/>
      </contour>
    </TTGlyph>
    <TTGlyph name="arrowdbldown" xMin="-10" yMin="-190" xMax="610" yMax="829">
      <contour>
        <pt x="365" y="829" on="1"/>
        <pt x="415" y="829" on="1"/>
        <pt x="415" y="-76" on="1"/>
        <pt x="610" y="113" on="1"/>
        <pt x="610" y="48" on="1"/>
        <pt x="365" y="-190" on="1"/>
      </contour>
      <contour>
        <pt x="185" y="829" on="1"/>
        <pt x="235" y="829" on="1"/>
        <pt x="235" y="-190" on="1"/>
        <pt x="-10" y="48" on="1"/>
        <pt x="-10" y="113" on="1"/>
        <pt x="185" y="-76" on="1"/>
      </contour>
    </TTGlyph>
    <TTGlyph name="arrowdblleft" xMin="0" yMin="35" xMax="600" yMax="625">
      <contour>
        <pt x="337" y="35" on="1"/>
        <pt x="231" y="35" on="1"/>
        <pt x="0" y="330" on="1"/>
        <pt x="232" y="625" on="1"/>
        <pt x="337" y="625" on="1"/>
        <pt x="231" y="490" on="1"/>
        <pt x="600" y="490" on="1"/>
        <pt x="600" y="410" on="1"/>
        <pt x="168" y="410" on="1"/>
        <pt x="105" y="330" on="1"/>
        <pt x="168" y="250" on="1"/>
        <pt x="600" y="250" on="1"/>
        <pt x="600" y="170" on="1"/>
        <pt x="231" y="170" on="1"/>
      </contour>
    </TTGlyph>
    <TTGlyph name="arrowdblright" xMin="0" yMin="35" xMax="600" yMax="625">
      <contour>
        <pt x="263" y="35" on="1"/>
        <pt x="369" y="170" on="1"/>
        <pt x="0" y="170" on="1"/>
        <pt x="0" y="250" on="1"/>
        <pt x="432" y="250" on="1"/>
        <pt x="495" y="330" on="1"/>
        <pt x="432" y="410" on="1"/>
        <pt x="0" y="410" on="1"/>
        <pt x="0" y="490" on="1"/>
        <pt x="369" y="490" on="1"/>
        <pt x="263" y="625" on="1"/>
        <pt x="368" y="625" on="1"/>
        <pt x="600" y="330" on="1"/>
        <pt x="369" y="35" on="1"/>
      </contour>
    </TTGlyph>
    <TTGlyph name="arrowdblup" xMin="-10" yMin="-180" xMax="610" yMax="839">
      <contour>
        <pt x="365" y="-180" on="1"/>
        <pt x="365" y="839" on="1"/>
        <pt x="610" y="601" on="1"/>
        <pt x="610" y="536" on="1"/>
        <pt x="415" y="725" on="1"/>
        <pt x="415" y="-180" on="1"/>
      </contour>
      <contour>
        <pt x="185" y="-180" on="1"/>
        <pt x="185" y="725" on="1"/>
        <pt x="-10" y="536" on="1"/>
        <pt x="-10" y="601" on="1"/>
        <pt x="235" y="839" on="1"/>
        <pt x="235" y="-180" on="1"/>
      </contour>
    </TTGlyph>
    <TTGlyph name="arrowdown" xMin="31" yMin="-10" xMax="569" yMax="730">
      <contour>
        <pt x="569" y="365" on="1"/>
        <pt x="569" y="223" on="1"/>
        <pt x="299" y="-10" on="1"/>
        <pt x="31" y="224" on="1"/>
        <pt x="31" y="369" on="1"/>
        <pt x="205" y="216" on="1"/>
        <pt x="219" y="204" on="0"/>
        <pt x="238" y="175" on="0"/>
        <pt x="241" y="165" on="1"/>
        <pt x="241" y="730" on="1"/>
        <pt x="360" y="730" on="1"/>
        <pt x="360" y="163" on="1"/>
        <pt x="363" y="173" on="0"/>
        <pt x="384" y="203" on="0"/>
        <pt x="398" y="216" on="1"/>
      </contour>
    </TTGlyph>
    <TTGlyph name="arrowleft" xMin="10" yMin="41" xMax="580" yMax="619">
      <contour>
        <pt x="372" y="41" on="1"/>
        <pt x="236" y="41" on="1"/>
        <pt x="10" y="331" on="1"/>
        <pt x="235" y="619" on="1"/>
        <pt x="373" y="619" on="1"/>
        <pt x="219" y="421" on="1"/>
        <pt x="209" y="408" on="0"/>
        <pt x="182" y="388" on="0"/>
        <pt x="172" y="385" on="1"/>
        <pt x="580" y="385" on="1"/>
        <pt x="580" y="275" on="1"/>
        <pt x="168" y="275" on="1"/>
        <pt x="195" y="268" on="0"/>
        <pt x="219" y="236" on="1"/>
      </contour>
    </TTGlyph>
    <TTGlyph name="arrowright" xMin="20" yMin="41" xMax="590" yMax="619">
      <contour>
        <pt x="228" y="41" on="1"/>
        <pt x="381" y="236" on="1"/>
        <pt x="405" y="268" on="0"/>
        <pt x="432" y="275" on="1"/>
        <pt x="20" y="275" on="1"/>
        <pt x="20" y="385" on="1"/>
        <pt x="428" y="385" on="1"/>
        <pt x="418" y="388" on="0"/>
        <pt x="391" y="408" on="0"/>
        <pt x="381" y="421" on="1"/>
        <pt x="227" y="619" on="1"/>
        <pt x="365" y="619" on="1"/>
        <pt x="590" y="331" on="1"/>
        <pt x="364" y="41" on="1"/>
      </contour>
    </TTGlyph>
    <TTGlyph name="arrowup" xMin="31" yMin="0" xMax="569" yMax="740">
      <contour>
        <pt x="569" y="365" on="1"/>
        <pt x="398" y="514" on="1"/>
        <pt x="384" y="527" on="0"/>
        <pt x="363" y="557" on="0"/>
        <pt x="360" y="567" on="1"/>
        <pt x="360" y="0" on="1"/>
        <pt x="241" y="0" on="1"/>
        <pt x="241" y="565" on="1"/>
        <pt x="238" y="555" on="0"/>
        <pt x="219" y="526" on="0"/>
        <pt x="205" y="514" on="1"/>
        <pt x="31" y="361" on="1"/>
        <pt x="31" y="506" on="1"/>
        <pt x="299" y="740" on="1"/>
        <pt x="569" y="507" on="1"/>
      </contour>
    </TTGlyph>
    <TTGlyph name="arrowupdn" xMin="31" yMin="-170" xMax="569" yMax="900">
      <contour>
        <pt x="31" y="64" on="1"/>
        <pt x="31" y="209" on="1"/>
        <pt x="205" y="56" on="1"/>
        <pt x="219" y="44" on="0"/>
        <pt x="238" y="15" on="0"/>
        <pt x="241" y="5" on="1"/>
        <pt x="241" y="725" on="1"/>
        <pt x="238" y="715" on="0"/>
        <pt x="219" y="686" on="0"/>
        <pt x="205" y="674" on="1"/>
        <pt x="31" y="521" on="1"/>
        <pt x="31" y="666" on="1"/>
        <pt x="299" y="900" on="1"/>
        <pt x="569" y="667" on="1"/>
        <pt x="569" y="525" on="1"/>
        <pt x="398" y="674" on="1"/>
        <pt x="384" y="687" on="0"/>
        <pt x="363" y="717" on="0"/>
        <pt x="360" y="727" on="1"/>
        <pt x="360" y="3" on="1"/>
        <pt x="363" y="13" on="0"/>
        <pt x="384" y="43" on="0"/>
        <pt x="398" y="56" on="1"/>
        <pt x="569" y="205" on="1"/>
        <pt x="569" y="63" on="1"/>
        <pt x="299" y="-170" on="1"/>
      </contour>
    </TTGlyph>
    <TTGlyph name="asciicircum" xMin="68" yMin="340" xMax="532" yMax="730">
      <contour>
        <pt x="68" y="340" on="1"/>
        <pt x="241" y="730" on="1"/>
        <pt x="361" y="730" on="1"/>
        <pt x="532" y="340" on="1"/>
        <pt x="415" y="340" on="1"/>
        <pt x="323" y="570" on="1"/>
        <pt x="315" y="591" on="0"/>
        <pt x="304" y="630" on="0"/>
        <pt x="302" y="640" on="1"/>
        <pt x="299" y="630" on="0"/>
        <pt x="287" y="591" on="0"/>
        <pt x="279" y="570" on="1"/>
        <pt x="184" y="340" on="1"/>
      </contour>
    </TTGlyph>
    <TTGlyph name="asciicircum_equal.liga" xMin="-464" yMin="150" xMax="415" yMax="760">
      <contour>
        <pt x="-464" y="395" on="1"/>
        <pt x="-258" y="760" on="1"/>
        <pt x="-153" y="760" on="1"/>
        <pt x="-11" y="510" on="1"/>
        <pt x="415" y="510" on="1"/>
        <pt x="415" y="395" on="1"/>
        <pt x="-70" y="395" on="1"/>
        <pt x="-183" y="608" on="1"/>
        <pt x="-191" y="624" on="0"/>
        <pt x="-202" y="653" on="0"/>
        <pt x="-204" y="661" on="1"/>
        <pt x="-206" y="654" on="0"/>
        <pt x="-218" y="625" on="0"/>
        <pt x="-226" y="608" on="1"/>
        <pt x="-342" y="395" on="1"/>
      </contour>
      <contour>
        <pt x="-70" y="150" on="1"/>
        <pt x="-70" y="265" on="1"/>
        <pt x="415" y="265" on="1"/>
        <pt x="415" y="150" on="1"/>
      </contour>
    </TTGlyph>
    <TTGlyph name="asciitilde" xMin="52" yMin="235" xMax="548" yMax="470">
      <contour>
        <pt x="52" y="255" on="1"/>
        <pt x="52" y="334" on="1"/>
        <pt x="52" y="395" on="0"/>
        <pt x="132" y="470" on="0"/>
        <pt x="197" y="470" on="1"/>
        <pt x="238" y="470" on="0"/>
        <pt x="292" y="442" on="0"/>
        <pt x="327" y="402" on="0"/>
        <pt x="355" y="361" on="0"/>
        <pt x="383" y="334" on="0"/>
        <pt x="404" y="334" on="1"/>
        <pt x="442" y="334" on="0"/>
        <pt x="442" y="377" on="1"/>
        <pt x="442" y="450" on="1"/>
        <pt x="548" y="450" on="1"/>
        <pt x="548" y="371" on="1"/>
        <pt x="548" y="310" on="0"/>
        <pt x="469" y="235" on="0"/>
        <pt x="403" y="235" on="1"/>
        <pt x="362" y="235" on="0"/>
        <pt x="308" y="263" on="0"/>
        <pt x="273" y="303" on="0"/>
        <pt x="245" y="344" on="0"/>
        <pt x="217" y="371" on="0"/>
        <pt x="196" y="371" on="1"/>
        <pt x="158" y="371" on="0"/>
        <pt x="158" y="328" on="1"/>
        <pt x="158" y="255" on="1"/>
      </contour>
    </TTGlyph>
    <TTGlyph name="asciitilde_asciitilde.liga" xMin="-419" yMin="221" xMax="439" yMax="441">
      <contour>
        <pt x="-83" y="221" on="1"/>
        <pt x="-120" y="221" on="0"/>
        <pt x="-168" y="246" on="0"/>
        <pt x="-201" y="283" on="0"/>
        <pt x="-227" y="320" on="0"/>
        <pt x="-253" y="345" on="0"/>
        <pt x="-271" y="345" on="1"/>
        <pt x="-291" y="345" on="0"/>
        <pt x="-314" y="321" on="0"/>
        <pt x="-314" y="300" on="1"/>
        <pt x="-314" y="262" on="1"/>
        <pt x="-419" y="262" on="1"/>
        <pt x="-419" y="308" on="1"/>
        <pt x="-419" y="368" on="0"/>
        <pt x="-343" y="441" on="0"/>
        <pt x="-280" y="441" on="1"/>
        <pt x="-240" y="441" on="0"/>
        <pt x="-188" y="416" on="0"/>
        <pt x="-153" y="379" on="0"/>
        <pt x="-127" y="342" on="0"/>
        <pt x="-102" y="317" on="0"/>
        <pt x="-84" y="317" on="1"/>
        <pt x="-67" y="317" on="0"/>
        <pt x="-41" y="342" on="0"/>
        <pt x="-17" y="379" on="0"/>
        <pt x="15" y="416" on="0"/>
        <pt x="63" y="441" on="0"/>
        <pt x="100" y="441" on="1"/>
        <pt x="137" y="441" on="0"/>
        <pt x="185" y="416" on="0"/>
        <pt x="218" y="379" on="0"/>
        <pt x="244" y="342" on="0"/>
        <pt x="271" y="317" on="0"/>
        <pt x="290" y="317" on="1"/>
        <pt x="310" y="317" on="0"/>
        <pt x="333" y="341" on="0"/>
        <pt x="333" y="362" on="1"/>
        <pt x="333" y="400" on="1"/>
        <pt x="439" y="400" on="1"/>
        <pt x="439" y="354" on="1"/>
        <pt x="439" y="295" on="0"/>
        <pt x="362" y="221" on="0"/>
        <pt x="300" y="221" on="1"/>
        <pt x="261" y="221" on="0"/>
        <pt x="208" y="246" on="0"/>
        <pt x="172" y="283" on="0"/>
        <pt x="145" y="320" on="0"/>
        <pt x="118" y="345" on="0"/>
        <pt x="101" y="345" on="1"/>
        <pt x="83" y="345" on="0"/>
        <pt x="58" y="320" on="0"/>
        <pt x="34" y="283" on="0"/>
        <pt x="1" y="246" on="0"/>
        <pt x="-47" y="221" on="0"/>
      </contour>
    </TTGlyph>
    <TTGlyph name="asciitilde_asciitilde_greater.liga" xMin="-1136" yMin="35" xMax="528" yMax="625">
      <contour>
        <pt x="156" y="35" on="1"/>
        <pt x="385" y="330" on="1"/>
        <pt x="365" y="338" on="1"/>
        <pt x="342" y="338" on="0"/>
        <pt x="310" y="305" on="0"/>
        <pt x="275" y="262" on="0"/>
        <pt x="220" y="230" on="0"/>
        <pt x="174" y="230" on="1"/>
        <pt x="138" y="230" on="0"/>
        <pt x="89" y="252" on="0"/>
        <pt x="55" y="286" on="0"/>
        <pt x="29" y="319" on="0"/>
        <pt x="1" y="342" on="0"/>
        <pt x="-17" y="342" on="1"/>
        <pt x="-35" y="342" on="0"/>
        <pt x="-64" y="319" on="0"/>
        <pt x="-92" y="286" on="0"/>
        <pt x="-127" y="252" on="0"/>
        <pt x="-177" y="230" on="0"/>
        <pt x="-214" y="230" on="1"/>
        <pt x="-251" y="230" on="0"/>
        <pt x="-301" y="252" on="0"/>
        <pt x="-336" y="286" on="0"/>
        <pt x="-364" y="319" on="0"/>
        <pt x="-393" y="342" on="0"/>
        <pt x="-411" y="342" on="1"/>
        <pt x="-434" y="342" on="0"/>
        <pt x="-468" y="308" on="0"/>
        <pt x="-507" y="264" on="0"/>
        <pt x="-564" y="230" on="0"/>
        <pt x="-610" y="230" on="1"/>
        <pt x="-656" y="230" on="0"/>
        <pt x="-713" y="264" on="0"/>
        <pt x="-753" y="308" on="0"/>
        <pt x="-787" y="342" on="0"/>
        <pt x="-810" y="342" on="1"/>
        <pt x="-833" y="342" on="0"/>
        <pt x="-866" y="308" on="0"/>
        <pt x="-903" y="264" on="0"/>
        <pt x="-957" y="230" on="0"/>
        <pt x="-1001" y="230" on="1"/>
        <pt x="-1062" y="230" on="0"/>
        <pt x="-1136" y="300" on="0"/>
        <pt x="-1136" y="357" on="1"/>
        <pt x="-1136" y="400" on="1"/>
        <pt x="-1037" y="400" on="1"/>
        <pt x="-1037" y="364" on="1"/>
        <pt x="-1037" y="319" on="0"/>
        <pt x="-994" y="319" on="1"/>
        <pt x="-976" y="319" on="0"/>
        <pt x="-950" y="342" on="0"/>
        <pt x="-926" y="375" on="0"/>
        <pt x="-894" y="409" on="0"/>
        <pt x="-846" y="432" on="0"/>
        <pt x="-809" y="432" on="1"/>
        <pt x="-764" y="432" on="0"/>
        <pt x="-706" y="398" on="0"/>
        <pt x="-668" y="353" on="0"/>
        <pt x="-633" y="319" on="0"/>
        <pt x="-610" y="319" on="1"/>
        <pt x="-588" y="319" on="0"/>
        <pt x="-552" y="353" on="0"/>
        <pt x="-511" y="398" on="0"/>
        <pt x="-455" y="432" on="0"/>
        <pt x="-411" y="432" on="1"/>
        <pt x="-374" y="432" on="0"/>
        <pt x="-324" y="409" on="0"/>
        <pt x="-289" y="375" on="0"/>
        <pt x="-261" y="342" on="0"/>
        <pt x="-232" y="319" on="0"/>
        <pt x="-214" y="319" on="1"/>
        <pt x="-191" y="319" on="0"/>
        <pt x="-156" y="353" on="0"/>
        <pt x="-116" y="398" on="0"/>
        <pt x="-60" y="432" on="0"/>
        <pt x="-17" y="432" on="1"/>
        <pt x="20" y="432" on="0"/>
        <pt x="69" y="409" on="0"/>
        <pt x="102" y="375" on="0"/>
        <pt x="129" y="342" on="0"/>
        <pt x="156" y="319" on="0"/>
        <pt x="174" y="319" on="1"/>
        <pt x="193" y="319" on="0"/>
        <pt x="222" y="342" on="0"/>
        <pt x="251" y="376" on="0"/>
        <pt x="287" y="409" on="0"/>
        <pt x="313" y="419" on="1"/>
        <pt x="156" y="625" on="1"/>
        <pt x="303" y="625" on="1"/>
        <pt x="528" y="330" on="1"/>
        <pt x="302" y="35" on="1"/>
      </contour>
    </TTGlyph>
    <TTGlyph name="asciitilde_at.liga" xMin="-548" yMin="-180" xMax="572" yMax="740">
      <contour>
        <pt x="-104" y="235" on="1"/>
        <pt x="-154" y="235" on="0"/>
        <pt x="-224" y="263" on="0"/>
        <pt x="-274" y="303" on="0"/>
        <pt x="-315" y="344" on="0"/>
        <pt x="-355" y="371" on="0"/>
        <pt x="-381" y="371" on="1"/>
        <pt x="-408" y="371" on="0"/>
        <pt x="-442" y="337" on="0"/>
        <pt x="-442" y="312" on="1"/>
        <pt x="-442" y="255" on="1"/>
        <pt x="-548" y="255" on="1"/>
        <pt x="-548" y="318" on="1"/>
        <pt x="-548" y="361" on="0"/>
        <pt x="-504" y="430" on="0"/>
        <pt x="-429" y="470" on="0"/>
        <pt x="-382" y="470" on="1"/>
        <pt x="-337" y="470" on="0"/>
        <pt x="-277" y="442" on="0"/>
        <pt x="-232" y="402" on="0"/>
        <pt x="-190" y="361" on="0"/>
        <pt x="-138" y="334" on="0"/>
        <pt x="-101" y="334" on="1"/>
        <pt x="-51" y="334" on="0"/>
        <pt x="22" y="385" on="0"/>
        <pt x="33" y="429" on="1"/>
        <pt x="33" y="450" on="1"/>
        <pt x="33" y="540" on="0"/>
        <pt x="101" y="670" on="0"/>
        <pt x="227" y="740" on="0"/>
        <pt x="315" y="740" on="1"/>
        <pt x="395" y="740" on="0"/>
        <pt x="510" y="679" on="0"/>
        <pt x="572" y="570" on="0"/>
        <pt x="572" y="498" on="1"/>
        <pt x="572" y="228" on="1"/>
        <pt x="572" y="148" on="0"/>
        <pt x="479" y="55" on="0"/>
        <pt x="400" y="55" on="1"/>
        <pt x="322" y="55" on="0"/>
        <pt x="231" y="146" on="0"/>
        <pt x="231" y="223" on="1"/>
        <pt x="231" y="330" on="1"/>
        <pt x="231" y="405" on="0"/>
        <pt x="301" y="491" on="0"/>
        <pt x="362" y="491" on="1"/>
        <pt x="403" y="491" on="0"/>
        <pt x="457" y="457" on="0"/>
        <pt x="466" y="427" on="1"/>
        <pt x="468" y="427" on="1"/>
        <pt x="468" y="498" on="1"/>
        <pt x="468" y="571" on="0"/>
        <pt x="388" y="650" on="0"/>
        <pt x="311" y="650" on="1"/>
        <pt x="229" y="650" on="0"/>
        <pt x="137" y="545" on="0"/>
        <pt x="137" y="450" on="1"/>
        <pt x="137" y="111" on="1"/>
        <pt x="137" y="18" on="0"/>
        <pt x="236" y="-85" on="0"/>
        <pt x="325" y="-85" on="1"/>
        <pt x="435" y="-85" on="1"/>
        <pt x="435" y="-180" on="1"/>
        <pt x="325" y="-180" on="1"/>
        <pt x="235" y="-180" on="0"/>
        <pt x="104" y="-109" on="0"/>
        <pt x="33" y="21" on="0"/>
        <pt x="33" y="111" on="1"/>
        <pt x="33" y="288" on="1"/>
        <pt x="7" y="263" on="0"/>
        <pt x="-63" y="235" on="0"/>
      </contour>
      <contour>
        <pt x="400" y="138" on="1"/>
        <pt x="433" y="138" on="0"/>
        <pt x="468" y="183" on="0"/>
        <pt x="468" y="223" on="1"/>
        <pt x="468" y="330" on="1"/>
        <pt x="468" y="371" on="0"/>
        <pt x="433" y="415" on="0"/>
        <pt x="400" y="415" on="1"/>
        <pt x="367" y="415" on="0"/>
        <pt x="332" y="370" on="0"/>
        <pt x="332" y="330" on="1"/>
        <pt x="332" y="223" on="1"/>
        <pt x="332" y="183" on="0"/>
        <pt x="367" y="138" on="0"/>
      </contour>
    </TTGlyph>
    <TTGlyph name="asciitilde_greater.liga" xMin="-524" yMin="35" xMax="528" yMax="625">
      <contour>
        <pt x="156" y="35" on="1"/>
        <pt x="323" y="253" on="1"/>
        <pt x="293" y="261" on="0"/>
        <pt x="256" y="291" on="0"/>
        <pt x="229" y="323" on="0"/>
        <pt x="203" y="345" on="0"/>
        <pt x="184" y="345" on="1"/>
        <pt x="166" y="345" on="0"/>
        <pt x="140" y="320" on="0"/>
        <pt x="115" y="283" on="0"/>
        <pt x="82" y="246" on="0"/>
        <pt x="33" y="221" on="0"/>
        <pt x="-4" y="221" on="1"/>
        <pt x="-40" y="221" on="0"/>
        <pt x="-89" y="246" on="0"/>
        <pt x="-123" y="283" on="0"/>
        <pt x="-149" y="320" on="0"/>
        <pt x="-175" y="345" on="0"/>
        <pt x="-192" y="345" on="1"/>
        <pt x="-210" y="345" on="0"/>
        <pt x="-236" y="320" on="0"/>
        <pt x="-262" y="283" on="0"/>
        <pt x="-296" y="246" on="0"/>
        <pt x="-346" y="221" on="0"/>
        <pt x="-382" y="221" on="1"/>
        <pt x="-444" y="221" on="0"/>
        <pt x="-524" y="294" on="0"/>
        <pt x="-524" y="354" on="1"/>
        <pt x="-524" y="400" on="1"/>
        <pt x="-419" y="400" on="1"/>
        <pt x="-419" y="362" on="1"/>
        <pt x="-419" y="316" on="0"/>
        <pt x="-379" y="316" on="1"/>
        <pt x="-361" y="316" on="0"/>
        <pt x="-334" y="341" on="0"/>
        <pt x="-309" y="378" on="0"/>
        <pt x="-276" y="415" on="0"/>
        <pt x="-228" y="440" on="0"/>
        <pt x="-191" y="440" on="1"/>
        <pt x="-155" y="440" on="0"/>
        <pt x="-106" y="415" on="0"/>
        <pt x="-73" y="378" on="0"/>
        <pt x="-47" y="341" on="0"/>
        <pt x="-21" y="316" on="0"/>
        <pt x="-4" y="316" on="1"/>
        <pt x="13" y="316" on="0"/>
        <pt x="39" y="341" on="0"/>
        <pt x="65" y="378" on="0"/>
        <pt x="98" y="415" on="0"/>
        <pt x="147" y="440" on="0"/>
        <pt x="184" y="440" on="1"/>
        <pt x="219" y="440" on="0"/>
        <pt x="263" y="420" on="0"/>
        <pt x="294" y="391" on="0"/>
        <pt x="319" y="362" on="0"/>
        <pt x="349" y="343" on="0"/>
        <pt x="372" y="344" on="1"/>
        <pt x="156" y="625" on="1"/>
        <pt x="303" y="625" on="1"/>
        <pt x="528" y="330" on="1"/>
        <pt x="302" y="35" on="1"/>
      </contour>
    </TTGlyph>
    <TTGlyph name="asciitilde_hyphen.liga" xMin="-504" yMin="205" xMax="506" yMax="455">
      <contour>
        <pt x="-80" y="205" on="1"/>
        <pt x="-125" y="205" on="0"/>
        <pt x="-187" y="236" on="0"/>
        <pt x="-232" y="281" on="0"/>
        <pt x="-270" y="326" on="0"/>
        <pt x="-310" y="356" on="0"/>
        <pt x="-337" y="356" on="1"/>
        <pt x="-365" y="356" on="0"/>
        <pt x="-398" y="323" on="0"/>
        <pt x="-398" y="295" on="1"/>
        <pt x="-398" y="235" on="1"/>
        <pt x="-504" y="235" on="1"/>
        <pt x="-504" y="304" on="1"/>
        <pt x="-504" y="347" on="0"/>
        <pt x="-462" y="415" on="0"/>
        <pt x="-388" y="455" on="0"/>
        <pt x="-340" y="455" on="1"/>
        <pt x="-294" y="455" on="0"/>
        <pt x="-232" y="424" on="0"/>
        <pt x="-187" y="379" on="0"/>
        <pt x="-149" y="334" on="0"/>
        <pt x="-110" y="304" on="0"/>
        <pt x="-83" y="304" on="1"/>
        <pt x="-54" y="304" on="0"/>
        <pt x="-21" y="340" on="0"/>
        <pt x="-21" y="371" on="1"/>
        <pt x="-21" y="388" on="1"/>
        <pt x="506" y="388" on="1"/>
        <pt x="506" y="272" on="1"/>
        <pt x="57" y="272" on="1"/>
        <pt x="36" y="241" on="0"/>
        <pt x="-35" y="205" on="0"/>
      </contour>
    </TTGlyph>
    <TTGlyph name="asterisk" xMin="32" yMin="98" xMax="568" yMax="620">
      <contour>
        <pt x="183" y="98" on="1"/>
        <pt x="100" y="157" on="1"/>
        <pt x="170" y="256" on="1"/>
        <pt x="184" y="276" on="0"/>
        <pt x="219" y="313" on="0"/>
        <pt x="239" y="330" on="1"/>
        <pt x="186" y="335" on="0"/>
        <pt x="145" y="350" on="1"/>
        <pt x="32" y="392" on="1"/>
        <pt x="67" y="487" on="1"/>
        <pt x="180" y="446" on="1"/>
        <pt x="220" y="431" on="0"/>
        <pt x="263" y="403" on="1"/>
        <pt x="257" y="426" on="0"/>
        <pt x="249" y="473" on="0"/>
        <pt x="249" y="499" on="1"/>
        <pt x="249" y="620" on="1"/>
        <pt x="351" y="620" on="1"/>
        <pt x="351" y="499" on="1"/>
        <pt x="351" y="473" on="0"/>
        <pt x="343" y="426" on="0"/>
        <pt x="336" y="403" on="1"/>
        <pt x="380" y="431" on="0"/>
        <pt x="420" y="446" on="1"/>
        <pt x="533" y="487" on="1"/>
        <pt x="568" y="392" on="1"/>
        <pt x="455" y="350" on="1"/>
        <pt x="414" y="335" on="0"/>
        <pt x="361" y="330" on="1"/>
        <pt x="381" y="313" on="0"/>
        <pt x="416" y="276" on="0"/>
        <pt x="430" y="256" on="1"/>
        <pt x="500" y="157" on="1"/>
        <pt x="417" y="98" on="1"/>
        <pt x="346" y="197" on="1"/>
        <pt x="332" y="217" on="0"/>
        <pt x="309" y="262" on="0"/>
        <pt x="300" y="286" on="1"/>
        <pt x="291" y="263" on="0"/>
        <pt x="268" y="217" on="0"/>
        <pt x="254" y="197" on="1"/>
      </contour>
    </TTGlyph>
    <TTGlyph name="asterisk_asterisk_asterisk.liga" xMin="-1128" yMin="98" xMax="527" yMax="780">
      <component glyphName="asterisk" x="-1160" y="0" flags="0x4"/>
      <component glyphName="asterisk" x="-600" y="160" flags="0x4"/>
      <component glyphName="asterisk" x="-41" y="0" flags="0x4"/>
    </TTGlyph>
    <TTGlyph name="asterisk_greater.liga" xMin="-543" yMin="56" xMax="536" yMax="620">
      <component glyphName="greater" x="12" y="0" flags="0x4"/>
      <component glyphName="asterisk" x="-575" y="0" flags="0x4"/>
    </TTGlyph>
    <TTGlyph name="asterisk_slash.liga" xMin="-568" yMin="-110" xMax="540" yMax="830">
      <component glyphName="asterisk" x="-600" y="-80" flags="0x4"/>
      <component glyphName="slash" x="0" y="0" flags="0x204"/>
    </TTGlyph>
    <TTGlyph name="at" xMin="33" yMin="-180" xMax="572" yMax="740">
      <contour>
        <pt x="325" y="-180" on="1"/>
        <pt x="235" y="-180" on="0"/>
        <pt x="104" y="-109" on="0"/>
        <pt x="33" y="21" on="0"/>
        <pt x="33" y="111" on="1"/>
        <pt x="33" y="450" on="1"/>
        <pt x="33" y="540" on="0"/>
        <pt x="101" y="670" on="0"/>
        <pt x="227" y="740" on="0"/>
        <pt x="315" y="740" on="1"/>
        <pt x="395" y="740" on="0"/>
        <pt x="510" y="679" on="0"/>
        <pt x="572" y="570" on="0"/>
        <pt x="572" y="498" on="1"/>
        <pt x="572" y="228" on="1"/>
        <pt x="572" y="148" on="0"/>
        <pt x="479" y="55" on="0"/>
        <pt x="400" y="55" on="1"/>
        <pt x="322" y="55" on="0"/>
        <pt x="231" y="146" on="0"/>
        <pt x="231" y="223" on="1"/>
        <pt x="231" y="330" on="1"/>
        <pt x="231" y="405" on="0"/>
        <pt x="301" y="491" on="0"/>
        <pt x="362" y="491" on="1"/>
        <pt x="403" y="491" on="0"/>
        <pt x="457" y="457" on="0"/>
        <pt x="466" y="427" on="1"/>
        <pt x="468" y="427" on="1"/>
        <pt x="468" y="498" on="1"/>
        <pt x="468" y="571" on="0"/>
        <pt x="388" y="650" on="0"/>
        <pt x="311" y="650" on="1"/>
        <pt x="229" y="650" on="0"/>
        <pt x="137" y="545" on="0"/>
        <pt x="137" y="450" on="1"/>
        <pt x="137" y="111" on="1"/>
        <pt x="137" y="18" on="0"/>
        <pt x="236" y="-85" on="0"/>
        <pt x="325" y="-85" on="1"/>
        <pt x="435" y="-85" on="1"/>
        <pt x="435" y="-180" on="1"/>
      </contour>
      <contour>
        <pt x="400" y="138" on="1"/>
        <pt x="433" y="138" on="0"/>
        <pt x="468" y="183" on="0"/>
        <pt x="468" y="223" on="1"/>
        <pt x="468" y="330" on="1"/>
        <pt x="468" y="371" on="0"/>
        <pt x="433" y="415" on="0"/>
        <pt x="400" y="415" on="1"/>
        <pt x="367" y="415" on="0"/>
        <pt x="332" y="370" on="0"/>
        <pt x="332" y="330" on="1"/>
        <pt x="332" y="223" on="1"/>
        <pt x="332" y="183" on="0"/>
        <pt x="367" y="138" on="0"/>
      </contour>
    </TTGlyph>
    <TTGlyph name="at_underscore.liga" xMin="-567" yMin="-138" xMax="540" yMax="740">
      <contour>
        <pt x="-275" y="-138" on="1"/>
        <pt x="-365" y="-138" on="0"/>
        <pt x="-496" y="-67" on="0"/>
        <pt x="-567" y="63" on="0"/>
        <pt x="-567" y="153" on="1"/>
        <pt x="-567" y="450" on="1"/>
        <pt x="-567" y="540" on="0"/>
        <pt x="-499" y="670" on="0"/>
        <pt x="-373" y="740" on="0"/>
        <pt x="-285" y="740" on="1"/>
        <pt x="-165" y="740" on="0"/>
        <pt x="-28" y="619" on="0"/>
        <pt x="-28" y="512" on="1"/>
        <pt x="-28" y="266" on="1"/>
        <pt x="-28" y="186" on="0"/>
        <pt x="-121" y="93" on="0"/>
        <pt x="-200" y="93" on="1"/>
        <pt x="-278" y="93" on="0"/>
        <pt x="-369" y="184" on="0"/>
        <pt x="-369" y="262" on="1"/>
        <pt x="-369" y="368" on="1"/>
        <pt x="-369" y="443" on="0"/>
        <pt x="-299" y="529" on="0"/>
        <pt x="-238" y="529" on="1"/>
        <pt x="-197" y="529" on="0"/>
        <pt x="-143" y="495" on="0"/>
        <pt x="-134" y="466" on="1"/>
        <pt x="-132" y="466" on="1"/>
        <pt x="-132" y="516" on="1"/>
        <pt x="-132" y="579" on="0"/>
        <pt x="-216" y="650" on="0"/>
        <pt x="-289" y="650" on="1"/>
        <pt x="-371" y="650" on="0"/>
        <pt x="-463" y="545" on="0"/>
        <pt x="-463" y="450" on="1"/>
        <pt x="-463" y="153" on="1"/>
        <pt x="-463" y="69" on="0"/>
        <pt x="-364" y="-25" on="0"/>
        <pt x="-275" y="-25" on="1"/>
        <pt x="540" y="-25" on="1"/>
        <pt x="540" y="-138" on="1"/>
      </contour>
      <contour>
        <pt x="-200" y="177" on="1"/>
        <pt x="-132" y="177" on="0"/>
        <pt x="-132" y="262" on="1"/>
        <pt x="-132" y="369" on="1"/>
        <pt x="-132" y="453" on="0"/>
        <pt x="-200" y="453" on="1"/>
        <pt x="-268" y="453" on="0"/>
        <pt x="-268" y="368" on="1"/>
        <pt x="-268" y="262" on="1"/>
        <pt x="-268" y="177" on="0"/>
      </contour>
    </TTGlyph>
    <TTGlyph name="atilde" xMin="58" yMin="-10" xMax="523" yMax="789">
      <component glyphName="a" x="0" y="0" flags="0x204"/>
      <component glyphName="tildecomb" x="605" y="0" flags="0x4"/>
    </TTGlyph>
    <TTGlyph name="b" xMin="77" yMin="-10" xMax="529" yMax="730">
      <contour>
        <pt x="350" y="-10" on="1"/>
        <pt x="292" y="-10" on="0"/>
        <pt x="214" y="48" on="0"/>
        <pt x="199" y="100" on="1"/>
        <pt x="199" y="0" on="1"/>
        <pt x="77" y="0" on="1"/>
        <pt x="77" y="730" on="1"/>
        <pt x="202" y="730" on="1"/>
        <pt x="202" y="576" on="1"/>
        <pt x="198" y="450" on="1"/>
        <pt x="214" y="502" on="0"/>
        <pt x="293" y="560" on="0"/>
        <pt x="350" y="560" on="1"/>
        <pt x="431" y="560" on="0"/>
        <pt x="529" y="446" on="0"/>
        <pt x="529" y="349" on="1"/>
        <pt x="529" y="200" on="1"/>
        <pt x="529" y="104" on="0"/>
        <pt x="430" y="-10" on="0"/>
      </contour>
      <contour>
        <pt x="303" y="98" on="1"/>
        <pt x="351" y="98" on="0"/>
        <pt x="404" y="150" on="0"/>
        <pt x="404" y="204" on="1"/>
        <pt x="404" y="346" on="1"/>
        <pt x="404" y="400" on="0"/>
        <pt x="351" y="452" on="0"/>
        <pt x="303" y="452" on="1"/>
        <pt x="255" y="452" on="0"/>
        <pt x="202" y="394" on="0"/>
        <pt x="202" y="341" on="1"/>
        <pt x="202" y="209" on="1"/>
        <pt x="202" y="156" on="0"/>
        <pt x="255" y="98" on="0"/>
      </contour>
    </TTGlyph>
    <TTGlyph name="backslash" xMin="60" yMin="-110" xMax="539" yMax="830">
      <contour>
        <pt x="409" y="-110" on="1"/>
        <pt x="60" y="830" on="1"/>
        <pt x="190" y="830" on="1"/>
        <pt x="539" y="-110" on="1"/>
      </contour>
    </TTGlyph>
    <TTGlyph name="backslash_slash.liga" xMin="-421" yMin="-110" xMax="421" yMax="830">
      <contour>
        <pt x="-73" y="-110" on="1"/>
        <pt x="-421" y="830" on="1"/>
        <pt x="-291" y="830" on="1"/>
        <pt x="-27" y="113" on="1"/>
        <pt x="0" y="25" on="1"/>
        <pt x="27" y="113" on="1"/>
        <pt x="289" y="830" on="1"/>
        <pt x="421" y="830" on="1"/>
        <pt x="73" y="-110" on="1"/>
      </contour>
    </TTGlyph>
    <TTGlyph name="backspacecontrol" xMin="39" yMin="-3" xMax="565" yMax="730">
      <contour>
        <pt x="39" y="395" on="1"/>
        <pt x="39" y="730" on="1"/>
        <pt x="239" y="730" on="1"/>
        <pt x="290" y="730" on="0"/>
        <pt x="359" y="684" on="0"/>
        <pt x="359" y="646" on="1"/>
        <pt x="359" y="589" on="0"/>
        <pt x="303" y="569" on="1"/>
        <pt x="337" y="561" on="0"/>
        <pt x="376" y="518" on="0"/>
        <pt x="376" y="488" on="1"/>
        <pt x="376" y="447" on="0"/>
        <pt x="306" y="395" on="0"/>
        <pt x="254" y="395" on="1"/>
      </contour>
      <contour>
        <pt x="117" y="591" on="1"/>
        <pt x="234" y="591" on="1"/>
        <pt x="254" y="591" on="0"/>
        <pt x="280" y="610" on="0"/>
        <pt x="280" y="629" on="1"/>
        <pt x="280" y="648" on="0"/>
        <pt x="255" y="667" on="0"/>
        <pt x="235" y="667" on="1"/>
        <pt x="117" y="667" on="1"/>
      </contour>
      <contour>
        <pt x="117" y="458" on="1"/>
        <pt x="245" y="458" on="1"/>
        <pt x="268" y="458" on="0"/>
        <pt x="297" y="477" on="0"/>
        <pt x="297" y="496" on="1"/>
        <pt x="297" y="515" on="0"/>
        <pt x="268" y="535" on="0"/>
        <pt x="245" y="535" on="1"/>
        <pt x="117" y="535" on="1"/>
      </contour>
      <contour>
        <pt x="375" y="-3" on="1"/>
        <pt x="314" y="-3" on="0"/>
        <pt x="236" y="54" on="0"/>
        <pt x="231" y="103" on="1"/>
        <pt x="309" y="103" on="1"/>
        <pt x="311" y="85" on="0"/>
        <pt x="347" y="62" on="0"/>
        <pt x="375" y="62" on="1"/>
        <pt x="425" y="62" on="1"/>
        <pt x="454" y="62" on="0"/>
        <pt x="487" y="82" on="0"/>
        <pt x="487" y="98" on="1"/>
        <pt x="487" y="112" on="0"/>
        <pt x="462" y="131" on="0"/>
        <pt x="440" y="133" on="1"/>
        <pt x="352" y="143" on="1"/>
        <pt x="301" y="149" on="0"/>
        <pt x="240" y="202" on="0"/>
        <pt x="240" y="241" on="1"/>
        <pt x="240" y="286" on="0"/>
        <pt x="310" y="338" on="0"/>
        <pt x="370" y="338" on="1"/>
        <pt x="421" y="338" on="1"/>
        <pt x="478" y="338" on="0"/>
        <pt x="553" y="288" on="0"/>
        <pt x="560" y="244" on="1"/>
        <pt x="482" y="244" on="1"/>
        <pt x="480" y="257" on="0"/>
        <pt x="446" y="273" on="0"/>
        <pt x="421" y="273" on="1"/>
        <pt x="370" y="273" on="1"/>
        <pt x="346" y="273" on="0"/>
        <pt x="318" y="256" on="0"/>
        <pt x="318" y="243" on="1"/>
        <pt x="318" y="231" on="0"/>
        <pt x="340" y="216" on="0"/>
        <pt x="359" y="214" on="1"/>
        <pt x="449" y="204" on="1"/>
        <pt x="503" y="198" on="0"/>
        <pt x="565" y="143" on="0"/>
        <pt x="565" y="102" on="1"/>
        <pt x="565" y="53" on="0"/>
        <pt x="490" y="-3" on="0"/>
        <pt x="425" y="-3" on="1"/>
      </contour>
    </TTGlyph>
    <TTGlyph name="bar" xMin="237" yMin="-110" xMax="363" yMax="830">
      <contour>
        <pt x="237" y="-110" on="1"/>
        <pt x="237" y="830" on="1"/>
        <pt x="363" y="830" on="1"/>
        <pt x="363" y="-110" on="1"/>
      </contour>
    </TTGlyph>
    <TTGlyph name="bar_bar.liga" xMin="-303" yMin="-110" xMax="303" yMax="830">
      <component glyphName="bar" x="-60" y="0" flags="0x4"/>
      <component glyphName="bar" x="-540" y="0" flags="0x4"/>
    </TTGlyph>
    <TTGlyph name="bar_bar_bar.liga" xMin="-848" yMin="-110" xMax="249" yMax="830">
      <contour>
        <pt x="124" y="-110" on="1"/>
        <pt x="124" y="830" on="1"/>
        <pt x="249" y="830" on="1"/>
        <pt x="249" y="-110" on="1"/>
      </contour>
      <contour>
        <pt x="-848" y="-110" on="1"/>
        <pt x="-848" y="830" on="1"/>
        <pt x="-723" y="830" on="1"/>
        <pt x="-723" y="-110" on="1"/>
      </contour>
      <contour>
        <pt x="-367" y="-110" on="1"/>
        <pt x="-367" y="830" on="1"/>
        <pt x="-242" y="830" on="1"/>
        <pt x="-242" y="-110" on="1"/>
      </contour>
    </TTGlyph>
    <TTGlyph name="bar_bar_bar_greater.liga" xMin="-1353" yMin="-85" xMax="225" yMax="750">
      <contour>
        <pt x="-923" y="-85" on="1"/>
        <pt x="-923" y="750" on="1"/>
        <pt x="-797" y="750" on="1"/>
        <pt x="-797" y="-85" on="1"/>
      </contour>
      <contour>
        <pt x="-1353" y="-85" on="1"/>
        <pt x="-1353" y="750" on="1"/>
        <pt x="-1227" y="750" on="1"/>
        <pt x="-1227" y="-85" on="1"/>
      </contour>
      <contour>
        <pt x="-484" y="-85" on="1"/>
        <pt x="-484" y="750" on="1"/>
        <pt x="-359" y="750" on="1"/>
        <pt x="225" y="393" on="1"/>
        <pt x="225" y="267" on="1"/>
        <pt x="-359" y="-85" on="1"/>
      </contour>
      <contour>
        <pt x="-359" y="54" on="1"/>
        <pt x="46" y="295" on="1"/>
        <pt x="66" y="308" on="0"/>
        <pt x="104" y="326" on="0"/>
        <pt x="113" y="329" on="1"/>
        <pt x="104" y="333" on="0"/>
        <pt x="67" y="350" on="0"/>
        <pt x="47" y="362" on="1"/>
        <pt x="-359" y="608" on="1"/>
      </contour>
    </TTGlyph>
    <TTGlyph name="bar_bar_equal.liga" xMin="-878" yMin="-85" xMax="371" yMax="750">
      <contour>
        <pt x="-448" y="-85" on="1"/>
        <pt x="-448" y="750" on="1"/>
        <pt x="-322" y="750" on="1"/>
        <pt x="-322" y="510" on="1"/>
        <pt x="371" y="510" on="1"/>
        <pt x="371" y="395" on="1"/>
        <pt x="-322" y="395" on="1"/>
        <pt x="-322" y="265" on="1"/>
        <pt x="371" y="265" on="1"/>
        <pt x="371" y="150" on="1"/>
        <pt x="-322" y="150" on="1"/>
        <pt x="-322" y="-85" on="1"/>
      </contour>
      <contour>
        <pt x="-878" y="-85" on="1"/>
        <pt x="-878" y="750" on="1"/>
        <pt x="-752" y="750" on="1"/>
        <pt x="-752" y="-85" on="1"/>
      </contour>
    </TTGlyph>
    <TTGlyph name="bar_bar_greater.liga" xMin="-828" yMin="-85" xMax="317" yMax="750">
      <contour>
        <pt x="-828" y="-85" on="1"/>
        <pt x="-828" y="750" on="1"/>
        <pt x="-702" y="750" on="1"/>
        <pt x="-702" y="-85" on="1"/>
      </contour>
      <contour>
        <pt x="-392" y="-85" on="1"/>
        <pt x="-392" y="750" on="1"/>
        <pt x="-267" y="750" on="1"/>
        <pt x="317" y="393" on="1"/>
        <pt x="317" y="267" on="1"/>
        <pt x="-267" y="-85" on="1"/>
      </contour>
      <contour>
        <pt x="-267" y="54" on="1"/>
        <pt x="138" y="295" on="1"/>
        <pt x="158" y="308" on="0"/>
        <pt x="196" y="326" on="0"/>
        <pt x="206" y="329" on="1"/>
        <pt x="196" y="333" on="0"/>
        <pt x="159" y="350" on="0"/>
        <pt x="139" y="362" on="1"/>
        <pt x="-267" y="608" on="1"/>
      </contour>
    </TTGlyph>
    <TTGlyph name="bar_bar_hyphen.liga" xMin="-878" yMin="-85" xMax="370" yMax="750">
      <contour>
        <pt x="-448" y="-85" on="1"/>
        <pt x="-448" y="750" on="1"/>
        <pt x="-322" y="750" on="1"/>
        <pt x="-322" y="388" on="1"/>
        <pt x="370" y="388" on="1"/>
        <pt x="370" y="272" on="1"/>
        <pt x="-322" y="272" on="1"/>
        <pt x="-322" y="-85" on="1"/>
      </contour>
      <contour>
        <pt x="-878" y="-85" on="1"/>
        <pt x="-878" y="750" on="1"/>
        <pt x="-752" y="750" on="1"/>
        <pt x="-752" y="-85" on="1"/>
      </contour>
    </TTGlyph>
    <TTGlyph name="bar_braceright.liga" xMin="-343" yMin="-111" xMax="451" yMax="830">
      <contour>
        <pt x="-61" y="-111" on="1"/>
        <pt x="-61" y="5" on="1"/>
        <pt x="60" y="5" on="1"/>
        <pt x="95" y="5" on="0"/>
        <pt x="136" y="42" on="0"/>
        <pt x="135" y="75" on="1"/>
        <pt x="125" y="231" on="1"/>
        <pt x="121" y="282" on="0"/>
        <pt x="179" y="351" on="0"/>
        <pt x="232" y="360" on="1"/>
        <pt x="179" y="370" on="0"/>
        <pt x="121" y="437" on="0"/>
        <pt x="125" y="488" on="1"/>
        <pt x="135" y="644" on="1"/>
        <pt x="137" y="681" on="0"/>
        <pt x="96" y="715" on="0"/>
        <pt x="60" y="715" on="1"/>
        <pt x="-61" y="715" on="1"/>
        <pt x="-61" y="830" on="1"/>
        <pt x="78" y="830" on="1"/>
        <pt x="163" y="830" on="0"/>
        <pt x="265" y="737" on="0"/>
        <pt x="260" y="656" on="1"/>
        <pt x="250" y="499" on="1"/>
        <pt x="247" y="459" on="0"/>
        <pt x="287" y="417" on="0"/>
        <pt x="332" y="417" on="1"/>
        <pt x="451" y="417" on="1"/>
        <pt x="451" y="302" on="1"/>
        <pt x="332" y="302" on="1"/>
        <pt x="244" y="302" on="0"/>
        <pt x="250" y="219" on="1"/>
        <pt x="260" y="67" on="1"/>
        <pt x="263" y="12" on="0"/>
        <pt x="219" y="-67" on="0"/>
        <pt x="134" y="-111" on="0"/>
        <pt x="78" y="-111" on="1"/>
      </contour>
      <contour>
        <pt x="-343" y="-110" on="1"/>
        <pt x="-343" y="830" on="1"/>
        <pt x="-217" y="830" on="1"/>
        <pt x="-217" y="-110" on="1"/>
      </contour>
    </TTGlyph>
    <TTGlyph name="bar_bracketright.liga" xMin="-351" yMin="-110" xMax="351" yMax="830">
      <contour>
        <pt x="-51" y="-110" on="1"/>
        <pt x="-51" y="5" on="1"/>
        <pt x="226" y="5" on="1"/>
        <pt x="226" y="715" on="1"/>
        <pt x="-51" y="715" on="1"/>
        <pt x="-51" y="830" on="1"/>
        <pt x="351" y="830" on="1"/>
        <pt x="351" y="-110" on="1"/>
      </contour>
      <contour>
        <pt x="-351" y="-110" on="1"/>
        <pt x="-351" y="830" on="1"/>
        <pt x="-226" y="830" on="1"/>
        <pt x="-226" y="-110" on="1"/>
      </contour>
    </TTGlyph>
    <TTGlyph name="bar_equal.liga" xMin="-363" yMin="-85" xMax="420" yMax="750">
      <contour>
        <pt x="-363" y="-85" on="1"/>
        <pt x="-363" y="750" on="1"/>
        <pt x="-237" y="750" on="1"/>
        <pt x="-237" y="510" on="1"/>
        <pt x="420" y="510" on="1"/>
        <pt x="420" y="395" on="1"/>
        <pt x="-237" y="395" on="1"/>
        <pt x="-237" y="265" on="1"/>
        <pt x="420" y="265" on="1"/>
        <pt x="420" y="150" on="1"/>
        <pt x="-237" y="150" on="1"/>
        <pt x="-237" y="-85" on="1"/>
      </contour>
    </TTGlyph>
    <TTGlyph name="bar_equal_greater.liga" xMin="-1076" yMin="35" xMax="528" yMax="625">
      <contour>
        <pt x="-1076" y="35" on="1"/>
        <pt x="-1076" y="625" on="1"/>
        <pt x="-951" y="625" on="1"/>
        <pt x="-951" y="510" on="1"/>
        <pt x="244" y="510" on="1"/>
        <pt x="156" y="625" on="1"/>
        <pt x="303" y="625" on="1"/>
        <pt x="528" y="330" on="1"/>
        <pt x="302" y="35" on="1"/>
        <pt x="156" y="35" on="1"/>
        <pt x="244" y="150" on="1"/>
        <pt x="-951" y="150" on="1"/>
        <pt x="-951" y="35" on="1"/>
      </contour>
      <contour>
        <pt x="-951" y="265" on="1"/>
        <pt x="333" y="265" on="1"/>
        <pt x="356" y="294" on="0"/>
        <pt x="383" y="325" on="0"/>
        <pt x="387" y="328" on="1"/>
        <pt x="383" y="332" on="0"/>
        <pt x="355" y="364" on="0"/>
        <pt x="332" y="395" on="1"/>
        <pt x="-951" y="395" on="1"/>
      </contour>
    </TTGlyph>
    <TTGlyph name="bar_greater.liga" xMin="-334" yMin="-85" xMax="375" yMax="750">
      <contour>
        <pt x="-334" y="-85" on="1"/>
        <pt x="-334" y="750" on="1"/>
        <pt x="-209" y="750" on="1"/>
        <pt x="375" y="393" on="1"/>
        <pt x="375" y="267" on="1"/>
        <pt x="-209" y="-85" on="1"/>
      </contour>
      <contour>
        <pt x="-209" y="54" on="1"/>
        <pt x="196" y="295" on="1"/>
        <pt x="216" y="308" on="0"/>
        <pt x="254" y="326" on="0"/>
        <pt x="263" y="329" on="1"/>
        <pt x="254" y="333" on="0"/>
        <pt x="217" y="350" on="0"/>
        <pt x="197" y="362" on="1"/>
        <pt x="-209" y="608" on="1"/>
      </contour>
    </TTGlyph>
    <TTGlyph name="bar_hyphen.liga" xMin="-363" yMin="-85" xMax="420" yMax="750">
      <contour>
        <pt x="-363" y="-85" on="1"/>
        <pt x="-363" y="750" on="1"/>
        <pt x="-237" y="750" on="1"/>
        <pt x="-237" y="388" on="1"/>
        <pt x="420" y="388" on="1"/>
        <pt x="420" y="272" on="1"/>
        <pt x="-237" y="272" on="1"/>
        <pt x="-237" y="-85" on="1"/>
      </contour>
    </TTGlyph>
    <TTGlyph name="bar_hyphen_greater.liga" xMin="-1076" yMin="35" xMax="528" yMax="625">
      <contour>
        <pt x="-1076" y="35" on="1"/>
        <pt x="-1076" y="625" on="1"/>
        <pt x="-951" y="625" on="1"/>
        <pt x="-951" y="388" on="1"/>
        <pt x="342" y="388" on="1"/>
        <pt x="333" y="393" on="0"/>
        <pt x="324" y="404" on="1"/>
        <pt x="156" y="625" on="1"/>
        <pt x="303" y="625" on="1"/>
        <pt x="528" y="330" on="1"/>
        <pt x="302" y="35" on="1"/>
        <pt x="156" y="35" on="1"/>
        <pt x="327" y="257" on="1"/>
        <pt x="330" y="262" on="0"/>
        <pt x="339" y="270" on="0"/>
        <pt x="342" y="272" on="1"/>
        <pt x="-951" y="272" on="1"/>
        <pt x="-951" y="35" on="1"/>
      </contour>
    </TTGlyph>
    <TTGlyph name="bellcontrol" xMin="39" yMin="0" xMax="570" yMax="730">
      <contour>
        <pt x="39" y="395" on="1"/>
        <pt x="39" y="730" on="1"/>
        <pt x="239" y="730" on="1"/>
        <pt x="290" y="730" on="0"/>
        <pt x="359" y="684" on="0"/>
        <pt x="359" y="646" on="1"/>
        <pt x="359" y="589" on="0"/>
        <pt x="303" y="569" on="1"/>
        <pt x="337" y="561" on="0"/>
        <pt x="376" y="518" on="0"/>
        <pt x="376" y="488" on="1"/>
        <pt x="376" y="447" on="0"/>
        <pt x="306" y="395" on="0"/>
        <pt x="254" y="395" on="1"/>
      </contour>
      <contour>
        <pt x="117" y="591" on="1"/>
        <pt x="234" y="591" on="1"/>
        <pt x="254" y="591" on="0"/>
        <pt x="280" y="610" on="0"/>
        <pt x="280" y="629" on="1"/>
        <pt x="280" y="648" on="0"/>
        <pt x="255" y="667" on="0"/>
        <pt x="235" y="667" on="1"/>
        <pt x="117" y="667" on="1"/>
      </contour>
      <contour>
        <pt x="117" y="458" on="1"/>
        <pt x="245" y="458" on="1"/>
        <pt x="268" y="458" on="0"/>
        <pt x="297" y="477" on="0"/>
        <pt x="297" y="496" on="1"/>
        <pt x="297" y="515" on="0"/>
        <pt x="268" y="535" on="0"/>
        <pt x="245" y="535" on="1"/>
        <pt x="117" y="535" on="1"/>
      </contour>
      <contour>
        <pt x="276" y="0" on="1"/>
        <pt x="276" y="335" on="1"/>
        <pt x="354" y="335" on="1"/>
        <pt x="354" y="72" on="1"/>
        <pt x="570" y="72" on="1"/>
        <pt x="570" y="0" on="1"/>
      </contour>
    </TTGlyph>
    <TTGlyph name="beta" xMin="73" yMin="-180" xMax="556" yMax="740">
      <contour>
        <pt x="73" y="-180" on="1"/>
        <pt x="73" y="522" on="1"/>
        <pt x="73" y="587" on="0"/>
        <pt x="131" y="685" on="0"/>
        <pt x="232" y="740" on="0"/>
        <pt x="299" y="740" on="1"/>
        <pt x="364" y="740" on="0"/>
        <pt x="465" y="692" on="0"/>
        <pt x="521" y="606" on="0"/>
        <pt x="521" y="550" on="1"/>
        <pt x="521" y="496" on="0"/>
        <pt x="461" y="416" on="0"/>
        <pt x="414" y="405" on="1"/>
        <pt x="414" y="403" on="1"/>
        <pt x="456" y="395" on="0"/>
        <pt x="520" y="341" on="0"/>
        <pt x="556" y="258" on="0"/>
        <pt x="556" y="208" on="1"/>
        <pt x="556" y="145" on="0"/>
        <pt x="504" y="47" on="0"/>
        <pt x="409" y="-10" on="0"/>
        <pt x="346" y="-10" on="1"/>
        <pt x="283" y="-10" on="0"/>
        <pt x="206" y="50" on="0"/>
        <pt x="197" y="104" on="1"/>
        <pt x="194" y="104" on="1"/>
        <pt x="198" y="-26" on="1"/>
        <pt x="198" y="-180" on="1"/>
      </contour>
      <contour>
        <pt x="314" y="106" on="1"/>
        <pt x="366" y="106" on="0"/>
        <pt x="429" y="172" on="0"/>
        <pt x="429" y="227" on="1"/>
        <pt x="429" y="282" on="0"/>
        <pt x="366" y="348" on="0"/>
        <pt x="314" y="348" on="1"/>
        <pt x="266" y="348" on="1"/>
        <pt x="266" y="440" on="1"/>
        <pt x="298" y="440" on="1"/>
        <pt x="344" y="440" on="0"/>
        <pt x="398" y="493" on="0"/>
        <pt x="398" y="537" on="1"/>
        <pt x="398" y="581" on="0"/>
        <pt x="344" y="634" on="0"/>
        <pt x="298" y="634" on="1"/>
        <pt x="253" y="634" on="0"/>
        <pt x="198" y="573" on="0"/>
        <pt x="198" y="522" on="1"/>
        <pt x="198" y="227" on="1"/>
        <pt x="198" y="172" on="0"/>
        <pt x="262" y="106" on="0"/>
      </contour>
    </TTGlyph>
    <TTGlyph name="block" xMin="0" yMin="-300" xMax="600" yMax="1020">
      <contour>
        <pt x="0" y="-300" on="1"/>
        <pt x="0" y="1020" on="1"/>
        <pt x="600" y="1020" on="1"/>
        <pt x="600" y="-300" on="1"/>
      </contour>
    </TTGlyph>
    <TTGlyph name="braceleft" xMin="69" yMin="-111" xMax="511" yMax="830">
      <contour>
        <pt x="442" y="-111" on="1"/>
        <pt x="354" y="-111" on="0"/>
        <pt x="252" y="-14" on="0"/>
        <pt x="260" y="67" on="1"/>
        <pt x="275" y="219" on="1"/>
        <pt x="279" y="260" on="0"/>
        <pt x="243" y="302" on="0"/>
        <pt x="199" y="302" on="1"/>
        <pt x="69" y="302" on="1"/>
        <pt x="69" y="417" on="1"/>
        <pt x="199" y="417" on="1"/>
        <pt x="243" y="417" on="0"/>
        <pt x="279" y="459" on="0"/>
        <pt x="275" y="499" on="1"/>
        <pt x="260" y="656" on="1"/>
        <pt x="252" y="735" on="0"/>
        <pt x="354" y="830" on="0"/>
        <pt x="442" y="830" on="1"/>
        <pt x="511" y="830" on="1"/>
        <pt x="511" y="715" on="1"/>
        <pt x="460" y="715" on="1"/>
        <pt x="423" y="715" on="0"/>
        <pt x="383" y="678" on="0"/>
        <pt x="385" y="644" on="1"/>
        <pt x="400" y="488" on="1"/>
        <pt x="405" y="437" on="0"/>
        <pt x="342" y="370" on="0"/>
        <pt x="280" y="362" on="1"/>
        <pt x="342" y="353" on="0"/>
        <pt x="405" y="283" on="0"/>
        <pt x="400" y="231" on="1"/>
        <pt x="385" y="75" on="1"/>
        <pt x="382" y="42" on="0"/>
        <pt x="423" y="5" on="0"/>
        <pt x="460" y="5" on="1"/>
        <pt x="511" y="5" on="1"/>
        <pt x="511" y="-111" on="1"/>
      </contour>
    </TTGlyph>
    <TTGlyph name="braceleft_bar.liga" xMin="-454" yMin="-111" xMax="340" yMax="830">
      <contour>
        <pt x="-80" y="-111" on="1"/>
        <pt x="-137" y="-111" on="0"/>
        <pt x="-221" y="-67" on="0"/>
        <pt x="-266" y="12" on="0"/>
        <pt x="-263" y="67" on="1"/>
        <pt x="-253" y="219" on="1"/>
        <pt x="-247" y="302" on="0"/>
        <pt x="-335" y="302" on="1"/>
        <pt x="-454" y="302" on="1"/>
        <pt x="-454" y="417" on="1"/>
        <pt x="-335" y="417" on="1"/>
        <pt x="-289" y="417" on="0"/>
        <pt x="-250" y="459" on="0"/>
        <pt x="-253" y="499" on="1"/>
        <pt x="-263" y="656" on="1"/>
        <pt x="-267" y="737" on="0"/>
        <pt x="-165" y="830" on="0"/>
        <pt x="-80" y="830" on="1"/>
        <pt x="58" y="830" on="1"/>
        <pt x="58" y="715" on="1"/>
        <pt x="-63" y="715" on="1"/>
        <pt x="-99" y="715" on="0"/>
        <pt x="-140" y="681" on="0"/>
        <pt x="-137" y="644" on="1"/>
        <pt x="-127" y="488" on="1"/>
        <pt x="-124" y="437" on="0"/>
        <pt x="-182" y="370" on="0"/>
        <pt x="-235" y="360" on="1"/>
        <pt x="-182" y="351" on="0"/>
        <pt x="-124" y="282" on="0"/>
        <pt x="-127" y="231" on="1"/>
        <pt x="-137" y="75" on="1"/>
        <pt x="-139" y="42" on="0"/>
        <pt x="-98" y="5" on="0"/>
        <pt x="-63" y="5" on="1"/>
        <pt x="58" y="5" on="1"/>
        <pt x="58" y="-111" on="1"/>
      </contour>
      <contour>
        <pt x="215" y="-110" on="1"/>
        <pt x="215" y="830" on="1"/>
        <pt x="340" y="830" on="1"/>
        <pt x="340" y="-110" on="1"/>
      </contour>
    </TTGlyph>
    <TTGlyph name="braceleft_braceleft.liga" xMin="-506" yMin="-111" xMax="466" yMax="830">
      <component glyphName="braceleft" x="-575" y="0" flags="0x4"/>
      <component glyphName="braceleft" x="-45" y="0" flags="0x4"/>
    </TTGlyph>
    <TTGlyph name="braceleft_braceleft_hyphen_hyphen.liga" xMin="-1671" yMin="-141" xMax="518" yMax="800">
      <contour>
        <pt x="-1298" y="-141" on="1"/>
        <pt x="-1386" y="-141" on="0"/>
        <pt x="-1488" y="-44" on="0"/>
        <pt x="-1480" y="37" on="1"/>
        <pt x="-1465" y="189" on="1"/>
        <pt x="-1461" y="230" on="0"/>
        <pt x="-1497" y="272" on="0"/>
        <pt x="-1541" y="272" on="1"/>
        <pt x="-1671" y="272" on="1"/>
        <pt x="-1671" y="387" on="1"/>
        <pt x="-1541" y="387" on="1"/>
        <pt x="-1497" y="387" on="0"/>
        <pt x="-1461" y="429" on="0"/>
        <pt x="-1465" y="469" on="1"/>
        <pt x="-1480" y="626" on="1"/>
        <pt x="-1488" y="705" on="0"/>
        <pt x="-1386" y="800" on="0"/>
        <pt x="-1298" y="800" on="1"/>
        <pt x="-1229" y="800" on="1"/>
        <pt x="-1229" y="685" on="1"/>
        <pt x="-1280" y="685" on="1"/>
        <pt x="-1317" y="685" on="0"/>
        <pt x="-1357" y="648" on="0"/>
        <pt x="-1355" y="614" on="1"/>
        <pt x="-1340" y="458" on="1"/>
        <pt x="-1335" y="407" on="0"/>
        <pt x="-1398" y="340" on="0"/>
        <pt x="-1460" y="332" on="1"/>
        <pt x="-1398" y="323" on="0"/>
        <pt x="-1335" y="253" on="0"/>
        <pt x="-1340" y="201" on="1"/>
        <pt x="-1355" y="45" on="1"/>
        <pt x="-1358" y="12" on="0"/>
        <pt x="-1317" y="-25" on="0"/>
        <pt x="-1280" y="-25" on="1"/>
        <pt x="-1229" y="-25" on="1"/>
        <pt x="-1229" y="-141" on="1"/>
      </contour>
      <contour>
        <pt x="-765" y="-141" on="1"/>
        <pt x="-853" y="-141" on="0"/>
        <pt x="-955" y="-44" on="0"/>
        <pt x="-947" y="37" on="1"/>
        <pt x="-932" y="189" on="1"/>
        <pt x="-928" y="230" on="0"/>
        <pt x="-964" y="272" on="0"/>
        <pt x="-1008" y="272" on="1"/>
        <pt x="-1138" y="272" on="1"/>
        <pt x="-1138" y="387" on="1"/>
        <pt x="-1008" y="387" on="1"/>
        <pt x="-964" y="387" on="0"/>
        <pt x="-928" y="429" on="0"/>
        <pt x="-932" y="469" on="1"/>
        <pt x="-947" y="626" on="1"/>
        <pt x="-955" y="705" on="0"/>
        <pt x="-853" y="800" on="0"/>
        <pt x="-765" y="800" on="1"/>
        <pt x="-696" y="800" on="1"/>
        <pt x="-696" y="685" on="1"/>
        <pt x="-747" y="685" on="1"/>
        <pt x="-784" y="685" on="0"/>
        <pt x="-824" y="648" on="0"/>
        <pt x="-822" y="614" on="1"/>
        <pt x="-807" y="458" on="1"/>
        <pt x="-803" y="417" on="0"/>
        <pt x="-822" y="388" on="1"/>
        <pt x="518" y="388" on="1"/>
        <pt x="518" y="272" on="1"/>
        <pt x="-822" y="272" on="1"/>
        <pt x="-803" y="242" on="0"/>
        <pt x="-807" y="201" on="1"/>
        <pt x="-822" y="45" on="1"/>
        <pt x="-825" y="12" on="0"/>
        <pt x="-784" y="-25" on="0"/>
        <pt x="-747" y="-25" on="1"/>
        <pt x="-696" y="-25" on="1"/>
        <pt x="-696" y="-141" on="1"/>
      </contour>
      <contour>
        <pt x="-926" y="331" on="1"/>
        <pt x="-926" y="332" on="1"/>
        <pt x="-927" y="332" on="0"/>
        <pt x="-927" y="332" on="1"/>
      </contour>
    </TTGlyph>
    <TTGlyph name="braceleft_exclam_exclam.liga" xMin="-1021" yMin="-111" xMax="329" yMax="830">
      <component glyphName="braceleft" x="-1090" y="0" flags="0x4"/>
      <component glyphName="exclam" x="-525" y="0" flags="0x4"/>
      <component glyphName="exclam" x="-55" y="0" flags="0x4"/>
    </TTGlyph>
    <TTGlyph name="braceleft_exclam_hyphen_hyphen.liga" xMin="-1671" yMin="-141" xMax="518" yMax="800">
      <contour>
        <pt x="-1298" y="-141" on="1"/>
        <pt x="-1386" y="-141" on="0"/>
        <pt x="-1488" y="-44" on="0"/>
        <pt x="-1480" y="37" on="1"/>
        <pt x="-1465" y="189" on="1"/>
        <pt x="-1461" y="230" on="0"/>
        <pt x="-1497" y="272" on="0"/>
        <pt x="-1541" y="272" on="1"/>
        <pt x="-1671" y="272" on="1"/>
        <pt x="-1671" y="387" on="1"/>
        <pt x="-1541" y="387" on="1"/>
        <pt x="-1497" y="387" on="0"/>
        <pt x="-1461" y="429" on="0"/>
        <pt x="-1465" y="469" on="1"/>
        <pt x="-1480" y="626" on="1"/>
        <pt x="-1488" y="705" on="0"/>
        <pt x="-1386" y="800" on="0"/>
        <pt x="-1298" y="800" on="1"/>
        <pt x="-1229" y="800" on="1"/>
        <pt x="-1229" y="685" on="1"/>
        <pt x="-1280" y="685" on="1"/>
        <pt x="-1317" y="685" on="0"/>
        <pt x="-1357" y="648" on="0"/>
        <pt x="-1355" y="614" on="1"/>
        <pt x="-1340" y="458" on="1"/>
        <pt x="-1336" y="417" on="0"/>
        <pt x="-1355" y="388" on="1"/>
        <pt x="-1094" y="388" on="1"/>
        <pt x="-1094" y="272" on="1"/>
        <pt x="-1355" y="272" on="1"/>
        <pt x="-1336" y="242" on="0"/>
        <pt x="-1340" y="201" on="1"/>
        <pt x="-1355" y="45" on="1"/>
        <pt x="-1358" y="12" on="0"/>
        <pt x="-1317" y="-25" on="0"/>
        <pt x="-1280" y="-25" on="1"/>
        <pt x="-1229" y="-25" on="1"/>
        <pt x="-1229" y="-141" on="1"/>
      </contour>
      <contour>
        <pt x="-952" y="227" on="1"/>
        <pt x="-966" y="730" on="1"/>
        <pt x="-830" y="730" on="1"/>
        <pt x="-844" y="227" on="1"/>
      </contour>
      <contour>
        <pt x="-706" y="272" on="1"/>
        <pt x="-706" y="388" on="1"/>
        <pt x="518" y="388" on="1"/>
        <pt x="518" y="272" on="1"/>
      </contour>
      <contour>
        <pt x="-913" y="-5" on="1"/>
        <pt x="-944" y="-5" on="0"/>
        <pt x="-982" y="32" on="0"/>
        <pt x="-982" y="61" on="1"/>
        <pt x="-982" y="90" on="0"/>
        <pt x="-944" y="127" on="0"/>
        <pt x="-913" y="127" on="1"/>
        <pt x="-883" y="127" on="1"/>
        <pt x="-851" y="127" on="0"/>
        <pt x="-814" y="90" on="0"/>
        <pt x="-814" y="61" on="1"/>
        <pt x="-814" y="32" on="0"/>
        <pt x="-853" y="-5" on="0"/>
        <pt x="-884" y="-5" on="1"/>
      </contour>
    </TTGlyph>
    <TTGlyph name="braceright" xMin="89" yMin="-111" xMax="531" yMax="830">
      <contour>
        <pt x="89" y="-111" on="1"/>
        <pt x="89" y="5" on="1"/>
        <pt x="140" y="5" on="1"/>
        <pt x="177" y="5" on="0"/>
        <pt x="219" y="42" on="0"/>
        <pt x="215" y="75" on="1"/>
        <pt x="195" y="231" on="1"/>
        <pt x="189" y="282" on="0"/>
        <pt x="249" y="353" on="0"/>
        <pt x="303" y="362" on="1"/>
        <pt x="249" y="371" on="0"/>
        <pt x="189" y="437" on="0"/>
        <pt x="195" y="488" on="1"/>
        <pt x="215" y="644" on="1"/>
        <pt x="219" y="678" on="0"/>
        <pt x="177" y="715" on="0"/>
        <pt x="140" y="715" on="1"/>
        <pt x="89" y="715" on="1"/>
        <pt x="89" y="830" on="1"/>
        <pt x="158" y="830" on="1"/>
        <pt x="216" y="830" on="0"/>
        <pt x="303" y="787" on="0"/>
        <pt x="346" y="709" on="0"/>
        <pt x="340" y="656" on="1"/>
        <pt x="320" y="499" on="1"/>
        <pt x="310" y="417" on="0"/>
        <pt x="397" y="417" on="1"/>
        <pt x="531" y="417" on="1"/>
        <pt x="531" y="302" on="1"/>
        <pt x="397" y="302" on="1"/>
        <pt x="310" y="302" on="0"/>
        <pt x="320" y="219" on="1"/>
        <pt x="340" y="67" on="1"/>
        <pt x="346" y="13" on="0"/>
        <pt x="303" y="-67" on="0"/>
        <pt x="217" y="-111" on="0"/>
        <pt x="158" y="-111" on="1"/>
      </contour>
    </TTGlyph>
    <TTGlyph name="braceright_braceright.liga" xMin="-466" yMin="-111" xMax="506" yMax="830">
      <component glyphName="braceright" x="-555" y="0" flags="0x4"/>
      <component glyphName="braceright" x="-25" y="0" flags="0x4"/>
    </TTGlyph>
    <TTGlyph name="bracketleft" xMin="185" yMin="-110" xMax="465" yMax="830">
      <contour>
        <pt x="185" y="-110" on="1"/>
        <pt x="185" y="830" on="1"/>
        <pt x="465" y="830" on="1"/>
        <pt x="465" y="715" on="1"/>
        <pt x="310" y="715" on="1"/>
        <pt x="310" y="5" on="1"/>
        <pt x="465" y="5" on="1"/>
        <pt x="465" y="-110" on="1"/>
      </contour>
    </TTGlyph>
    <TTGlyph name="bracketleft_bar.liga" xMin="-351" yMin="-110" xMax="351" yMax="830">
      <contour>
        <pt x="-351" y="-110" on="1"/>
        <pt x="-351" y="830" on="1"/>
        <pt x="51" y="830" on="1"/>
        <pt x="51" y="715" on="1"/>
        <pt x="-226" y="715" on="1"/>
        <pt x="-226" y="5" on="1"/>
        <pt x="51" y="5" on="1"/>
        <pt x="51" y="-110" on="1"/>
      </contour>
      <contour>
        <pt x="226" y="-110" on="1"/>
        <pt x="226" y="830" on="1"/>
        <pt x="351" y="830" on="1"/>
        <pt x="351" y="-110" on="1"/>
      </contour>
    </TTGlyph>
    <TTGlyph name="bracketleft_less.liga" xMin="-390" yMin="-110" xMax="415" yMax="830">
      <component glyphName="bracketleft" x="-575" y="0" flags="0x4"/>
      <component glyphName="less" x="-109" y="15" flags="0x4"/>
    </TTGlyph>
    <TTGlyph name="bracketright" xMin="135" yMin="-110" xMax="415" yMax="830">
      <contour>
        <pt x="135" y="-110" on="1"/>
        <pt x="135" y="5" on="1"/>
        <pt x="290" y="5" on="1"/>
        <pt x="290" y="715" on="1"/>
        <pt x="135" y="715" on="1"/>
        <pt x="135" y="830" on="1"/>
        <pt x="415" y="830" on="1"/>
        <pt x="415" y="-110" on="1"/>
      </contour>
    </TTGlyph>
    <TTGlyph name="bracketright_numbersign.liga" xMin="-465" yMin="-110" xMax="565" yMax="830">
      <contour>
        <pt x="77" y="0" on="1"/>
        <pt x="111" y="190" on="1"/>
        <pt x="-185" y="190" on="1"/>
        <pt x="-185" y="-110" on="1"/>
        <pt x="-465" y="-110" on="1"/>
        <pt x="-465" y="5" on="1"/>
        <pt x="-310" y="5" on="1"/>
        <pt x="-310" y="715" on="1"/>
        <pt x="-465" y="715" on="1"/>
        <pt x="-465" y="830" on="1"/>
        <pt x="-185" y="830" on="1"/>
        <pt x="-185" y="540" on="1"/>
        <pt x="171" y="540" on="1"/>
        <pt x="205" y="730" on="1"/>
        <pt x="293" y="730" on="1"/>
        <pt x="259" y="540" on="1"/>
        <pt x="401" y="540" on="1"/>
        <pt x="435" y="730" on="1"/>
        <pt x="523" y="730" on="1"/>
        <pt x="489" y="540" on="1"/>
        <pt x="565" y="540" on="1"/>
        <pt x="565" y="455" on="1"/>
        <pt x="474" y="455" on="1"/>
        <pt x="443" y="275" on="1"/>
        <pt x="530" y="275" on="1"/>
        <pt x="530" y="190" on="1"/>
        <pt x="428" y="190" on="1"/>
        <pt x="395" y="0" on="1"/>
        <pt x="307" y="0" on="1"/>
        <pt x="341" y="190" on="1"/>
        <pt x="198" y="190" on="1"/>
        <pt x="165" y="0" on="1"/>
      </contour>
      <contour>
        <pt x="156" y="455" on="1"/>
        <pt x="-185" y="455" on="1"/>
        <pt x="-185" y="275" on="1"/>
        <pt x="125" y="275" on="1"/>
      </contour>
      <contour>
        <pt x="213" y="275" on="1"/>
        <pt x="355" y="275" on="1"/>
        <pt x="386" y="455" on="1"/>
        <pt x="244" y="455" on="1"/>
      </contour>
    </TTGlyph>
    <TTGlyph name="breve" xMin="125" yMin="637" xMax="475" yMax="785">
      <component glyphName="uni0306" x="600" y="0" flags="0x4"/>
    </TTGlyph>
    <TTGlyph name="breve.case" xMin="126" yMin="802" xMax="475" yMax="950">
      <component glyphName="uni0306.case" x="600" y="0" flags="0x4"/>
    </TTGlyph>
    <TTGlyph name="brevecombcy" xMin="-475" yMin="637" xMax="-125" yMax="785">
      <contour>
        <pt x="-300" y="637" on="1"/>
        <pt x="-378" y="637" on="0"/>
        <pt x="-475" y="718" on="0"/>
        <pt x="-475" y="785" on="1"/>
        <pt x="-378" y="785" on="1"/>
        <pt x="-378" y="752" on="0"/>
        <pt x="-335" y="712" on="0"/>
        <pt x="-300" y="712" on="1"/>
        <pt x="-265" y="712" on="0"/>
        <pt x="-222" y="752" on="0"/>
        <pt x="-222" y="785" on="1"/>
        <pt x="-125" y="785" on="1"/>
        <pt x="-125" y="718" on="0"/>
        <pt x="-221" y="637" on="0"/>
      </contour>
    </TTGlyph>
    <TTGlyph name="brokenbar" xMin="237" yMin="-110" xMax="363" yMax="830">
      <contour>
        <pt x="237" y="450" on="1"/>
        <pt x="237" y="830" on="1"/>
        <pt x="363" y="830" on="1"/>
        <pt x="363" y="450" on="1"/>
      </contour>
      <contour>
        <pt x="237" y="-110" on="1"/>
        <pt x="237" y="270" on="1"/>
        <pt x="363" y="270" on="1"/>
        <pt x="363" y="-110" on="1"/>
      </contour>
    </TTGlyph>
    <TTGlyph name="bullet" xMin="171" yMin="236" xMax="429" yMax="494">
      <contour>
        <pt x="300" y="236" on="1"/>
        <pt x="243" y="236" on="0"/>
        <pt x="171" y="308" on="0"/>
        <pt x="171" y="365" on="1"/>
        <pt x="171" y="422" on="0"/>
        <pt x="243" y="494" on="0"/>
        <pt x="300" y="494" on="1"/>
        <pt x="357" y="494" on="0"/>
        <pt x="429" y="422" on="0"/>
        <pt x="429" y="365" on="1"/>
        <pt x="429" y="308" on="0"/>
        <pt x="357" y="236" on="0"/>
      </contour>
    </TTGlyph>
    <TTGlyph name="c" xMin="75" yMin="-10" xMax="540" yMax="560">
      <contour>
        <pt x="309" y="-10" on="1"/>
        <pt x="238" y="-10" on="0"/>
        <pt x="133" y="43" on="0"/>
        <pt x="75" y="140" on="0"/>
        <pt x="75" y="206" on="1"/>
        <pt x="75" y="344" on="1"/>
        <pt x="75" y="410" on="0"/>
        <pt x="133" y="507" on="0"/>
        <pt x="238" y="560" on="0"/>
        <pt x="309" y="560" on="1"/>
        <pt x="412" y="560" on="0"/>
        <pt x="537" y="453" on="0"/>
        <pt x="540" y="361" on="1"/>
        <pt x="417" y="361" on="1"/>
        <pt x="414" y="404" on="0"/>
        <pt x="355" y="451" on="0"/>
        <pt x="309" y="451" on="1"/>
        <pt x="258" y="451" on="0"/>
        <pt x="200" y="396" on="0"/>
        <pt x="200" y="345" on="1"/>
        <pt x="200" y="206" on="1"/>
        <pt x="200" y="155" on="0"/>
        <pt x="258" y="99" on="0"/>
        <pt x="309" y="99" on="1"/>
        <pt x="356" y="99" on="0"/>
        <pt x="414" y="146" on="0"/>
        <pt x="417" y="189" on="1"/>
        <pt x="540" y="189" on="1"/>
        <pt x="537" y="97" on="0"/>
        <pt x="412" y="-10" on="0"/>
      </contour>
    </TTGlyph>
    <TTGlyph name="cacute" xMin="75" yMin="-10" xMax="540" yMax="785">
      <component glyphName="c" x="0" y="0" flags="0x204"/>
      <component glyphName="acutecomb" x="619" y="0" flags="0x4"/>
    </TTGlyph>
    <TTGlyph name="cancelcontrol" xMin="26" yMin="0" xMax="561" yMax="735">
      <contour>
        <pt x="207" y="390" on="1"/>
        <pt x="154" y="390" on="0"/>
        <pt x="72" y="434" on="0"/>
        <pt x="26" y="512" on="0"/>
        <pt x="26" y="562" on="1"/>
        <pt x="26" y="613" on="0"/>
        <pt x="72" y="691" on="0"/>
        <pt x="154" y="735" on="0"/>
        <pt x="207" y="735" on="1"/>
        <pt x="271" y="735" on="0"/>
        <pt x="360" y="669" on="0"/>
        <pt x="375" y="617" on="1"/>
        <pt x="295" y="617" on="1"/>
        <pt x="285" y="638" on="0"/>
        <pt x="237" y="665" on="0"/>
        <pt x="207" y="665" on="1"/>
        <pt x="163" y="665" on="0"/>
        <pt x="106" y="607" on="0"/>
        <pt x="106" y="562" on="1"/>
        <pt x="106" y="517" on="0"/>
        <pt x="163" y="460" on="0"/>
        <pt x="207" y="460" on="1"/>
        <pt x="237" y="460" on="0"/>
        <pt x="285" y="487" on="0"/>
        <pt x="295" y="508" on="1"/>
        <pt x="375" y="508" on="1"/>
        <pt x="360" y="456" on="0"/>
        <pt x="271" y="390" on="0"/>
      </contour>
      <contour>
        <pt x="239" y="0" on="1"/>
        <pt x="239" y="335" on="1"/>
        <pt x="337" y="335" on="1"/>
        <pt x="498" y="76" on="1"/>
        <pt x="493" y="103" on="0"/>
        <pt x="487" y="142" on="0"/>
        <pt x="484" y="190" on="0"/>
        <pt x="484" y="230" on="1"/>
        <pt x="484" y="335" on="1"/>
        <pt x="561" y="335" on="1"/>
        <pt x="561" y="0" on="1"/>
        <pt x="463" y="0" on="1"/>
        <pt x="302" y="259" on="1"/>
        <pt x="307" y="233" on="0"/>
        <pt x="313" y="196" on="0"/>
        <pt x="316" y="151" on="0"/>
        <pt x="316" y="111" on="1"/>
        <pt x="316" y="0" on="1"/>
      </contour>
    </TTGlyph>
    <TTGlyph name="caron" xMin="105" yMin="645" xMax="495" yMax="785">
      <component glyphName="uni030C" x="600" y="0" flags="0x4"/>
    </TTGlyph>
    <TTGlyph name="caron.case" xMin="105" yMin="810" xMax="495" yMax="950">
      <component glyphName="uni030C.case" x="600" y="0" flags="0x4"/>
    </TTGlyph>
    <TTGlyph name="carriageReturncontrol" xMin="26" yMin="0" xMax="581" yMax="735">
      <contour>
        <pt x="207" y="390" on="1"/>
        <pt x="154" y="390" on="0"/>
        <pt x="72" y="434" on="0"/>
        <pt x="26" y="512" on="0"/>
        <pt x="26" y="562" on="1"/>
        <pt x="26" y="613" on="0"/>
        <pt x="72" y="691" on="0"/>
        <pt x="154" y="735" on="0"/>
        <pt x="207" y="735" on="1"/>
        <pt x="271" y="735" on="0"/>
        <pt x="360" y="669" on="0"/>
        <pt x="375" y="617" on="1"/>
        <pt x="295" y="617" on="1"/>
        <pt x="285" y="638" on="0"/>
        <pt x="237" y="665" on="0"/>
        <pt x="207" y="665" on="1"/>
        <pt x="163" y="665" on="0"/>
        <pt x="106" y="607" on="0"/>
        <pt x="106" y="562" on="1"/>
        <pt x="106" y="517" on="0"/>
        <pt x="163" y="460" on="0"/>
        <pt x="207" y="460" on="1"/>
        <pt x="237" y="460" on="0"/>
        <pt x="285" y="487" on="0"/>
        <pt x="295" y="508" on="1"/>
        <pt x="375" y="508" on="1"/>
        <pt x="360" y="456" on="0"/>
        <pt x="271" y="390" on="0"/>
      </contour>
      <contour>
        <pt x="245" y="0" on="1"/>
        <pt x="245" y="335" on="1"/>
        <pt x="439" y="335" on="1"/>
        <pt x="499" y="335" on="0"/>
        <pt x="575" y="272" on="0"/>
        <pt x="575" y="223" on="1"/>
        <pt x="575" y="184" on="0"/>
        <pt x="526" y="131" on="0"/>
        <pt x="485" y="121" on="1"/>
        <pt x="581" y="0" on="1"/>
        <pt x="489" y="0" on="1"/>
        <pt x="399" y="116" on="1"/>
        <pt x="323" y="116" on="1"/>
        <pt x="323" y="0" on="1"/>
      </contour>
      <contour>
        <pt x="323" y="177" on="1"/>
        <pt x="440" y="177" on="1"/>
        <pt x="465" y="177" on="0"/>
        <pt x="496" y="202" on="0"/>
        <pt x="496" y="223" on="1"/>
        <pt x="496" y="244" on="0"/>
        <pt x="466" y="271" on="0"/>
        <pt x="441" y="271" on="1"/>
        <pt x="323" y="271" on="1"/>
      </contour>
    </TTGlyph>
    <TTGlyph name="ccaron" xMin="75" yMin="-10" xMax="540" yMax="785">
      <component glyphName="c" x="0" y="0" flags="0x204"/>
      <component glyphName="uni030C" x="609" y="0" flags="0x4"/>
    </TTGlyph>
    <TTGlyph name="ccedilla" xMin="75" yMin="-216" xMax="540" yMax="560">
      <contour>
        <pt x="200" y="-216" on="1"/>
        <pt x="200" y="-152" on="1"/>
        <pt x="275" y="-152" on="1"/>
        <pt x="299" y="-152" on="0"/>
        <pt x="328" y="-129" on="0"/>
        <pt x="328" y="-116" on="1"/>
        <pt x="328" y="-95" on="0"/>
        <pt x="269" y="-69" on="0"/>
        <pt x="217" y="-69" on="1"/>
        <pt x="242" y="-3" on="1"/>
        <pt x="165" y="14" on="0"/>
        <pt x="75" y="123" on="0"/>
        <pt x="75" y="206" on="1"/>
        <pt x="75" y="344" on="1"/>
        <pt x="75" y="410" on="0"/>
        <pt x="133" y="507" on="0"/>
        <pt x="238" y="560" on="0"/>
        <pt x="309" y="560" on="1"/>
        <pt x="412" y="560" on="0"/>
        <pt x="537" y="453" on="0"/>
        <pt x="540" y="361" on="1"/>
        <pt x="417" y="361" on="1"/>
        <pt x="414" y="404" on="0"/>
        <pt x="355" y="451" on="0"/>
        <pt x="309" y="451" on="1"/>
        <pt x="258" y="451" on="0"/>
        <pt x="200" y="396" on="0"/>
        <pt x="200" y="345" on="1"/>
        <pt x="200" y="206" on="1"/>
        <pt x="200" y="155" on="0"/>
        <pt x="258" y="99" on="0"/>
        <pt x="309" y="99" on="1"/>
        <pt x="356" y="99" on="0"/>
        <pt x="414" y="146" on="0"/>
        <pt x="417" y="189" on="1"/>
        <pt x="540" y="189" on="1"/>
        <pt x="537" y="97" on="0"/>
        <pt x="412" y="-10" on="0"/>
        <pt x="309" y="-10" on="1"/>
        <pt x="308" y="-10" on="1"/>
        <pt x="298" y="-37" on="1"/>
        <pt x="327" y="-40" on="0"/>
        <pt x="388" y="-61" on="0"/>
        <pt x="431" y="-99" on="0"/>
        <pt x="431" y="-128" on="1"/>
        <pt x="431" y="-163" on="0"/>
        <pt x="359" y="-216" on="0"/>
        <pt x="299" y="-216" on="1"/>
      </contour>
    </TTGlyph>
    <TTGlyph name="ccircumflex" xMin="75" yMin="-10" xMax="540" yMax="785">
      <component glyphName="c" x="0" y="0" flags="0x204"/>
      <component glyphName="uni0302" x="609" y="0" flags="0x4"/>
    </TTGlyph>
    <TTGlyph name="cdotaccent" xMin="75" yMin="-10" xMax="540" yMax="786">
      <component glyphName="c" x="0" y="0" flags="0x204"/>
      <component glyphName="uni0307" x="609" y="0" flags="0x4"/>
    </TTGlyph>
    <TTGlyph name="cedilla" xMin="196" yMin="-216" xMax="428" yMax="20">
      <component glyphName="uni0327" x="600" y="0" flags="0x4"/>
    </TTGlyph>
    <TTGlyph name="cent" xMin="75" yMin="-140" xMax="540" yMax="690">
      <contour>
        <pt x="274" y="-140" on="1"/>
        <pt x="274" y="-8" on="1"/>
        <pt x="183" y="1" on="0"/>
        <pt x="75" y="115" on="0"/>
        <pt x="75" y="206" on="1"/>
        <pt x="75" y="344" on="1"/>
        <pt x="75" y="435" on="0"/>
        <pt x="183" y="549" on="0"/>
        <pt x="274" y="558" on="1"/>
        <pt x="274" y="690" on="1"/>
        <pt x="337" y="690" on="1"/>
        <pt x="337" y="559" on="1"/>
        <pt x="428" y="551" on="0"/>
        <pt x="537" y="447" on="0"/>
        <pt x="540" y="361" on="1"/>
        <pt x="417" y="361" on="1"/>
        <pt x="415" y="397" on="0"/>
        <pt x="372" y="442" on="0"/>
        <pt x="337" y="448" on="1"/>
        <pt x="337" y="102" on="1"/>
        <pt x="372" y="108" on="0"/>
        <pt x="415" y="153" on="0"/>
        <pt x="417" y="189" on="1"/>
        <pt x="540" y="189" on="1"/>
        <pt x="537" y="103" on="0"/>
        <pt x="428" y="-1" on="0"/>
        <pt x="337" y="-9" on="1"/>
        <pt x="337" y="-140" on="1"/>
      </contour>
      <contour>
        <pt x="200" y="206" on="1"/>
        <pt x="200" y="164" on="0"/>
        <pt x="239" y="111" on="0"/>
        <pt x="274" y="103" on="1"/>
        <pt x="274" y="447" on="1"/>
        <pt x="239" y="439" on="0"/>
        <pt x="200" y="386" on="0"/>
        <pt x="200" y="345" on="1"/>
      </contour>
    </TTGlyph>
    <TTGlyph name="cent.cv14" xMin="75" yMin="-180" xMax="540" yMax="730">
      <contour>
        <pt x="242" y="-180" on="1"/>
        <pt x="242" y="-3" on="1"/>
        <pt x="165" y="14" on="0"/>
        <pt x="75" y="123" on="0"/>
        <pt x="75" y="206" on="1"/>
        <pt x="75" y="344" on="1"/>
        <pt x="75" y="427" on="0"/>
        <pt x="165" y="536" on="0"/>
        <pt x="242" y="553" on="1"/>
        <pt x="242" y="730" on="1"/>
        <pt x="367" y="730" on="1"/>
        <pt x="367" y="555" on="1"/>
        <pt x="445" y="541" on="0"/>
        <pt x="537" y="440" on="0"/>
        <pt x="540" y="361" on="1"/>
        <pt x="417" y="361" on="1"/>
        <pt x="414" y="404" on="0"/>
        <pt x="355" y="451" on="0"/>
        <pt x="309" y="451" on="1"/>
        <pt x="258" y="451" on="0"/>
        <pt x="200" y="396" on="0"/>
        <pt x="200" y="345" on="1"/>
        <pt x="200" y="206" on="1"/>
        <pt x="200" y="155" on="0"/>
        <pt x="258" y="99" on="0"/>
        <pt x="309" y="99" on="1"/>
        <pt x="356" y="99" on="0"/>
        <pt x="414" y="146" on="0"/>
        <pt x="417" y="189" on="1"/>
        <pt x="540" y="189" on="1"/>
        <pt x="537" y="110" on="0"/>
        <pt x="445" y="9" on="0"/>
        <pt x="367" y="-5" on="1"/>
        <pt x="367" y="-180" on="1"/>
      </contour>
    </TTGlyph>
    <TTGlyph name="chi" xMin="36" yMin="0" xMax="564" yMax="550">
      <component glyphName="x" x="0" y="0" flags="0x204"/>
    </TTGlyph>
    <TTGlyph name="circle" xMin="-10" yMin="50" xMax="610" yMax="670">
      <contour>
        <pt x="300" y="50" on="1"/>
        <pt x="212" y="50" on="0"/>
        <pt x="71" y="131" on="0"/>
        <pt x="-10" y="272" on="0"/>
        <pt x="-10" y="360" on="1"/>
        <pt x="-10" y="449" on="0"/>
        <pt x="71" y="589" on="0"/>
        <pt x="212" y="670" on="0"/>
        <pt x="300" y="670" on="1"/>
        <pt x="389" y="670" on="0"/>
        <pt x="529" y="589" on="0"/>
        <pt x="610" y="449" on="0"/>
        <pt x="610" y="360" on="1"/>
        <pt x="610" y="272" on="0"/>
        <pt x="529" y="131" on="0"/>
        <pt x="389" y="50" on="0"/>
      </contour>
      <contour>
        <pt x="300" y="100" on="1"/>
        <pt x="374" y="100" on="0"/>
        <pt x="492" y="168" on="0"/>
        <pt x="560" y="286" on="0"/>
        <pt x="560" y="360" on="1"/>
        <pt x="560" y="434" on="0"/>
        <pt x="492" y="552" on="0"/>
        <pt x="374" y="620" on="0"/>
        <pt x="300" y="620" on="1"/>
        <pt x="226" y="620" on="0"/>
        <pt x="108" y="552" on="0"/>
        <pt x="40" y="434" on="0"/>
        <pt x="40" y="360" on="1"/>
        <pt x="40" y="286" on="0"/>
        <pt x="108" y="168" on="0"/>
        <pt x="226" y="100" on="0"/>
      </contour>
    </TTGlyph>
    <TTGlyph name="circlemultiply" xMin="-10" yMin="20" xMax="610" yMax="640">
      <contour>
        <pt x="300" y="20" on="1"/>
        <pt x="212" y="20" on="0"/>
        <pt x="71" y="101" on="0"/>
        <pt x="-10" y="242" on="0"/>
        <pt x="-10" y="330" on="1"/>
        <pt x="-10" y="419" on="0"/>
        <pt x="71" y="559" on="0"/>
        <pt x="212" y="640" on="0"/>
        <pt x="300" y="640" on="1"/>
        <pt x="389" y="640" on="0"/>
        <pt x="529" y="559" on="0"/>
        <pt x="610" y="419" on="0"/>
        <pt x="610" y="330" on="1"/>
        <pt x="610" y="242" on="0"/>
        <pt x="529" y="101" on="0"/>
        <pt x="389" y="20" on="0"/>
      </contour>
      <contour>
        <pt x="300" y="590" on="1"/>
        <pt x="260" y="590" on="0"/>
        <pt x="189" y="569" on="0"/>
        <pt x="159" y="551" on="1"/>
        <pt x="299" y="410" on="1"/>
        <pt x="440" y="551" on="1"/>
        <pt x="410" y="570" on="0"/>
        <pt x="339" y="590" on="0"/>
      </contour>
      <contour>
        <pt x="380" y="328" on="1"/>
        <pt x="521" y="189" on="1"/>
        <pt x="539" y="219" on="0"/>
        <pt x="560" y="290" on="0"/>
        <pt x="560" y="330" on="1"/>
        <pt x="560" y="369" on="0"/>
        <pt x="540" y="440" on="0"/>
        <pt x="522" y="470" on="1"/>
      </contour>
      <contour>
        <pt x="40" y="330" on="1"/>
        <pt x="40" y="291" on="0"/>
        <pt x="60" y="220" on="0"/>
        <pt x="79" y="190" on="1"/>
        <pt x="217" y="328" on="1"/>
        <pt x="78" y="468" on="1"/>
        <pt x="60" y="439" on="0"/>
        <pt x="40" y="369" on="0"/>
      </contour>
      <contour>
        <pt x="300" y="70" on="1"/>
        <pt x="339" y="70" on="0"/>
        <pt x="409" y="90" on="0"/>
        <pt x="438" y="108" on="1"/>
        <pt x="299" y="248" on="1"/>
        <pt x="160" y="108" on="1"/>
        <pt x="190" y="90" on="0"/>
        <pt x="261" y="70" on="0"/>
      </contour>
    </TTGlyph>
    <TTGlyph name="circleplus" xMin="-10" yMin="20" xMax="610" yMax="640">
      <contour>
        <pt x="300" y="20" on="1"/>
        <pt x="212" y="20" on="0"/>
        <pt x="71" y="101" on="0"/>
        <pt x="-10" y="242" on="0"/>
        <pt x="-10" y="330" on="1"/>
        <pt x="-10" y="419" on="0"/>
        <pt x="71" y="559" on="0"/>
        <pt x="212" y="640" on="0"/>
        <pt x="300" y="640" on="1"/>
        <pt x="389" y="640" on="0"/>
        <pt x="529" y="559" on="0"/>
        <pt x="610" y="419" on="0"/>
        <pt x="610" y="330" on="1"/>
        <pt x="610" y="242" on="0"/>
        <pt x="529" y="101" on="0"/>
        <pt x="389" y="20" on="0"/>
      </contour>
      <contour>
        <pt x="238" y="388" on="1"/>
        <pt x="238" y="583" on="1"/>
        <pt x="164" y="566" on="0"/>
        <pt x="61" y="462" on="0"/>
        <pt x="46" y="388" on="1"/>
      </contour>
      <contour>
        <pt x="362" y="388" on="1"/>
        <pt x="554" y="388" on="1"/>
        <pt x="539" y="462" on="0"/>
        <pt x="436" y="566" on="0"/>
        <pt x="362" y="583" on="1"/>
      </contour>
      <contour>
        <pt x="362" y="272" on="1"/>
        <pt x="362" y="77" on="1"/>
        <pt x="436" y="94" on="0"/>
        <pt x="539" y="198" on="0"/>
        <pt x="554" y="272" on="1"/>
      </contour>
      <contour>
        <pt x="238" y="272" on="1"/>
        <pt x="46" y="272" on="1"/>
        <pt x="61" y="198" on="0"/>
        <pt x="164" y="94" on="0"/>
        <pt x="238" y="77" on="1"/>
      </contour>
    </TTGlyph>
    <TTGlyph name="circumflex" xMin="105" yMin="645" xMax="495" yMax="785">
      <component glyphName="uni0302" x="600" y="0" flags="0x4"/>
    </TTGlyph>
    <TTGlyph name="circumflex.case" xMin="105" yMin="810" xMax="495" yMax="950">
      <component glyphName="uni0302.case" x="600" y="0" flags="0x4"/>
    </TTGlyph>
</ttFont>
